<ttFont>
          <CharString index="0">
            rmoveto
            -200 -145 31 -45 174 82 rlineto
            20 9 14 16 17 vvcurveto
            7 -2 7 -5 7 vhcurveto
            return
          </CharString>
          <CharString index="1">
            675 350 rmoveto
            225 -93 137 -215 -215 -92 -64 callsubr
            87 -142 220 -59 callgsubr
            vhcurveto
            -307 -284 rmoveto
            -157 -44 124 160 160 44 124 157 157 45 -124 -160 return
          </CharString>
          <CharString index="2">
            614 700 rmoveto
            -100 -420 hlineto
            -120 -27 -89 -140 -140 -27 89 120 vhcurveto
            420 -100 -440 vlineto
            -179 88 -93 179 179 88 93 179 vhcurveto
            return
          </CharString>
          <CharString index="3">
            533 258 rmoveto
            168 -76 102 -166 -165 -76 -102 -168 -168 76 -102 165 166 76 102 168 vhcurveto
            -241 -202 47 callgsubr
            105 30 -93 -109 return
          </CharString>
          <CharString index="4">
            rmoveto
            -223 -107 23 -50 185 51 rlineto
            26 7 16 14 20 vvcurveto
            5 -1 4 -3 6 vhcurveto
            return
          </CharString>
          <CharString index="5">
            rmoveto
            155 61 -97 -158 hvcurveto
            -37 -337 vlineto
            -108 40 -69 101 58 43 9 19 56 vhcurveto
            20 -60 -56 -24 -64 -14 -64 -1 rlinecurve
            -162 -2 -78 112 160 vvcurveto
            155 74 115 153 16 callsubr
            237 hlineto
            90 -21 72 -96 -96 -20 -72 -90 -4 vhcurveto
            return
          </CharString>
          <CharString index="6">
            -20 callsubr
            vhcurveto
            -68 30 rlineto
            -78 callsubr
            21 63 rlineto
            18 -47 -55 14 -52 hhcurveto
            -103 -83 -55 -96 -76 50 -39 62 -24 hvcurveto
            63 -25 rlineto
            13 callsubr
            return
          </CharString>
          <CharString index="7">
            316 429 rmoveto
            -23 -47 -9 -59 -39 callsubr
            59 -23 47 vhcurveto
            -129 271 rlineto
            -106 hlineto
            224 -437 rlineto
            -263 98 263 vlineto
            232 437 rlineto
            -106 hlineto
            return
          </CharString>
          <CharString index="8">
            rmoveto
            -4 -72 -2 -40 -24 -42 -21 -48 rlinecurve
            64 -31 rlineto
            0 66 77 6 31 vhcurveto
            14 74 rlineto
            1 4 0 3 4 vvcurveto
            19 -9 15 -28 2 vhcurveto
            endchar
          </CharString>
          <CharString index="9">
            rmoveto
            -5 -7 -2 -7 -7 vvcurveto
            -17 14 -16 20 -9 vhcurveto
            174 -82 31 45 -200 145 rlineto
            return
          </CharString>
          <CharString index="10">
            -38 -36 41 -59 hhcurveto
            -49 -37 -23 -55 -28 hvcurveto
            55 -36 rlineto
            25 18 10 14 36 return
          </CharString>
          <CharString index="11">
            rmoveto
            93 -21 81 -118 -117 -21 -81 -93 -91 26 -83 112 114 25 83 91 vhcurveto
            -139 123 rmoveto
            59 6 -68 -53 -78 -16 -47 -49 -49 -16 47 78 53 6 68 59 hvcurveto
            return
          </CharString>
          <CharString index="12">
            53 callsubr
            -153 -74 -115 -155 -160 78 -112 162 2 hvcurveto
            64 1 64 14 56 24 -20 60 rcurveline
            -81 callgsubr
            return
          </CharString>
          <CharString index="13">
            vvcurveto
            -55 33 -47 78 40 24 14 10 17 vhcurveto
            -29 45 rlineto
            -8 -12 -16 -6 -20 hhcurveto
            -25 -23 16 31 return
          </CharString>
          <CharString index="14">
            365 634 rmoveto
            57 62 -17 -10 33 hvcurveto
            20 70 rlineto
            12 -32 -59 23 -81 hhcurveto
            -214 -91 -64 callsubr
            86 -142 218 82 59 21 15 35 hvcurveto
            -20 73 rlineto
            -13 -40 -57 -18 -58 hhcurveto
            -155 -43 124 160 160 43 124 155 hvcurveto
            return
          </CharString>
          <CharString index="15">
            rmoveto
            -60 48 -41 59 59 50 41 60 60 -50 43 -59 -59 -48 -43 -60 vhcurveto
            59 hmoveto
            30 22 20 26 27 23 -20 -30 -29 -23 -19 -27 -26 -22 19 29 vhcurveto
            endchar
          </CharString>
          <CharString index="16">
            rmoveto
            36 -32 135 98 136 -98 -2 callsubr
            128 -6 callgsubr
            endchar
          </CharString>
          <CharString index="17">
            rmoveto
            93 hlineto
            125 128 -36 32 -136 -98 -135 98 -36 -32 rlineto
            endchar
          </CharString>
          <CharString index="18">
            117 82 rmoveto
            0 46 46 32 47 vhcurveto
            299 443 rlineto
            82 -441 -82 237 vlineto
            51 49 19 0 hvcurveto
            9 -16 rlineto
            0 -46 -45 -32 -47 vhcurveto
            -296 -443 rlineto
            -86 490 86 -273 vlineto
            -72 -44 -20 0 hvcurveto
            return
          </CharString>
          <CharString index="19">
            rmoveto
            -3 -6 -1 -4 -5 vvcurveto
            -20 16 -14 26 -7 vhcurveto
            185 -51 23 50 -223 107 rlineto
            endchar
          </CharString>
          <CharString index="20">
            rmoveto
            -77 -4 -48 -58 -99 hhcurveto
            -63 -49 23 18 -47 hvcurveto
            -23 -64 rlineto
            -22 46 67 -23 94 hhcurveto
            123 101 71 126 hvcurveto
            521 vlineto
            14 -65 -83 16 -65 hhcurveto
            -158 -81 -103 -168 -168 78 -101 128 return
          </CharString>
          <CharString index="21">
            41 callgsubr
            -125 148 -6 callgsubr
            return
          </CharString>
          <CharString index="22">
            vlineto
            -120 41 -56 130 28 52 7 6 15 vhcurveto
            -13 66 rlineto
            -4 -20 -30 -4 -21 hhcurveto
            -75 -7 41 45 hvcurveto
            return
          </CharString>
          <CharString index="23">
            442 rmoveto
            0 -49 -46 -35 -43 vhcurveto
            -86 -106 rlineto
            -64 vlineto
            45 -7 rlineto
            93 -14 55 -46 -92 vvcurveto
            -96 -67 -74 -92 -68 -37 12 20 -53 vhcurveto
            -25 -62 rlineto
            -21 42 62 -23 79 hhcurveto
            146 120 90 155 111 -66 84 -120 28 hvcurveto
            156 194 rlineto
            74 return
          </CharString>
          <CharString index="24">
            395 516 rmoveto
            99 hlineto
            -283 -724 rlineto
            -103 hlineto
            99 227 -187 497 rlineto
            101 hlineto
            94 -265 rlineto
            19 -53 13 -68 0 vvcurveto
            16 hlineto
            0 13 68 20 53 vhcurveto
            return
          </CharString>
          <CharString index="25">
            777 -107 callsubr
            return
          </CharString>
          <CharString index="26">
            -68 callgsubr
            15 -5 16 hhcurveto
            return
          </CharString>
          <CharString index="27">
            23 482 rmoveto
            -35 76 -283 -85 callsubr
            302 return
          </CharString>
          <CharString index="28">
            528 rmoveto
            -59 -44 -11 -51 -45 hvcurveto
            -16 hlineto
            51 -33 -62 11 -66 hhcurveto
            -51 -79 -13 -18 -46 hvcurveto
            18 -59 rlineto
            11 45 50 11 46 hhcurveto
            97 25 -34 -77 hvcurveto
            -40 vlineto
            -112 -6 rlineto
            -136 -8 -72 -45 -105 vvcurveto
            -104 67 -53 120 85 43 34 48 33 vhcurveto
            16 hlineto
            -52 38 64 -30 87 hhcurveto
            64 64 15 24 56 41 callsubr
            72 116 hvcurveto
            337 37 hlineto
            150 -61 94 -155 vhcurveto
            -220 -363 rmoveto
            return
          </CharString>
          <CharString index="29">
            -57 25 -30 15 40 vvcurveto
            45 28 25 64 48 46 -11 -16 42 vhcurveto
            return
          </CharString>
          <CharString index="30">
            -36 29 -29 36 36 29 29 36 36 -29 29 -36 -36 -29 -29 -36 vhcurveto
            return
          </CharString>
          <CharString index="31">
            -19 -56 -43 -9 -58 hhcurveto
            -101 -40 69 108 hvcurveto
            337 37 hlineto
            158 -61 97 -155 vhcurveto
            return
          </CharString>
          <CharString index="32">
            23 31 35 15 60 hhcurveto
            96 16 -64 -78 hvcurveto
            return
          </CharString>
          <CharString index="33">
            rmoveto
            -35 27 -27 35 35 27 27 35 35 -27 27 -35 -35 -27 -27 -35 vhcurveto
            return
          </CharString>
          <CharString index="34">
            rmoveto
            314 69 -314 hlineto
            endchar
          </CharString>
          <CharString index="35">
            rmoveto
            51 50 hlineto
            27 47 19 67 53 -40 27 -48 -20 -20 -5 -10 -15 hvcurveto
            12 -33 rlineto
            5 10 9 2 14 hhcurveto
            return
          </CharString>
          <CharString index="36">
            rmoveto
            -54 45 -39 54 54 46 39 54 55 -46 40 -54 -54 -45 -40 -55 vhcurveto
            57 hmoveto
            28 18 16 24 24 19 -16 -28 -26 -19 -15 -24 -24 -18 15 26 vhcurveto
            endchar
          </CharString>
          <CharString index="37">
            67 -27 14 -19 -36 vvcurveto
            -56 -46 -19 -58 return
          </CharString>
          <CharString index="38">
            49 -3 39 -7 -35 vvcurveto
            -26 -15 -22 -39 vhcurveto
            endchar
          </CharString>
          <CharString index="39">
            189 hmoveto
            700 -100 -700 vlineto
            return
          </CharString>
          <CharString index="40">
            -12 -56 callsubr
            return
          </CharString>
          <CharString index="41">
            34 callgsubr
            71 -98 callgsubr
            -97 callgsubr
            hintmask 01111110
            return
          </CharString>
          <CharString index="42">
            hstem
            528 100 vstem
            945 -89 callgsubr
            -452 vlineto
            -480 -700 rlineto
            120 hlineto
            118 186 rlineto
            277 -186 hlineto
            -51 523 rmoveto
            24 36 13 56 0 vvcurveto
            32 hlineto
            0 -18 -79 -52 vvcurveto
            -216 -222 vlineto
            return
          </CharString>
          <CharString index="43">
            -137 -225 -220 return
          </CharString>
          <CharString index="44">
            -9 callgsubr
            -55 callgsubr
            return
          </CharString>
          <CharString index="45">
            rmoveto
            hintmask 01100000
            -26 -22 19 29 hvcurveto
            hintmask 01010000
            30 22 20 26 vhcurveto
            53 vlineto
            37 callsubr
            hintmask 10010000
            -60 48 -41 59 vhcurveto
            endchar
          </CharString>
          <CharString index="46">
            -20 hstem
            78 100 239 100 vstem
            316 528 rmoveto
            -47 -58 -25 -59 -33 hvcurveto
            -16 9 rlineto
            0 16 47 50 vvcurveto
            190 -100 -740 100 350 vlineto
            85 65 11 callgsubr
            -29 callsubr
            vhcurveto
            return
          </CharString>
          <CharString index="47">
            146 -61 63 -140 return
          </CharString>
          <CharString index="48">
            -160 -45 -124 -157 return
          </CharString>
          <CharString index="49">
            -82 42 -61 102 25 28 5 11 26 vhcurveto
            -19 return
          </CharString>
          <CharString index="50">
            rmoveto
            99 -62 48 -120 -120 -62 -48 -99 vhcurveto
            57 -9 rlineto
            77 10 35 15 80 hhcurveto
            80 35 -15 -77 10 hvcurveto
            endchar
          </CharString>
          <CharString index="51">
            68 -64 -7 callsubr
            return
          </CharString>
          <CharString index="52">
            441 700 rlineto
            -91 hlineto
            -441 -700 rlineto
            return
          </CharString>
          <CharString index="53">
            -33 -28 -27 -32 -33 -27 27 33 33 27 27 33 32 28 -27 -33 vhcurveto
            endchar
          </CharString>
          <CharString index="54">
            -32 -35 39 -56 hhcurveto
            -46 -36 -18 -54 -26 hvcurveto
            52 -31 rlineto
            return
          </CharString>
          <CharString index="55">
            rmoveto
            -65 65 65 66 -42 42 -66 -65 -65 65 -42 -43 65 -65 -65 -64 43 -43 64 65 65 -65 rlineto
            endchar
          </CharString>
          <CharString index="56">
            68 3 callsubr
            return
          </CharString>
          <CharString index="57">
            -29 -36 -39 -9 -42 hhcurveto
            -87 -14 63 78 hvcurveto
            319 -100 -320 vlineto
            -39 4 -32 9 -28 vhcurveto
            -32 -38 -32 -9 -45 hhcurveto
            -84 -28 63 78 hvcurveto
            319 -100 -320 vlineto
            -135 70 -73 139 vhcurveto
            return
          </CharString>
          <CharString index="58">
            148 -12 39 callgsubr
            return
          </CharString>
          <CharString index="59">
            -53 30 28 -31 45 hhcurveto
            44 38 22 70 hvcurveto
            -45 7 rlineto
            -38 -13 -18 -22 -38 -34 54 59 -22 vhcurveto
            return
          </CharString>
          <CharString index="60">
            rmoveto
            81 80 55 57 52 vvcurveto
            66 -47 31 -58 -47 -38 -12 -15 -29 vhcurveto
            16 -42 rlineto
            11 26 22 7 33 hhcurveto
            30 18 -18 -30 -41 -32 -34 -115 -119 hvcurveto
            -49 233 56 vlineto
            endchar
          </CharString>
          <CharString index="61">
            -20 hstem
            87 100 vstem
            87 hmoveto
            400 86 -300 614 -100 hlineto
            return
          </CharString>
          <CharString index="62">
            -32 vlineto
            -48 callgsubr
            return
          </CharString>
          <CharString index="63">
            hmoveto
            -33 -28 -27 -32 return
          </CharString>
          <CharString index="64">
            hlineto
            78 138 50 172 155 -105 80 -141 -59 -72 -15 -29 -42 hvcurveto
            22 -54 rlineto
            21 56 27 9 58 hhcurveto
            92 57 -60 -106 -112 -68 -52 -86 hvcurveto
            -45 hlineto
            endchar
          </CharString>
          <CharString index="65">
            hstemhm
            83 100 226 100 return
          </CharString>
          <CharString index="66">
            -109 -30 -93 -105 return
          </CharString>
          <CharString index="67">
            66 44 11 45 -81 callsubr
            48 hlineto
            -24 111 rlineto
            637 -100 -236 47 callsubr
            vhcurveto
            return
          </CharString>
          <CharString index="68">
            -84 callgsubr
            -7 return
          </CharString>
          <CharString index="69">
            563 rmoveto
            4 72 2 40 24 42 21 48 rlinecurve
            -64 31 rlineto
            0 -66 -77 -6 -31 vhcurveto
            -14 -74 rlineto
            -1 -4 0 -3 -4 vvcurveto
            -19 9 -15 28 -2 vhcurveto
            endchar
          </CharString>
          <CharString index="70">
            135 -70 73 -139 -57 -33 -11 -45 -42 vhcurveto
            -16 hlineto
            37 -32 -50 19 -63 hhcurveto
            return
          </CharString>
          <CharString index="71">
            19 61 rlineto
            11 -26 -28 5 -25 hhcurveto
            -102 -42 return
          </CharString>
          <CharString index="72">
            -21 190 -20 hstem
            return
          </CharString>
          <CharString index="73">
            -33 28 -27 32 return
          </CharString>
          <CharString index="74">
            -9 callsubr
            -51 callsubr
            return
          </CharString>
          <CharString index="75">
            199 447 rmoveto
            -9 callgsubr
            125 -32 hlineto
            -48 callgsubr
            -68 -76 -34 rlineto
            -35 76 -250 vlineto
            -140 54 -69 144 return
          </CharString>
          <CharString index="76">
            22 -16 11 -17 -4 -4 0 -1 -5 vhcurveto
            -92 -18 2 -46 rlineto
            67 -277 hlineto
            return
          </CharString>
          <CharString index="77">
            rmoveto
            92 vlineto
            -136 171 -45 -28 94 -190 -94 -189 45 -28 rlineto
            return
          </CharString>
          <CharString index="78">
            -318 100 0 callsubr
            return
          </CharString>
          <CharString index="79">
            611 215 89 -529 -89 213 -611 return
          </CharString>
          <CharString index="80">
            -12 71 177 62 162 68 return
          </CharString>
          <CharString index="81">
            78 568 78 return
          </CharString>
          <CharString index="82">
            441 260 rmoveto
            -117 -30 -87 -107 -67 -46 15 0 vhcurveto
            351 vlineto
            17 25 30 21 63 hhcurveto
            117 15 -89 -111 hvcurveto
            return
          </CharString>
          <CharString index="83">
            -13 callsubr
            hintmask 10011111
            26 callgsubr
          </CharString>
          <CharString index="84">
            rmoveto
            -63 hlineto
            -169 -233 rlineto
            -46 171 -57 61 57 39 50 -39 vlineto
            -171 hmoveto
            111 153 rlineto
            -153 vlineto
            endchar
          </CharString>
          <CharString index="85">
            -11 -45 -42 31 callsubr
            return
          </CharString>
          <CharString index="86">
            78 -74 -7 callsubr
            229 78 283 78 return
          </CharString>
          <CharString index="87">
            71 -39 34 -68 30 return
          </CharString>
          <CharString index="88">
            563 700 rmoveto
            -112 hlineto
            -233 -334 254 -381 107 14 -259 374 rlineto
            -125 -373 rmoveto
            return
          </CharString>
          <CharString index="89">
            50 -14 37 vhcurveto
            -53 144 rlineto
            -82 hlineto
            -51 -144 rlineto
            -14 -39 -2 -48 -84 callgsubr
            -2 49 -12 38 vhcurveto
            return
          </CharString>
          <CharString index="90">
            -261 vlineto
            71 -3 34 210 rlineto
            29 5 -5 25 -32 hhcurveto
            return
          </CharString>
          <CharString index="91">
            rmoveto
            109 16 -82 -119 -119 -18 -85 -129 -36 -31 5 13 -35 hvcurveto
            277 vlineto
            85 65 25 59 vhcurveto
            return
          </CharString>
          <CharString index="92">
            -187 -21 948 -20 hstem
            return
          </CharString>
          <CharString index="93">
            vlineto
            -60 callsubr
            return
          </CharString>
          <CharString index="94">
            rmoveto
            -3 callsubr
            return
          </CharString>
          <CharString index="95">
            -45 callgsubr
            -20 return
          </CharString>
          <CharString index="96">
            280 21 -21 105 -21 432 return
          </CharString>
          <CharString index="97">
            hstemhm
            52 callsubr
            return
          </CharString>
          <CharString index="98">
            -13 callgsubr
            140 return
          </CharString>
          <CharString index="99">
            vvcurveto
            75 23 48 86 50 58 -15 -12 36 vhcurveto
            20 70 rlineto
            12 -33 -52 23 -79 hhcurveto
            -120 -88 -77 -101 return
          </CharString>
          <CharString index="100">
            -20 93 -21 return
          </CharString>
          <CharString index="101">
            -96 -79 -87 -98 -41 hvcurveto
            -129 hlineto
            -4 16 rlineto
            0 42 41 38 40 vhcurveto
            275 288 rlineto
            73 return
          </CharString>
          <CharString index="102">
            -208 rmoveto
            89 hlineto
            119 141 -30 28 -134 -108 -133 108 -30 -28 rlineto
            endchar
          </CharString>
          <CharString index="103">
            rmoveto
            -85 -63 -26 -56 -113 -14 90 111 119 31 84 103 50 17 -3 -10 45 vhcurveto
            endchar
          </CharString>
          <CharString index="104">
            118 29 85 104 67 46 -20 0 vhcurveto
            -344 vlineto
            return
          </CharString>
          <CharString index="105">
            36 32 -125 return
          </CharString>
          <CharString index="106">
            -268 -57 callgsubr
            237 32 callsubr
            return
          </CharString>
          <CharString index="107">
            319 -14 callsubr
            return
          </CharString>
          <CharString index="108">
            100 90 43 114 return
          </CharString>
          <CharString index="109">
            -4 -1 callgsubr
            return
          </CharString>
          <CharString index="110">
            404 68 return
          </CharString>
          <CharString index="111">
            vlineto
            37 4 39 51 21 17 -5 -4 11 vhcurveto
            -36 callsubr
            return
          </CharString>
          <CharString index="112">
            51 44 -9 -8 25 hvcurveto
            20 59 rlineto
            11 -26 -54 15 -60 hhcurveto
            -160 -85 -110 -160 return
          </CharString>
          <CharString index="113">
            rmoveto
            31 19 -16 -36 -43 -35 -35 -69 -4 -16 0 5 -71 hvcurveto
            70 33 50 55 62 hhcurveto
            return
          </CharString>
          <CharString index="114">
            -12 51 -39 -20 305 51 28 51 246 51 -12 -20 hstemhm
            75 73 130 74 return
          </CharString>
          <CharString index="115">
            vlineto
            -14 65 83 -16 65 hhcurveto
            168 74 103 168 168 -68 101 -138 return
          </CharString>
          <CharString index="116">
            -104 callgsubr
            endchar
          </CharString>
          <CharString index="117">
            hmoveto
            -35 callgsubr
            return
          </CharString>
          <CharString index="118">
            52 108 227 111 return
          </CharString>
          <CharString index="119">
            hmoveto
            30 24 19 26 27 25 -19 -30 -29 -25 -18 -27 -26 -24 18 29 vhcurveto
            return
          </CharString>
          <CharString index="120">
            -70 callsubr
            -57 -50 22 18 -42 vhcurveto
            -26 -62 return
          </CharString>
          <CharString index="121">
            rmoveto
            314 63 -314 hlineto
            -163 vmoveto
            314 63 -314 hlineto
            endchar
          </CharString>
          <CharString index="122">
            -152 rmoveto
            -51 -4 39 37 hvcurveto
            return
          </CharString>
          <CharString index="123">
            vhcurveto
            -121 -230 rmoveto
            return
          </CharString>
          <CharString index="124">
            rmoveto
            hintmask 10100000
            -92 -83 -60 226 60 -83 vlineto
            hintmask 01100000
            92 vlineto
            endchar
          </CharString>
          <CharString index="125">
            rlineto
            32 45 18 79 0 vvcurveto
            16 hlineto
            0 18 -79 32 -45 vhcurveto
            endchar
          </CharString>
          <CharString index="126">
            142 hstem
            -363 142 vstem
            -363 return
          </CharString>
          <CharString index="127">
            hhcurveto
            -189 -81 -108 -177 -173 75 -112 178 hvcurveto
            return
          </CharString>
          <CharString index="128">
            rmoveto
            48 39 20 57 28 hvcurveto
            -56 38 rlineto
            -23 -10 -23 -17 -27 hhcurveto
            return
          </CharString>
          <CharString index="129">
            -64 -64 -15 -24 -56 hvcurveto
            20 -60 rlineto
            19 56 43 9 58 hhcurveto
            return
          </CharString>
          <CharString index="130">
            14 13 -1 -1 8 vhcurveto
            8 66 rlineto
            3 -12 -28 2 -8 hhcurveto
            return
          </CharString>
          <CharString index="131">
            -24 -62 hlineto
            -1 1 10 0 5 hhcurveto
            42 19 7 35 21 hvcurveto
            return
          </CharString>
          <CharString index="132">
            rmoveto
            -92 83 -60 -83 -92 -60 92 -83 60 83 92 hlineto
            endchar
          </CharString>
          <CharString index="133">
            107 -59 59 hintmask 01100000
            hintmask 10010000
            return
          </CharString>
          <CharString index="134">
            -11 callgsubr
            -20 return
          </CharString>
          <CharString index="135">
            hstemhm
            60 107 180 235 -97 97 return
          </CharString>
          <CharString index="136">
            -98 -35 -35 -75 vhcurveto
            -73 return
          </CharString>
          <CharString index="137">
            -314 -21 335 -20 return
          </CharString>
          <CharString index="138">
            hvcurveto
            53 callgsubr
            return
          </CharString>
          <CharString index="139">
            -20 hstem
            89 100 vstem
            -68 callsubr
            return
          </CharString>
          <CharString index="140">
            -20 hstem
            83 100 vstem
            183 hmoveto
            740 -100 -740 vlineto
            return
          </CharString>
          <CharString index="141">
            53 13 68 0 vvcurveto
            16 hlineto
            0 13 -68 19 -53 vhcurveto
            return
          </CharString>
          <CharString index="142">
            75 -34 34 -34 75 hstemhm
            hintmask 01000000
            return
          </CharString>
          <CharString index="143">
            124 -112 100 return
          </CharString>
          <CharString index="144">
            -59 -48 -43 -60 hvcurveto
            return
          </CharString>
          <CharString index="145">
            88 100 253 96 return
          </CharString>
          <CharString index="146">
            84 2 callsubr
            hintmask 11010000
            90 415 rmoveto
            return
          </CharString>
          <CharString index="147">
            -12 76 -73 -20 82 -21 164 78 205 79 return
          </CharString>
          <CharString index="148">
            hvcurveto
            -20 60 rlineto
            -19 -56 -43 -9 -58 hhcurveto
            -101 -40 return
          </CharString>
          <CharString index="149">
            17 callgsubr
            endchar
          </CharString>
          <CharString index="150">
            -1 0 86 532 82 return
          </CharString>
          <CharString index="151">
            -20 133 124 hstemhm
            return
          </CharString>
          <CharString index="152">
            281 -20 hstem
            return
          </CharString>
          <CharString index="153">
            hlineto
            27 195 rlineto
            -79 hlineto
            -27 -195 rlineto
            return
          </CharString>
          <CharString index="154">
            vlineto
            0 -58 24 -55 -156 -83 -104 -168 return
          </CharString>
          <CharString index="155">
            181 hstem
            -412 80 80 80 vstem
            -332 return
          </CharString>
          <CharString index="156">
            184 21 -21 312 84 return
          </CharString>
          <CharString index="157">
            178 -57 callgsubr
            return
          </CharString>
          <CharString index="158">
            -20 hstem
            50 106 271 106 return
          </CharString>
          <CharString index="159">
            50 106 246 100 return
          </CharString>
          <CharString index="160">
            277 528 rmoveto
            return
          </CharString>
          <CharString index="161">
            138 -153 hlineto
            return
          </CharString>
          <CharString index="162">
            -189 66 -27 27 -27 66 hstemhm
            hintmask 01000000
            return
          </CharString>
          <CharString index="163">
            hstem
            38 callsubr
            vstem
            188 hmoveto
            return
          </CharString>
          <CharString index="164">
            -107 -12 68 183 64 157 68 hstemhm
            return
          </CharString>
          <CharString index="165">
            -54 callgsubr
            422 vlineto
            return
          </CharString>
          <CharString index="166">
            -135 -113 return
          </CharString>
        <CharString name=".notdef">
          -291 endchar
        </CharString>
        <CharString name=".null">
          endchar
        </CharString>
        <CharString name="A">
          -44 callgsubr
          hstem
          -106 callgsubr
          endchar
        </CharString>
        <CharString name="AE">
          48 callgsubr
          -65 callsubr
          endchar
        </CharString>
        <CharString name="AEacute">
          48 callgsubr
          217 -20 -65 callsubr
          475 649 -103 callsubr
          endchar
        </CharString>
        <CharString name="Aacute">
          -44 callgsubr
          237 -20 hstem
          -106 callgsubr
          246 649 -103 callsubr
          endchar
        </CharString>
        <CharString name="Abreve">
          -44 callgsubr
          60 64 92 -20 hstem
          -106 callgsubr
          248 628 -103 callgsubr
        </CharString>
        <CharString name="Acircumflex">
          88 21 -21 207 -21 514 198 hstem
          -106 callgsubr
          -51 502 -91 callsubr
        </CharString>
        <CharString name="Adieresis">
          -44 callgsubr
          92 120 hstem
          179 120 63 120 vstem
          -106 callgsubr
          -29 564 rmoveto
          -34 callsubr
          33 27 27 33 33 -27 27 -33 -32 -28 -27 -33 vhcurveto
          303 -33 callgsubr
        </CharString>
        <CharString name="Agrave">
          -44 callgsubr
          237 -20 hstem
          -106 callgsubr
          -41 599 -88 callsubr
        </CharString>
        <CharString name="Amacron">
          -44 callgsubr
          106 69 hstem
          -106 callgsubr
          -36 518 -73 callsubr
        </CharString>
        <CharString name="Aogonek">
          88 -220 55 165 -20 206 82 432 -20 hstem
          446 67 vstem
          397 700 rmoveto
          -134 hlineto
          -250 -700 rlineto
          100 hlineto
          66 186 rlineto
          282 hlineto
          60 -186 rlineto
          -49 -37 -26 -37 -44 -94 callsubr
          44 48 43 60 31 hvcurveto
          -348 451 rmoveto
          26 73 18 91 0 vvcurveto
          22 hlineto
          0 15 -91 23 -73 vhcurveto
          58 -183 rlineto
          -227 hlineto
          endchar
        </CharString>
        <CharString name="Aring">
          -44 callgsubr
          71 52 85 51 hstem
          231 57 85 57 vstem
          -106 callgsubr
          23 576 -71 callsubr
        </CharString>
        <CharString name="Aringacute">
          88 21 -21 186 82 509 51 179 -20 hstem
          229 57 85 57 vstem
          229 733 rmoveto
          -25 9 -21 15 -16 vhcurveto
          -240 -671 rlineto
          100 hlineto
          66 186 rlineto
          282 hlineto
          60 -186 rlineto
          100 hlineto
          -216 673 rlineto
          14 16 9 21 23 vvcurveto
          55 -46 40 -54 -54 -45 -40 -55 vhcurveto
          44 -282 rmoveto
          26 73 21 91 0 vvcurveto
          16 hlineto
          0 18 -91 23 -73 vhcurveto
          58 -183 rlineto
          -227 hlineto
          257 739 -103 callsubr
          -202 -224 rmoveto
          28 18 16 24 24 19 -16 -28 -26 -19 -15 -24 -24 -18 15 26 vhcurveto
          endchar
        </CharString>
        <CharString name="Atilde">
          -44 callgsubr
          134 34 -34 75 hstemhm
          hintmask 11110000
          -106 callgsubr
          185 505 -93 callgsubr
          hintmask 11101000
          -97 callsubr
          -61 callgsubr
        </CharString>
        <CharString name="B">
          65 0 70 262 67 236 65 hstemhm
          100 100 217 95 -51 95 hintmask 11110100
          281 hmoveto
          165 110 37 165 hvcurveto
          hintmask 11111000
          89 -40 49 -99 30 vhcurveto
          16 vlineto
          67 30 28 57 50 vvcurveto
          130 -92 47 -140 vhcurveto
          -180 -700 hlineto
          189 332 rmoveto
          hintmask 11110100
          108 64 -51 -79 -108 -72 -24 -108 hvcurveto
          -81 262 hlineto
          hintmask 11111000
          217 189 rmoveto
          -86 -62 -36 -86 vhcurveto
          -69 236 70 hlineto
          86 61 -28 -86 hvcurveto
          endchar
        </CharString>
        <CharString name="Bsmallcap">
          1 0 63 190 67 164 62 hstemhm
          100 95 168 93 -58 94 hintmask 11110100
          255 hmoveto
          142 95 39 119 69 -34 38 -83 24 hvcurveto
          12 vlineto
          hintmask 11111000
          58 23 23 45 39 vvcurveto
          101 -78 37 -121 vhcurveto
          -157 -546 hlineto
          162 253 rmoveto
          hintmask 11110100
          85 51 -38 -57 -81 -58 -14 -85 hvcurveto
          -60 190 hlineto
          hintmask 11111000
          168 153 rmoveto
          -61 -49 -25 -66 vhcurveto
          -53 164 54 hlineto
          66 48 -19 -59 hvcurveto
          endchar
        </CharString>
        <CharString name="C">
          24 -34 callgsubr
          hstem
          60 107 vstem
          -93 callsubr
          endchar
        </CharString>
        <CharString name="CR">
          -291 endchar
        </CharString>
        <CharString name="Cacute">
          24 -34 callgsubr
          205 -20 hstem
          60 107 vstem
          -93 callsubr
          104 283 -103 callsubr
          endchar
        </CharString>
        <CharString name="Ccaron">
          24 -34 callgsubr
          0 51 160 -20 hstemhm
          60 107 hintmask 11011000
          -93 callsubr
          hintmask 10111000
          -67 129 -90 callsubr
        </CharString>
        <CharString name="Ccedilla">
          24 -220 43 93 150 -78 78 -77 -20 665 78 hstemhm
          60 107 201 62 hintmask 10011110
          314 -92 callgsubr
          10 37 rlineto
          hintmask 10101110
          4 4 -1 5 hhcurveto
          82 59 21 15 35 hvcurveto
          -20 73 rlineto
          -13 -40 -57 -18 -58 hhcurveto
          -155 -43 124 160 160 43 124 155 57 62 -17 -10 33 hvcurveto
          20 70 rlineto
          12 -32 -59 23 -81 hhcurveto
          -214 -91 -137 -225 -197 68 -134 170 -26 hvcurveto
          hintmask 11001110
          -18 -77 rlineto
          -69 callsubr
        </CharString>
        <CharString name="Ccircumflex">
          24 -34 callgsubr
          0 186 hstemhm
          60 107 hintmask 10110000
          365 634 rmoveto
          57 62 -17 -10 33 hvcurveto
          20 70 rlineto
          12 -32 -59 23 -81 hhcurveto
          -214 -91 -64 callsubr
          86 -142 218 82 59 21 15 35 hvcurveto
          hintmask 11010000
          -20 73 rlineto
          -13 -40 -57 -18 -58 hhcurveto
          -155 -43 124 160 160 43 124 155 hvcurveto
          -187 136 -91 callsubr
        </CharString>
        <CharString name="Cdot">
          24 -34 callgsubr
          61 142 hstem
          60 107 100 142 vstem
          -93 callsubr
          -98 210 rmoveto
          9 callsubr
        </CharString>
        <CharString name="D">
          140 0 80 544 76 hstem
          85 100 333 105 vstem
          -50 callgsubr
          endchar
        </CharString>
        <CharString name="Dcaron">
          140 0 80 544 76 31 callgsubr
          85 100 333 105 hintmask 11011100
          -50 callgsubr
          hintmask 10111100
          191 763 -90 callsubr
        </CharString>
        <CharString name="Dcroat">
          -74 callgsubr
        </CharString>
        <CharString name="Delta">
          68 0 84 616 -20 hstem
          611 hmoveto
          -237 700 rlineto
          -134 hlineto
          -237 -700 rlineto
          295 617 rmoveto
          18 hlineto
          0 15 -90 25 -74 vhcurveto
          126 -369 rlineto
          -351 hlineto
          127 369 rlineto
          25 74 15 90 0 vvcurveto
          endchar
        </CharString>
        <CharString name="E">
          -60 callgsubr
          hstem
          95 100 vstem
          512 -89 callgsubr
          45 callgsubr
          vlineto
          endchar
        </CharString>
        <CharString name="Eacute">
          -60 callgsubr
          217 -20 hstem
          95 100 vstem
          512 -89 callgsubr
          45 callgsubr
          vlineto
          312 917 -103 callsubr
          endchar
        </CharString>
        <CharString name="Ebreve">
          -60 callgsubr
          54 64 92 -20 hstem
          95 100 vstem
          512 -89 callgsubr
          45 callgsubr
          vlineto
          330 910 -103 callgsubr
        </CharString>
        <CharString name="Ecaron">
          -60 callgsubr
          31 callgsubr
          95 100 hintmask 11101100
          512 -89 callgsubr
          45 callgsubr
          vlineto
          hintmask 11011100
          154 763 -90 callsubr
        </CharString>
        <CharString name="Ecircumflex">
          -60 callgsubr
          0 198 hstemhm
          95 100 hintmask 11011000
          512 -89 callgsubr
          vlineto
          hintmask 11101000
          45 callgsubr
          hlineto
          42 770 -91 callsubr
        </CharString>
        <CharString name="Edieresis">
          -60 callgsubr
          72 120 hstemhm
          95 100 -43 120 -120 183 hintmask 11111000
          512 -89 callgsubr
          45 callgsubr
          vlineto
          hintmask 11110100
          57 832 rmoveto
          -34 callsubr
          33 27 27 33 33 -27 27 -33 -32 -28 -27 -33 vhcurveto
          303 -44 callsubr
          vhcurveto
          hintmask 11110010
          -33 -27 27 33 33 27 27 33 32 28 -27 -33 hvcurveto
          endchar
        </CharString>
        <CharString name="Edotaccent">
          -60 callgsubr
          73 142 hstem
          95 100 39 142 vstem
          512 -89 callgsubr
          45 callgsubr
          vlineto
          139 844 rmoveto
          9 callsubr
        </CharString>
        <CharString name="Egrave">
          -60 callgsubr
          217 -20 hstem
          95 100 vstem
          512 -89 callgsubr
          45 callgsubr
          vlineto
          66 867 -88 callsubr
        </CharString>
        <CharString name="Emacron">
          -60 callgsubr
          86 69 hstem
          95 100 vstem
          512 -89 callgsubr
          45 callgsubr
          vlineto
          50 786 -73 callsubr
        </CharString>
        <CharString name="Eng">
          178 -13 callgsubr
          152 -20 720 -20 hstem
          37 callgsubr
          vstem
          190 449 rmoveto
          32 -14 87 0 vhcurveto
          16 3 rlineto
          0 19 -80 29 -42 vhcurveto
          294 -434 rlineto
          -91 -82 callgsubr
          777 -100 -452 vlineto
          -32 14 -86 0 vhcurveto
          -16 -3 rlineto
          0 -21 82 -29 43 vhcurveto
          -302 448 rlineto
          -90 -700 100 hlineto
          endchar
        </CharString>
        <CharString name="Eogonek">
          26 -220 55 165 83 249 84 201 83 hstem
          95 100 141 67 vstem
          512 83 rmoveto
          -317 249 287 84 -287 201 317 83 45 callgsubr
          316 hlineto
          -49 -37 -26 -37 -44 -94 callsubr
          44 49 43 60 31 hvcurveto
          endchar
        </CharString>
        <CharString name="Eth">
          -74 callgsubr
        </CharString>
        <CharString name="Euro">
          -15 -12 78 194 63 69 63 179 78 hstem
          62 105 vstem
          4 392 rmoveto
          58 hlineto
          -1 -18 -1 -18 -18 vvcurveto
          -15 -56 -63 59 vlineto
          -170 15 71 -102 171 hhcurveto
          70 54 22 15 30 hvcurveto
          -20 70 rlineto
          -13 -34 -45 -16 -50 hhcurveto
          -109 -36 78 116 -10 hvcurveto
          228 63 -231 18 hlineto
          17 0 17 1 17 vhcurveto
          260 63 -253 hlineto
          107 19 49 72 100 hhcurveto
          49 52 -17 -10 28 hvcurveto
          23 71 rlineto
          12 -27 -52 22 -69 hhcurveto
          -159 -91 -94 -163 -28 hvcurveto
          -65 hlineto
          endchar
        </CharString>
        <CharString name="F">
          11 21 -21 312 84 220 84 hstem
          95 100 vstem
          195 hmoveto
          312 292 84 -292 220 322 84 -422 -700 vlineto
          endchar
        </CharString>
        <CharString name="G">
          96 -12 -21 callsubr
          28 callsubr
          hintmask 10011110
          352 -12 rmoveto
          hintmask 01111110
          41 65 17 39 -81 callsubr
          19 359 -235 -78 hlineto
          hintmask 10011101
          54 callsubr
          -87 callgsubr
          endchar
        </CharString>
        <CharString name="Gbreve">
          96 -12 -21 callsubr
          42 64 92 -20 28 callsubr
          hintmask 1001111110000000
          352 -12 rmoveto
          hintmask 0111111110000000
          41 65 17 39 -81 callsubr
          19 359 -235 -78 hlineto
          hintmask 1001111101000000
          54 callsubr
          -87 callgsubr
          122 922 -103 callgsubr
        </CharString>
        <CharString name="Gcircumflex">
          96 -12 78 -74 -7 callsubr
          22 207 0 78 283 78 0 186 28 callsubr
          hintmask 1000101110000000
          352 -12 rmoveto
          41 65 17 39 -81 callsubr
          19 359 -235 -78 54 callsubr
          -30 -25 -40 -24 -62 hhcurveto
          hintmask 0111010101000000
          -150 -41 124 160 160 45 124 159 55 75 -17 -8 33 hvcurveto
          20 70 rlineto
          12 -33 -70 21 -80 hhcurveto
          hintmask 0110110110000000
          -218 -93 -64 callsubr
          87 -142 205 hvcurveto
          hintmask 1000110110000000
          -175 782 -91 callsubr
        </CharString>
        <CharString name="Gcommaaccent">
          96 -314 -21 323 -21 callsubr
          hstemhm
          60 107 318 97 hintmask 11001111
          352 -12 rmoveto
          hintmask 10111111
          41 65 17 39 -81 callsubr
          19 359 -235 -78 54 callsubr
          hintmask 11001111
          -87 callgsubr
          -27 -46 rmoveto
          -105 callgsubr
          endchar
        </CharString>
        <CharString name="Gdot">
          96 -12 -21 callsubr
          61 142 hstemhm
          60 107 108 142 -70 235 -97 97 hintmask 1001111101000000
          352 -12 rmoveto
          hintmask 0111111010000000
          41 65 17 39 -81 callsubr
          19 359 -235 -78 hlineto
          hintmask 1001111101000000
          54 callsubr
          -87 callgsubr
          -77 856 rmoveto
          9 callsubr
        </CharString>
        <CharString name="Gsmallcap">
          27 40 callsubr
          hstemhm
          60 105 144 204 -96 96 hintmask 10011110
          313 -12 rmoveto
          hintmask 01111110
          -5 callgsubr
          hintmask 10011101
          4 callgsubr
          47 65 -14 -6 29 hvcurveto
          8 76 rlineto
          9 -28 -52 14 -69 20 callsubr
          endchar
        </CharString>
        <CharString name="Gsmallhook">
          25 40 callsubr
          140 68 hstemhm
          58 105 144 204 -130 97 -63 96 hintmask 1001111010000000
          478 457 rmoveto
          165 vlineto
          37 4 39 54 21 17 -5 -4 11 vhcurveto
          -12 callgsubr
          -68 vlineto
          1 -17 -17 2 -19 20 callsubr
          hintmask 0111111100000000
          -5 callgsubr
          hintmask 1001111001000000
          4 callgsubr
          hvcurveto
          hintmask 1001111010000000
          47 74 -15 -7 29 hvcurveto
          endchar
        </CharString>
        <CharString name="H">
          49 callsubr
          304 -25 callgsubr
          endchar
        </CharString>
        <CharString name="Hbar">
          49 callsubr
          124 63 117 -20 hstem
          95 100 339 100 vstem
          22 520 rmoveto
          73 -520 100 312 339 -312 100 520 72 63 -72 117 -100 -117 -339 117 -100 -117 -73 hlineto
          173 -187 rmoveto
          124 339 -124 vlineto
          endchar
        </CharString>
        <CharString name="Hcircumflex">
          49 callsubr
          304 -20 218 -25 callgsubr
          92 770 -91 callsubr
        </CharString>
        <CharString name="Hsmallcap">
          106 21 -21 234 84 228 -20 hstem
          95 100 262 100 vstem
          195 hmoveto
          234 262 -234 100 546 -100 -228 -262 228 -100 -546 vlineto
          endchar
        </CharString>
        <CharString name="I">
          -268 21 -21 700 32 callsubr
          endchar
        </CharString>
        <CharString name="IJ">
          -3 -138 73 65 -20 719 -20 21 -20 hstemhm
          89 100 56 210 -100 100 hintmask 11011100
          -68 callsubr
          156 -28 callgsubr
          hintmask 11101010
          623 -100 -636 vlineto
          hintmask 11011100
          -98 -34 -30 -76 vhcurveto
          endchar
        </CharString>
        <CharString name="Iacute">
          -1 callsubr
          197 917 -103 callsubr
          endchar
        </CharString>
        <CharString name="Ibreve">
          -268 -57 callgsubr
          74 64 92 -20 hstemhm
          89 100 -100 232 hintmask 11111000
          -68 callsubr
          175 910 -99 callgsubr
          vhcurveto
          hintmask 11110100
          120 62 48 99 hvcurveto
          endchar
        </CharString>
        <CharString name="Icircumflex">
          -268 21 -21 700 198 hstem
          89 100 vstem
          -68 callsubr
          -121 770 -91 callsubr
        </CharString>
        <CharString name="Idieresis">
          -268 -57 callgsubr
          92 120 hstemhm
          -6 120 -25 100 -12 120 hintmask 11101000
          -68 callsubr
          hintmask 11110100
          -95 832 rmoveto
          -34 callsubr
          33 27 27 33 33 -27 27 -33 -32 -28 -27 -33 vhcurveto
          303 -33 callgsubr
        </CharString>
        <CharString name="Idot">
          -268 -57 callgsubr
          93 142 hstemhm
          69 142 -122 100 hintmask 11101000
          -68 callsubr
          hintmask 11110000
          -20 844 rmoveto
          9 callsubr
        </CharString>
        <CharString name="Igrave">
          -1 callsubr
          -116 867 -88 callsubr
        </CharString>
        <CharString name="Imacron">
          -268 -57 callgsubr
          106 69 hstem
          89 100 vstem
          -68 callsubr
          -107 786 -73 callsubr
        </CharString>
        <CharString name="Iogonek">
          -268 -220 55 865 -20 hstem
          13 67 9 100 vstem
          -68 callsubr
          -49 -37 -27 -37 -44 -94 callsubr
          44 49 43 60 31 hvcurveto
          endchar
        </CharString>
        <CharString name="Ismallcap">
          -258 0 63 420 63 hstemhm
          34 220 -159 98 hintmask 11100000
          34 483 rmoveto
          hintmask 11010000
          61 -420 hlineto
          hintmask 11100000
          -61 -63 220 63 hlineto
          hintmask 11010000
          -61 420 hlineto
          hintmask 11100000
          61 63 -220 hlineto
          endchar
        </CharString>
        <CharString name="Itilde">
          -268 -57 callgsubr
          93 55 callgsubr
          89 100 hintmask 11101000
          -68 callsubr
          111 773 -93 callgsubr
          hintmask 11011000
          -97 callsubr
          hhcurveto
          hintmask 11101000
          -61 callgsubr
        </CharString>
        <CharString name="J">
          51 callgsubr
          -20 hstemhm
          -10 210 -100 100 hintmask 11100000
          -10 -28 callgsubr
          623 vlineto
          hintmask 11010000
          -100 -636 hlineto
          hintmask 11100000
          -98 -34 -30 -76 vhcurveto
          endchar
        </CharString>
        <CharString name="Jcircumflex">
          51 callgsubr
          240 hstemhm
          -10 210 -100 100 hintmask 11100000
          -10 -28 callgsubr
          623 -100 -636 vlineto
          -98 -34 -30 -76 vhcurveto
          hintmask 11010000
          -17 856 rmoveto
          41 callgsubr
          rlineto
          hintmask 11100000
          -125 148 -6 callgsubr
          endchar
        </CharString>
        <CharString name="K">
          44 0 -20 26 -21 715 -20 hstemhm
          95 100 hintmask 10110000
          -19 callsubr
          hintmask 01110000
          700 -100 -700 vlineto
          endchar
        </CharString>
        <CharString name="Kcommaaccent">
          44 30 callsubr
          720 -20 hstem
          95 100 vstem
          -19 callsubr
          700 -100 -700 vlineto
          172 -58 rmoveto
          -105 callgsubr
          endchar
        </CharString>
        <CharString name="L">
          -39 0 86 614 -46 callsubr
          endchar
        </CharString>
        <CharString name="Lacute">
          -39 0 86 614 -20 237 -46 callsubr
          320 217 -103 callsubr
          endchar
        </CharString>
        <CharString name="Lcaron">
          -39 0 86 614 -20 107 -46 callsubr
          276 87 -99 callsubr
        </CharString>
        <CharString name="Lcommaaccent">
          -39 38 callgsubr
          59 0 86 614 -46 callsubr
          160 -758 rmoveto
          -105 callgsubr
          endchar
        </CharString>
        <CharString name="Ldot">
          -39 0 86 212 142 260 -20 hstem
          87 100 122 142 vstem
          87 hmoveto
          400 86 -300 614 -100 hlineto
          222 -331 rmoveto
          9 callsubr
        </CharString>
        <CharString name="Lslash">
          -39 0 86 614 -20 hstemhm
          12 175 -100 100 -100 249 hintmask 11100000
          12 266 rmoveto
          hintmask 11010000
          75 23 rlineto
          -289 400 86 -300 234 vlineto
          hintmask 11001000
          149 46 rlineto
          69 vlineto
          hintmask 11100000
          -149 -46 rlineto
          311 vlineto
          hintmask 11010000
          -100 -342 hlineto
          hintmask 11100000
          -75 -23 rlineto
          endchar
        </CharString>
        <CharString name="Lsmallcap">
          -95 0 86 460 -20 hstem
          87 100 vstem
          87 hmoveto
          344 86 -244 460 -100 hlineto
          endchar
        </CharString>
        <CharString name="M">
          364 21 -21 106 -21 615 -76 callgsubr
          endchar
        </CharString>
        <CharString name="N">
          50 callsubr
          hstem
          37 callgsubr
          vstem
          -96 callgsubr
          endchar
        </CharString>
        <CharString name="Nacute">
          50 callsubr
          237 -20 hstem
          37 callgsubr
          vstem
          -96 callgsubr
          263 917 -103 callsubr
          endchar
        </CharString>
        <CharString name="Ncaron">
          50 callsubr
          243 -20 hstem
          37 callgsubr
          vstem
          -96 callgsubr
          122 763 -90 callsubr
        </CharString>
        <CharString name="Ncommaaccent">
          178 30 callsubr
          720 -20 hstem
          37 callgsubr
          vstem
          -96 callgsubr
          127 -58 rmoveto
          -105 callgsubr
          endchar
        </CharString>
        <CharString name="Nsmallcap">
          101 21 -21 546 -20 hstem
          90 97 273 97 vstem
          187 324 rmoveto
          20 -12 59 0 vhcurveto
          13 3 rlineto
          0 15 -54 24 -28 vhcurveto
          245 -324 rlineto
          85 546 -97 -317 hlineto
          -22 13 -60 0 vhcurveto
          -15 -2 rlineto
          0 -16 57 -25 30 vhcurveto
          -233 314 rlineto
          -94 -546 97 hlineto
          endchar
        </CharString>
        <CharString name="Ntilde">
          50 callsubr
          94 55 callgsubr
          37 callgsubr
          hintmask 11101100
          -96 callgsubr
          239 774 -93 callgsubr
          hintmask 11011100
          -97 callsubr
          hhcurveto
          hintmask 11101100
          -61 callgsubr
        </CharString>
        <CharString name="O">
          -49 callgsubr
          hstem
          -20 callgsubr
          vstem
          -106 callsubr
          -59 callsubr
          hvcurveto
          endchar
        </CharString>
        <CharString name="OE">
          399 -12 78 -66 83 249 84 201 83 -66 78 hstemhm
          60 107 301 100 hintmask 01110110
          885 -89 callgsubr
          -416 vlineto
          hintmask 10101110
          8 -31 -33 4 -38 hhcurveto
          -215 -92 -64 callsubr
          87 -142 220 hvcurveto
          hintmask 01110110
          37 34 4 8 30 hvcurveto
          hintmask 10101110
          -100 66 rmoveto
          -157 -44 124 160 160 44 124 157 40 33 -8 -15 27 hvcurveto
          -522 vlineto
          -15 -27 -33 -8 -40 hhcurveto
          endchar
        </CharString>
        <CharString name="OEsmallcap">
          284 -12 76 -76 91 -82 -20 272 82 133 82 -67 67 9 -20 hstemhm
          60 107 245 99 hintmask 0011100110000000
          770 -3 rmoveto
          hintmask 0101100110000000
          82 -259 170 234 82 -234 133 259 82 -358 -1 vlineto
          hintmask 1001001110000000
          7 -26 -30 3 -32 hhcurveto
          -185 -79 -107 -177 -172 74 -111 190 32 30 4 6 26 hvcurveto
          hintmask 0011100110000000
          -1 vlineto
          hintmask 1001010110000000
          -87 67 rmoveto
          -126 -32 92 115 116 32 92 126 35 29 -7 -12 23 hvcurveto
          -378 vlineto
          -12 -23 -29 -6 -35 hhcurveto
          endchar
        </CharString>
        <CharString name="Oacute">
          -49 callgsubr
          205 -20 hstem
          -20 callgsubr
          vstem
          -106 callsubr
          -59 callsubr
          hvcurveto
          117 851 -103 callsubr
          endchar
        </CharString>
        <CharString name="Obreve">
          -49 callgsubr
          42 64 92 -20 hstem
          -20 callgsubr
          vstem
          -106 callsubr
          -59 callsubr
          hvcurveto
          126 844 -103 callgsubr
        </CharString>
        <CharString name="Ocircumflex">
          -49 callgsubr
          0 186 44 callgsubr
          hintmask 10111000
          -106 callsubr
          hvcurveto
          hintmask 11011000
          -59 callsubr
          vhcurveto
          -168 704 -91 callsubr
        </CharString>
        <CharString name="Odieresis">
          -49 callgsubr
          60 120 hstemhm
          60 107 56 120 -120 183 164 105 hintmask 11111010
          -106 callsubr
          -59 callsubr
          hvcurveto
          -145 766 rmoveto
          -34 callsubr
          33 27 27 33 33 -27 27 -33 -32 -28 -27 -33 vhcurveto
          303 -44 callsubr
          vhcurveto
          hintmask 11110110
          -33 -27 27 33 33 27 27 33 32 28 -27 -33 hvcurveto
          endchar
        </CharString>
        <CharString name="Ograve">
          -49 callgsubr
          205 -20 hstem
          -20 callgsubr
          vstem
          -106 callsubr
          -59 callsubr
          hvcurveto
          -136 801 -88 callsubr
        </CharString>
        <CharString name="Ohorn">
          -49 callgsubr
          -78 118 44 callgsubr
          7 90 hintmask 10111100
          682 752 rmoveto
          -76 -22 -52 -49 -21 vhcurveto
          hintmask 11011100
          70 -50 -80 39 -114 hhcurveto
          -215 -92 -64 callsubr
          87 -142 220 -59 callgsubr
          74 -10 65 -22 53 hvcurveto
          33 15 25 18 19 20 rrcurveto
          35 37 17 38 59 vvcurveto
          hintmask 10111100
          15 -10 8 -15 vhcurveto
          -379 -686 rmoveto
          -157 -44 124 160 160 44 124 157 157 45 -124 -160 -59 callsubr
          hvcurveto
          endchar
        </CharString>
        <CharString name="Ohungarumlaut">
          -49 callgsubr
          262 -20 hstem
          -20 callgsubr
          vstem
          -106 callsubr
          -59 callsubr
          hvcurveto
          -7 908 -94 callgsubr
        </CharString>
        <CharString name="Omacron">
          -49 callgsubr
          74 69 hstem
          -20 callgsubr
          vstem
          -106 callsubr
          -59 callsubr
          hvcurveto
          -158 720 -73 callsubr
        </CharString>
        <CharString name="Omega">
          245 0 86 548 77 hstemhm
          81 106 -106 233 162 233 -106 106 hintmask 11100100
          395 634 rmoveto
          hintmask 11011000
          125 83 -94 -182 -118 -53 -131 -74 -33 hvcurveto
          -76 254 86 -37 vlineto
          -67 -68 -32 0 hvcurveto
          -10 16 rlineto
          96 53 65 109 136 vvcurveto
          167 -79 176 -235 -235 -79 -176 -167 -136 65 -109 96 -53 vhcurveto
          -10 -16 rlineto
          0 -68 32 -67 vhcurveto
          -37 -86 254 hlineto
          hintmask 11101000
          76 vlineto
          -74 33 -53 131 118 vvcurveto
          182 83 94 125 vhcurveto
          endchar
        </CharString>
        <CharString name="Oslash">
          189 -12 -21 21 -26 callsubr
          23 -90 callgsubr
          endchar
        </CharString>
        <CharString name="Oslashacute">
          189 -12 -21 21 -26 callsubr
          205 -90 callgsubr
          127 851 -103 callsubr
          endchar
        </CharString>
        <CharString name="Otilde">
          -49 callgsubr
          61 75 -34 75 44 callgsubr
          hintmask 11101100
          -106 callsubr
          -59 callsubr
          hvcurveto
          70 707 -93 callgsubr
          hintmask 11011100
          -97 callsubr
          hhcurveto
          hintmask 11101100
          -61 callgsubr
        </CharString>
        <CharString name="P">
          13 21 -21 258 76 292 74 56 callsubr
          258 21 callgsubr
          -219 -700 hlineto
          100 334 18 callgsubr
        </CharString>
        <CharString name="Q">
          189 -65 -21 74 -26 callsubr
          hstem
          -20 callgsubr
          vstem
          675 350 rmoveto
          225 -93 137 -215 -215 -92 -64 callsubr
          87 -142 220 40 36 5 9 31 vhcurveto
          46 -61 rlineto
          -15 11 15 -12 21 hhcurveto
          8 7 2 5 8 hvcurveto
          48 33 -81 87 rlineto
          82 61 36 108 140 vvcurveto
          -325 -181 rmoveto
          72 -98 rlineto
          -4 -16 -18 -1 -20 hhcurveto
          -157 -44 124 160 160 44 124 157 157 45 -124 -160 -104 -19 -88 -56 -50 hvcurveto
          -90 98 rlineto
          endchar
        </CharString>
        <CharString name="R">
          64 21 -21 276 76 274 74 hstem
          88 100 253 96 vstem
          -91 callgsubr
          endchar
        </CharString>
        <CharString name="Racute">
          64 21 -21 276 76 274 74 217 -20 hstem
          88 100 253 96 vstem
          -91 callgsubr
          126 565 -103 callsubr
          endchar
        </CharString>
        <CharString name="Rcaron">
          64 21 -21 276 76 274 74 31 callgsubr
          38 callsubr
          hintmask 11101110
          -91 callgsubr
          hintmask 11011110
          -47 411 -90 callsubr
        </CharString>
        <CharString name="Rcommaaccent">
          64 30 callsubr
          296 76 274 74 hstem
          88 100 253 96 vstem
          -91 callgsubr
          -27 -410 rmoveto
          -105 callgsubr
          endchar
        </CharString>
        <CharString name="Rsmallcap">
          -8 21 -21 210 70 196 70 hstem
          88 95 193 97 vstem
          183 hmoveto
          210 58 vlineto
          18 18 0 2 17 hvcurveto
          123 -212 rlineto
          106 hlineto
          -144 233 rlineto
          57 24 37 46 80 vvcurveto
          109 -70 54 -128 vhcurveto
          -187 -546 hlineto
          95 280 rmoveto
          196 86 vlineto
          73 34 -32 -61 -73 -47 -30 -74 hvcurveto
          endchar
        </CharString>
        <CharString name="Rsmallinverted">
          -8 0 70 196 70 210 -20 hstem
          88 95 193 97 vstem
          88 546 rmoveto
          -546 187 vlineto
          128 70 54 109 79 -37 46 -57 25 hvcurveto
          144 233 rlineto
          -106 hlineto
          -123 -213 rlineto
          2 -17 -18 1 -18 hhcurveto
          -58 210 hlineto
          72 -280 rmoveto
          74 47 -30 -73 -61 -34 -32 -73 hvcurveto
          -86 196 hlineto
          endchar
        </CharString>
        <CharString name="S">
          1 -12 79 568 77 hstem
          11 callsubr
          vstem
          -101 callgsubr
          endchar
        </CharString>
        <CharString name="Sacute">
          1 -12 79 568 77 205 -20 hstem
          11 callsubr
          vstem
          -101 callgsubr
          302 801 -103 callsubr
          endchar
        </CharString>
        <CharString name="Scaron">
          1 -12 79 568 77 0 51 160 -20 hstemhm
          11 callsubr
          hintmask 11011100
          -101 callgsubr
          hintmask 10111100
          159 647 -90 callsubr
        </CharString>
        <CharString name="Scedilla">
          1 -220 43 93 151 -78 78 568 77 hstemhm
          52 108 137 62 28 111 hintmask 10111110
          243 -92 callgsubr
          10 37 rlineto
          102 5 116 55 147 vvcurveto
          92 -62 55 -71 35 vhcurveto
          -120 59 rlineto
          -55 26 -30 28 49 vvcurveto
          56 32 39 92 59 62 -19 -17 46 vhcurveto
          27 71 rlineto
          21 -52 -51 21 -89 hhcurveto
          -116 -118 -67 -126 -92 53 -49 72 -34 hvcurveto
          102 -48 rlineto
          62 -29 46 -37 -59 vvcurveto
          -66 -54 -38 -66 -81 -63 25 24 -54 vhcurveto
          -32 -75 57 -26 62 -20 70 -5 rlinecurve
          hintmask 11011110
          -17 -74 rlineto
          -69 callsubr
        </CharString>
        <CharString name="Scircumflex">
          1 -12 79 568 77 0 186 hstemhm
          11 callsubr
          hintmask 10111000
          -101 callgsubr
          37 654 rmoveto
          36 -32 135 98 136 -98 -2 callsubr
          128 rlineto
          hintmask 11011000
          -93 hlineto
          endchar
        </CharString>
        <CharString name="Scommaaccent">
          1 38 callgsubr
          47 0 79 568 77 hstem
          11 callsubr
          vstem
          -101 callgsubr
          164 -174 rmoveto
          -105 callgsubr
          endchar
        </CharString>
        <CharString name="T">
          -11 21 -21 611 89 hstem
          216 101 vstem
          317 hmoveto
          -28 callsubr
          vlineto
          endchar
        </CharString>
        <CharString name="Tbar">
          -11 21 -21 334 63 214 89 hstem
          216 101 vstem
          45 334 rmoveto
          171 -334 101 334 172 63 -172 214 215 89 -529 -89 213 -214 -171 hlineto
          endchar
        </CharString>
        <CharString name="Tcaron">
          -11 21 -21 611 89 31 callgsubr
          216 101 hintmask 11011000
          317 hmoveto
          -28 callsubr
          vlineto
          hintmask 10111000
          2 763 -90 callsubr
        </CharString>
        <CharString name="Tcedilla">
          -11 -220 43 177 -20 631 89 hstemhm
          216 101 -13 62 hintmask 11101000
          250 -92 callgsubr
          13 48 rlineto
          hintmask 11110000
          27 -28 callsubr
          20 hlineto
          -20 -84 rlineto
          hintmask 11101000
          -69 callsubr
        </CharString>
        <CharString name="Tcommaaccent">
          -11 38 callgsubr
          59 611 89 hstem
          216 101 vstem
          317 hmoveto
          -28 callsubr
          vlineto
          4 -58 rmoveto
          -105 callgsubr
          endchar
        </CharString>
        <CharString name="Thorn">
          13 21 -21 116 76 292 74 142 -20 56 callsubr
          116 21 callgsubr
          -119 142 -100 -700 hlineto
          100 192 18 callgsubr
        </CharString>
        <CharString name="U">
          -49 callsubr
          hstem
          80 100 334 100 vstem
          -105 callsubr
          endchar
        </CharString>
        <CharString name="Uacute">
          -49 callsubr
          237 -20 hstem
          80 100 334 100 vstem
          -105 callsubr
          -158 657 -103 callsubr
          endchar
        </CharString>
        <CharString name="Ubreve">
          -49 callsubr
          74 64 92 -20 hstem
          80 100 334 100 vstem
          -105 callsubr
          -139 650 -103 callgsubr
        </CharString>
        <CharString name="Ucircumflex">
          -49 callsubr
          218 -20 hstem
          80 100 334 100 vstem
          -105 callsubr
          -436 510 -91 callsubr
        </CharString>
        <CharString name="Udieresis">
          -49 callsubr
          92 120 hstemhm
          80 100 17 120 -120 183 134 100 hintmask 11111010
          -105 callsubr
          -417 572 rmoveto
          -34 callsubr
          33 27 27 33 33 -27 27 -33 -32 -28 -27 -33 vhcurveto
          303 -44 callsubr
          vhcurveto
          hintmask 11110110
          -33 -27 27 33 33 27 27 33 32 28 -27 -33 hvcurveto
          endchar
        </CharString>
        <CharString name="Ugrave">
          -49 callsubr
          237 -20 hstem
          80 100 334 100 vstem
          -105 callsubr
          -397 607 -88 callsubr
        </CharString>
        <CharString name="Uhorn">
          -49 callsubr
          72 -20 hstemhm
          80 100 334 100 16 174 -90 90 hintmask 11111010
          -105 callsubr
          100 492 rmoveto
          hintmask 11111100
          -17 callgsubr
        </CharString>
        <CharString name="Uhungarumlaut">
          -49 callsubr
          294 -20 hstem
          80 100 334 100 vstem
          -105 callsubr
          -270 714 -94 callgsubr
        </CharString>
        <CharString name="Umacron">
          -49 callsubr
          106 69 hstem
          80 100 334 100 vstem
          -105 callsubr
          -424 526 -73 callsubr
        </CharString>
        <CharString name="Uogonek">
          148 -220 55 153 39 callgsubr
          hstem
          80 100 101 67 166 100 vstem
          614 700 rmoveto
          -100 -420 hlineto
          -120 -27 -89 -140 -140 -27 89 120 vhcurveto
          420 -100 -440 vlineto
          -177 86 -93 175 -2 vhcurveto
          -39 -33 -21 -34 -39 -94 callsubr
          51 64 48 72 32 hvcurveto
          87 38 43 84 125 vvcurveto
          endchar
        </CharString>
        <CharString name="Uring">
          -49 callsubr
          71 52 85 51 hstem
          80 100 68 57 85 57 67 100 vstem
          -105 callsubr
          -366 584 -71 callsubr
        </CharString>
        <CharString name="Utilde">
          -49 callsubr
          93 55 callgsubr
          80 100 334 100 hintmask 11101100
          -105 callsubr
          -200 513 -93 callgsubr
          hintmask 11011100
          -97 callsubr
          hhcurveto
          hintmask 11101100
          -61 callgsubr
        </CharString>
        <CharString name="V">
          68 21 -21 104 -21 617 -20 hstem
          611 700 rmoveto
          -100 hlineto
          -160 -453 rlineto
          -26 -73 -20 -91 0 vvcurveto
          -18 hlineto
          0 -17 91 -23 73 vhcurveto
          -144 453 rlineto
          -100 hlineto
          226 -700 rlineto
          130 hlineto
          endchar
        </CharString>
        <CharString name="W">
          27 callsubr
          hstem
          430 461 rmoveto
          15 65 6 79 0 vvcurveto
          16 hlineto
          0 6 -79 15 -65 vhcurveto
          107 -461 rlineto
          137 hlineto
          179 700 rlineto
          -106 hlineto
          -113 -471 rlineto
          -16 -65 -5 -79 -84 callgsubr
          -6 79 -15 65 vhcurveto
          -107 471 rlineto
          -136 hlineto
          -107 -471 rlineto
          -15 -65 -6 -79 -84 callgsubr
          -5 79 -16 65 vhcurveto
          -113 471 rlineto
          -106 hlineto
          179 -700 rlineto
          137 hlineto
          endchar
        </CharString>
        <CharString name="Wacute">
          27 callsubr
          237 -20 hstem
          323 hmoveto
          -137 hlineto
          -179 700 rlineto
          106 hlineto
          113 -471 rlineto
          16 -65 5 -79 0 vvcurveto
          16 hlineto
          0 6 79 15 65 vhcurveto
          107 471 rlineto
          136 hlineto
          107 -471 rlineto
          15 -65 6 -79 0 vvcurveto
          16 hlineto
          0 5 79 16 65 vhcurveto
          113 471 rlineto
          106 hlineto
          -179 -700 rlineto
          -137 hlineto
          -107 461 rlineto
          -15 65 -6 79 -84 callgsubr
          -6 -79 -15 -65 vhcurveto
          157 456 -103 callsubr
          endchar
        </CharString>
        <CharString name="Wcircumflex">
          27 callsubr
          218 -20 hstem
          430 461 rmoveto
          15 65 6 79 0 vvcurveto
          16 hlineto
          0 6 -79 15 -65 vhcurveto
          107 -461 rlineto
          137 hlineto
          179 700 rlineto
          -106 hlineto
          -113 -471 rlineto
          -16 -65 -5 -79 -84 callgsubr
          -6 79 -15 65 vhcurveto
          -107 471 rlineto
          -136 hlineto
          -107 -471 rlineto
          -15 -65 -6 -79 -84 callgsubr
          -5 79 -16 65 vhcurveto
          -113 471 rlineto
          -106 hlineto
          179 -700 rlineto
          137 hlineto
          -35 770 -91 callsubr
        </CharString>
        <CharString name="Wdieresis">
          -11 callgsubr
          72 0 120 hstemhm
          312 120 63 120 hintmask 11101100
          323 hmoveto
          -137 hlineto
          -179 700 rlineto
          106 hlineto
          113 -471 rlineto
          16 -65 5 -79 0 vvcurveto
          16 hlineto
          0 6 79 15 65 vhcurveto
          107 471 rlineto
          136 hlineto
          107 -471 rlineto
          15 -65 6 -79 0 vvcurveto
          16 hlineto
          0 5 79 16 65 vhcurveto
          113 471 rlineto
          106 hlineto
          -179 -700 rlineto
          -137 hlineto
          -107 461 rlineto
          -15 65 -6 79 -84 callgsubr
          -6 -79 -15 -65 vhcurveto
          -118 371 rmoveto
          -34 callsubr
          33 27 27 33 vhcurveto
          hintmask 11011100
          33 -27 27 -33 -32 -28 -27 -33 vhcurveto
          303 -33 callgsubr
        </CharString>
        <CharString name="Wgrave">
          27 callsubr
          237 -20 hstem
          430 461 rmoveto
          15 65 6 79 0 vvcurveto
          16 hlineto
          0 6 -79 15 -65 vhcurveto
          107 -461 rlineto
          137 hlineto
          179 700 rlineto
          -106 hlineto
          -113 -471 rlineto
          -16 -65 -5 -79 -84 callgsubr
          -6 79 -15 65 vhcurveto
          -107 471 rlineto
          -136 hlineto
          -107 -471 rlineto
          -15 -65 -6 -79 -84 callgsubr
          -5 79 -16 65 vhcurveto
          -113 471 rlineto
          -106 hlineto
          179 -700 rlineto
          137 hlineto
          -5 867 -88 callsubr
        </CharString>
        <CharString name="X">
          35 -57 callgsubr
          hstem
          302 280 rmoveto
          0 21 -48 38 -69 vhcurveto
          90 -163 rlineto
          116 hlineto
          -221 363 215 337 rlineto
          -111 hlineto
          -93 -158 rlineto
          -31 -51 -22 -51 -84 callgsubr
          -21 49 -28 53 vhcurveto
          -85 158 rlineto
          -111 hlineto
          203 -337 -242 -363 rlineto
          116 hlineto
          103 163 rlineto
          42 66 21 51 0 vvcurveto
          endchar
        </CharString>
        <CharString name="Y">
          43 callgsubr
          hstem
          227 98 vstem
          -100 callsubr
          endchar
        </CharString>
        <CharString name="Yacute">
          43 callgsubr
          237 -20 hstem
          227 98 vstem
          -100 callsubr
          -45 217 -103 callsubr
          endchar
        </CharString>
        <CharString name="Ycircumflex">
          43 callgsubr
          218 -20 hstem
          227 98 vstem
          -100 callsubr
          -345 70 -91 callsubr
        </CharString>
        <CharString name="Ydieresis">
          43 callgsubr
          92 120 hstemhm
          123 120 -16 98 -19 120 hintmask 11101000
          -100 callsubr
          hintmask 11110100
          -328 132 rmoveto
          -34 callsubr
          33 27 27 33 33 -27 27 -33 -32 -28 -27 -33 vhcurveto
          303 -33 callgsubr
        </CharString>
        <CharString name="Ygrave">
          43 callgsubr
          237 -20 hstem
          227 98 vstem
          -100 callsubr
          -308 167 -88 callsubr
        </CharString>
        <CharString name="Ysmallcap">
          -66 21 -21 546 -20 hstem
          189 95 vstem
          270 349 rmoveto
          -20 -37 -7 -40 0 vvcurveto
          -13 hlineto
          0 -5 40 -19 37 vhcurveto
          -103 197 rlineto
          -100 hlineto
          186 -341 rlineto
          -205 95 205 vlineto
          193 341 rlineto
          -99 hlineto
          endchar
        </CharString>
        <CharString name="Z">
          43 callsubr
          hstem
          -89 callsubr
          endchar
        </CharString>
        <CharString name="Zacute">
          43 callsubr
          217 -20 hstem
          -89 callsubr
          274 851 -103 callsubr
          endchar
        </CharString>
        <CharString name="Zcaron">
          43 callsubr
          31 callgsubr
          hintmask 11010000
          -89 callsubr
          hintmask 10110000
          98 697 -90 callsubr
        </CharString>
        <CharString name="Zdotaccent">
          43 callsubr
          73 142 hstem
          197 142 vstem
          -89 callsubr
          71 778 rmoveto
          9 callsubr
        </CharString>
        <CharString name="a">
          -70 callgsubr
          hstem
          1 callgsubr
          vstem
          -107 callgsubr
          endchar
        </CharString>
        <CharString name="aacute">
          -70 callgsubr
          249 -20 hstem
          1 callgsubr
          vstem
          -107 callgsubr
          -14 523 -107 callsubr
          endchar
        </CharString>
        <CharString name="abreve">
          -70 callgsubr
          77 64 92 -20 hstem
          1 callgsubr
          vstem
          -107 callgsubr
          32 507 -103 callgsubr
        </CharString>
        <CharString name="acircumflex">
          18 -12 68 0 191 -168 -21 189 60 0 153 0 68 0 231 hstemhm
          1 callgsubr
          hintmask 0100101110000000
          476 358 rmoveto
          121 -73 49 -131 -49 -81 -13 -18 -46 vhcurveto
          18 -59 rlineto
          11 45 50 11 46 hhcurveto
          97 25 -34 -77 hvcurveto
          -33 vlineto
          -114 -9 rlineto
          -138 -11 -68 -44 -107 vvcurveto
          -104 67 -53 100 69 43 24 46 35 vhcurveto
          16 hlineto
          15 -27 19 -34 16 -8 38 -1 rlinecurve
          18 7 5 0 hvcurveto
          hintmask 1010101110000000
          14 60 rlineto
          -33 10 -5 17 43 vvcurveto
          -99 42 rmoveto
          -85 -64 -24 -60 -58 -36 28 66 58 39 33 83 6 vhcurveto
          96 7 rlineto
          -264 357 rmoveto
          hintmask 1011010110000000
          -86 callsubr
          endchar
        </CharString>
        <CharString name="acute">
          -238 608 -35 callsubr
          238 -82 callsubr
          endchar
        </CharString>
        <CharString name="acute.cap">
          -238 781 -21 157 -20 hstem
          247 917 -103 callsubr
          endchar
        </CharString>
        <CharString name="acutecomb">
          608 -35 callsubr
          -212 -82 callsubr
          endchar
        </CharString>
        <CharString name="adieresis">
          -70 callgsubr
          80 120 hstemhm
          57 102 -41 120 -120 214 45 99 hintmask 1111110010000000
          -107 callgsubr
          hintmask 1111101010000000
          -259 414 rmoveto
          -34 callsubr
          33 27 27 33 33 -27 27 -33 -32 -28 -27 -33 vhcurveto
          -26 callgsubr
          vhcurveto
          hintmask 1111100110000000
          -33 -27 27 33 33 27 27 33 32 28 -27 -33 hvcurveto
          endchar
        </CharString>
        <CharString name="ae">
          312 42 callgsubr
          hstemhm
          1 callgsubr
          237 100 hintmask 10111111
          597 -79 callsubr
          hintmask 01011111
          -24 callgsubr
          endchar
        </CharString>
        <CharString name="aeacute">
          343 42 callgsubr
          249 -20 hstemhm
          68 102 218 99 237 100 hintmask 1011111110000000
          608 -79 callsubr
          hintmask 0101111110000000
          -24 callgsubr
          -117 468 -107 callsubr
          endchar
        </CharString>
        <CharString name="afii08941">
          -4 0 82 174 63 59 63 193 78 hstemhm
          42 179 -114 99 hintmask 11111000
          40 378 rmoveto
          74 hlineto
          1 -20 1 -20 1 -19 rrcurveto
          -77 -63 80 hlineto
          1 -26 1 -23 -19 vvcurveto
          -18 callgsubr
          11 -1 20 -2 24 vhcurveto
          180 63 -184 hlineto
          -1 19 -2 20 -1 20 rrcurveto
          188 63 -191 hlineto
          hintmask 11110100
          -1 25 0 24 21 -8 callsubr
          -20 1 -34 2 -39 hvcurveto
          -70 hlineto
          endchar
        </CharString>
        <CharString name="agrave">
          -70 callgsubr
          250 -20 hstem
          1 callgsubr
          vstem
          -107 callgsubr
          -224 479 -98 callsubr
          endchar
        </CharString>
        <CharString name="amacron">
          -70 callgsubr
          109 69 hstem
          1 callgsubr
          vstem
          -107 callgsubr
          -251 383 -73 callsubr
        </CharString>
        <CharString name="ampersand">
          187 -13 79 563 83 hstemhm
          57 104 -61 103 302 92 hintmask 11011000
          203 546 rmoveto
          45 28 38 68 49 51 -16 -14 39 vhcurveto
          30 78 rlineto
          17 -44 -46 18 -84 hhcurveto
          -84 -110 -50 -107 -65 37 -58 55 -55 hvcurveto
          hintmask 11101000
          -75 -38 -60 -53 -92 vvcurveto
          -130 103 -77 136 116 76 39 67 47 vhcurveto
          129 -105 69 66 -158 125 rlineto
          15 50 7 57 63 vvcurveto
          47 -92 -35 vlineto
          -35 -3 -41 -8 -41 vhcurveto
          -136 108 rlineto
          hintmask 11011000
          -98 78 -57 59 57 vvcurveto
          106 -480 rmoveto
          hintmask 11101000
          -91 -57 57 66 58 34 52 66 17 hvcurveto
          200 -163 rlineto
          -51 -29 -47 -36 -76 hhcurveto
          endchar
        </CharString>
        <CharString name="aogonek">
          18 -220 55 153 -63 callgsubr
          hstemhm
          57 102 175 67 -24 99 hintmask 11111101
          476 358 rmoveto
          121 -73 49 -131 -49 -81 -13 -18 -46 vhcurveto
          18 -59 rlineto
          11 45 50 11 46 hhcurveto
          97 25 -34 -77 hvcurveto
          -33 vlineto
          -114 -9 rlineto
          -138 -11 -68 -44 -107 vvcurveto
          -104 67 -53 100 69 43 24 46 35 vhcurveto
          16 hlineto
          15 -27 6 -11 5 -8 6 -6 rlinecurve
          hintmask 11111110
          -55 -39 -30 -38 -47 -94 callsubr
          39 40 40 54 30 hvcurveto
          3 1 2 1 0 vvcurveto
          14 60 rlineto
          hintmask 11111101
          -33 10 -5 17 43 vvcurveto
          -99 42 rmoveto
          -85 -64 -24 -60 -58 -36 28 66 58 39 33 83 6 vhcurveto
          96 7 rlineto
          endchar
        </CharString>
        <CharString name="approxequal">
          50 164 75 -31 75 65 75 -31 31 -31 75 hstemhm
          hintmask 10010000
          445 348 21 callsubr
          hintmask 10001000
          -39 callgsubr
          hintmask 10100000
          88 90 -44 113 hhcurveto
          -184 vmoveto
          48 39 20 57 28 hvcurveto
          -56 38 rlineto
          -23 -10 -23 -17 -27 hhcurveto
          hintmask 01100000
          -39 callgsubr
          hintmask 10100000
          88 90 -44 113 hhcurveto
          endchar
        </CharString>
        <CharString name="aring">
          -70 callgsubr
          40 53 98 53 hstemhm
          57 102 15 59 98 59 -13 99 hintmask 1111111101000000
          -107 callgsubr
          -203 415 rmoveto
          -60 48 -41 59 vhcurveto
          hintmask 1111111110000000
          59 50 41 60 60 -50 43 -59 37 callsubr
          59 hmoveto
          30 22 20 26 27 23 -20 -30 -29 -23 -19 -27 -26 -22 19 29 vhcurveto
          endchar
        </CharString>
        <CharString name="aringacute">
          -70 callgsubr
          40 53 98 53 242 -20 hstemhm
          57 102 15 59 98 59 -13 99 hintmask 1111111110100000
          -107 callgsubr
          -203 415 rmoveto
          -60 48 -41 59 vhcurveto
          hintmask 1111111111000000
          59 50 41 60 60 -50 43 -59 37 callsubr
          59 hmoveto
          30 22 20 26 27 23 -20 -30 -29 -23 -19 -27 -26 -22 19 29 vhcurveto
          154 345 -107 callsubr
          endchar
        </CharString>
        <CharString name="asciicircum">
          4 200 -21 402 -20 hstem
          451 179 rmoveto
          41 21 -191 381 rlineto
          -50 hlineto
          -191 -381 41 -21 117 186 18 callsubr
        </CharString>
        <CharString name="asciitilde">
          36 210 75 -31 31 -31 75 hstemhm
          hintmask 01000000
          438 210 21 callsubr
          hintmask 00100000
          -39 callgsubr
          hintmask 10000000
          88 90 -44 113 hhcurveto
          endchar
        </CharString>
        <CharString name="ascript">
          49 -12 68 23 -21 402 68 -4 -20 hstemhm
          50 102 256 97 hintmask 11101100
          152 250 rmoveto
          111 44 99 111 50 41 -29 -9 10 vhcurveto
          -267 vlineto
          -70 -69 -29 -58 -86 -43 80 114 vhcurveto
          136 278 rmoveto
          -148 -90 -129 -148 -148 67 -115 143 79 29 24 46 35 hvcurveto
          16 hlineto
          22 -40 rlineto
          -30 16 37 0 13 hhcurveto
          18 7 5 0 hvcurveto
          11 60 rlineto
          -33 10 -5 17 43 vvcurveto
          288 vlineto
          hintmask 11011100
          18 113 rlineto
          -19 hlineto
          -29 -21 0 -24 -13 hvcurveto
          -15 -28 rlineto
          -16 hlineto
          hintmask 11101100
          45 -32 -33 11 -57 hhcurveto
          endchar
        </CharString>
        <CharString name="asterisk">
          -195 446 -21 22 -21 326 -20 hstemhm
          hintmask 10100000
          338 640 rmoveto
          13 -5 -9 5 -11 hhcurveto
          -8 -9 -3 -4 -8 hvcurveto
          -94 -47 16 103 rlineto
          1 5 0 2 3 vvcurveto
          18 -8 17 -19 vhcurveto
          -18 hlineto
          hintmask 01100000
          -19 -1 -8 -16 -18 vvcurveto
          -2 0 -3 1 -5 vhcurveto
          16 -105 -93 48 rlineto
          4 -8 -9 2 -8 hhcurveto
          -12 -10 -5 -12 -4 hvcurveto
          -5 -18 rlineto
          -1 -3 0 -3 -3 vvcurveto
          -17 15 -9 19 -3 vhcurveto
          103 -18 -72 -72 rlineto
          -9 -10 -7 -12 -11 vvcurveto
          -7 3 -7 8 -5 vhcurveto
          15 -10 rlineto
          -4 5 6 -2 5 hhcurveto
          13 11 12 14 7 hvcurveto
          48 92 47 -91 rlineto
          -15 8 12 -11 13 hhcurveto
          5 5 1 4 5 hvcurveto
          14 11 rlineto
          8 6 3 7 7 vvcurveto
          10 -7 12 -9 9 vhcurveto
          -73 74 102 17 rlineto
          19 3 18 11 16 vvcurveto
          3 -1 3 -1 3 vhcurveto
          endchar
        </CharString>
        <CharString name="at">
          243 -74 67 99 61 5 -21 280 63 101 68 hstemhm
          42 90 82 92 166 83 116 81 hintmask 1101111110000000
          394 581 rmoveto
          179 98 -106 -166 -134 -40 -22 -38 -29 -9 22 21 hvcurveto
          199 vlineto
          13 82 rlineto
          -22 hlineto
          -21 -16 0 -19 -10 hvcurveto
          -9 -18 rlineto
          -12 hlineto
          31 -23 -25 9 -40 hhcurveto
          -112 -64 -92 -106 -107 53 -83 104 hvcurveto
          hintmask 1011111110000000
          53 26 20 25 23 hvcurveto
          14 hlineto
          hintmask 1101111110000000
          -31 20 27 -14 42 hhcurveto
          94 82 87 145 200 -142 125 -212 -218 -138 -136 -225 -221 135 -141 216 84 59 21 15 36 hvcurveto
          -22 58 rlineto
          -14 -42 -57 -13 -57 hhcurveto
          -175 -87 123 172 171 88 122 174 hvcurveto
          -88 -300 rmoveto
          73 26 63 72 32 27 -14 -8 9 vhcurveto
          -178 vlineto
          -43 -47 -21 -40 -58 -21 51 77 vhcurveto
          endchar
        </CharString>
        <CharString name="atilde">
          -70 callgsubr
          82 55 callgsubr
          1 callgsubr
          hintmask 11111011
          -107 callgsubr
          -25 356 -93 callgsubr
          hintmask 11110111
          -97 callsubr
          hhcurveto
          hintmask 11111011
          -61 callgsubr
        </CharString>
        <CharString name="aturned">
          18 -12 68 153 60 191 68 hstem
          88 99 218 102 vstem
          88 158 rmoveto
          -121 73 -49 131 49 81 13 18 46 vhcurveto
          -18 59 rlineto
          -11 -45 -50 -11 -46 hhcurveto
          -97 -25 34 77 hvcurveto
          33 vlineto
          114 9 rlineto
          138 11 68 44 107 vvcurveto
          104 -67 53 -100 -69 -43 -24 -46 -35 vhcurveto
          -16 hlineto
          -15 27 -19 34 -16 8 -38 1 rlinecurve
          -18 -7 -5 0 hvcurveto
          -14 -60 rlineto
          33 -10 5 -17 -43 vvcurveto
          99 -42 rmoveto
          85 64 24 60 58 36 -28 -66 -58 -39 -33 -83 -6 vhcurveto
          -96 -7 rlineto
          endchar
        </CharString>
        <CharString name="b">
          37 -12 67 405 68 212 -20 hstem
          78 100 249 106 vstem
          162 453 rmoveto
          0 16 47 50 vvcurveto
          190 -100 -722 8 callsubr
          -63 -53 -25 -59 -33 hvcurveto
          124 16 -16 callsubr
          endchar
        </CharString>
        <CharString name="backslash">
          -193 -15 callsubr
          377 -208 rmoveto
          -307 948 rlineto
          -95 hlineto
          307 -948 rlineto
          endchar
        </CharString>
        <CharString name="bar">
          -276 -15 callsubr
          90 90 vstem
          180 -208 rmoveto
          948 -90 -948 vlineto
          endchar
        </CharString>
        <CharString name="beta">
          109 -187 -21 196 65 314 64 291 65 hstemhm
          100 105 255 105 -70 105 hintmask 11111100
          205 577 rmoveto
          95 34 50 95 95 31 -63 -85 -109 -53 -34 -121 vhcurveto
          -64 19 vlineto
          hintmask 11111010
          107 83 -35 -122 -132 -87 -25 -122 hvcurveto
          -65 vlineto
          180 134 32 190 94 -48 81 -109 10 hvcurveto
          16 vlineto
          hintmask 11111100
          99 30 23 55 78 vvcurveto
          125 -96 88 -135 -135 -99 -75 -135 vhcurveto
          -785 105 vlineto
          endchar
        </CharString>
        <CharString name="bhook">
          37 -12 67 405 68 156 68 hstem
          78 100 249 106 vstem
          302 460 -16 callsubr
          25 68 rmoveto
          -62 -54 -25 -59 -33 hvcurveto
          -65 callgsubr
          -540 8 callsubr
          hvcurveto
          endchar
        </CharString>
        <CharString name="braceleft">
          40 callgsubr
          171 90 -90 215 cntrmask 11100000
          hintmask 11101000
          386 -134 rmoveto
          68 vlineto
          hintmask 11110000
          -84 -41 24 80 hvcurveto
          73 vlineto
          107 -15 53 -93 10 vhcurveto
          16 vlineto
          93 19 16 55 107 vvcurveto
          60 vlineto
          hintmask 11101000
          82 39 25 85 vhcurveto
          68 -26 vlineto
          -114 -75 -50 -165 hvcurveto
          -60 vlineto
          -72 -45 -37 -64 vhcurveto
          -79 vlineto
          64 45 -37 -72 hvcurveto
          -60 vlineto
          -165 75 -50 114 vhcurveto
          endchar
        </CharString>
        <CharString name="braceright">
          40 callgsubr
          42 215 -91 91 cntrmask 11100000
          hintmask 11110000
          68 -134 rmoveto
          hintmask 11101000
          -15 callgsubr
          60 vlineto
          72 45 37 64 vhcurveto
          79 vlineto
          -64 -45 37 72 hvcurveto
          60 vlineto
          hintmask 11110000
          165 -75 50 -114 vhcurveto
          -26 -68 hlineto
          85 39 -25 -82 hvcurveto
          -60 vlineto
          -107 16 -55 93 -19 vhcurveto
          -16 vlineto
          -93 -10 -15 -53 -107 vvcurveto
          -73 vlineto
          -80 -41 -24 -84 vhcurveto
          -68 vlineto
          endchar
        </CharString>
        <CharString name="bracketleft">
          -224 -148 80 755 80 hstemhm
          90 92 -92 202 hintmask 11010000
          90 -148 rmoveto
          202 80 hlineto
          hintmask 11100000
          -110 755 hlineto
          hintmask 11010000
          110 80 -202 hlineto
          endchar
        </CharString>
        <CharString name="bracketright">
          -224 -148 80 755 80 hstemhm
          30 202 -92 92 hintmask 11100000
          232 767 rmoveto
          -202 hlineto
          hintmask 11010000
          -80 110 vlineto
          hintmask 11100000
          -755 -110 -80 202 vlineto
          endchar
        </CharString>
        <CharString name="breve">
          -142 605 64 92 -20 hstem
          327 761 -103 callgsubr
        </CharString>
        <CharString name="brokenbar">
          -286 -15 callsubr
          90 80 vstem
          170 317 rmoveto
          423 -80 -423 vlineto
          80 -525 rmoveto
          433 -80 -433 vlineto
          endchar
        </CharString>
        <CharString name="bullet">
          -340 227 185 hstem
          20 166 vstem
          186 320 rmoveto
          61 -30 31 -53 -53 -30 -34 -58 -59 29 -34 54 54 29 34 59 vhcurveto
          endchar
        </CharString>
        <CharString name="c">
          30 callgsubr
          hstem
          50 106 vstem
          298 57 -95 callgsubr
          endchar
        </CharString>
        <CharString name="cacute">
          30 callgsubr
          249 -20 hstem
          50 106 vstem
          383 -82 callsubr
          -117 -675 -95 callgsubr
          endchar
        </CharString>
        <CharString name="caron">
          -219 617 -21 180 -20 hstem
          334 744 rmoveto
          -36 32 -75 callgsubr
        </CharString>
        <CharString name="caron.cap">
          -219 784 -21 160 -20 hstem
          116 763 -90 callsubr
        </CharString>
        <CharString name="ccaron">
          -73 -12 69 403 68 -68 136 180 -20 hstemhm
          50 106 hintmask 10111000
          298 57 -95 callgsubr
          150 687 rmoveto
          -36 32 59 callsubr
          -10 callgsubr
          rlineto
          hintmask 11011000
          125 -148 rlineto
          93 hlineto
          endchar
        </CharString>
        <CharString name="ccedilla">
          -83 -220 43 93 141 -69 69 403 68 hstemhm
          50 106 140 62 hintmask 10111100
          242 -92 callgsubr
          10 37 rlineto
          -1 6 6 0 7 hhcurveto
          60 54 15 11 26 hvcurveto
          -20 61 rlineto
          -10 -33 -36 -8 -51 hhcurveto
          -100 -42 81 120 120 42 82 100 51 44 -9 -8 25 hvcurveto
          20 59 rlineto
          11 -26 -54 15 -60 hhcurveto
          -162 -86 -90 -180 -152 61 -87 116 -24 hvcurveto
          hintmask 11011100
          -19 -79 rlineto
          -69 callsubr
        </CharString>
        <CharString name="ccircumflex">
          30 callgsubr
          0 231 hstemhm
          50 106 hintmask 10110000
          298 57 -95 callgsubr
          -181 554 rmoveto
          36 -32 rlineto
          hintmask 11010000
          -72 callgsubr
          49 callgsubr
        </CharString>
        <CharString name="ccurl">
          -43 -94 -21 103 68 103 -21 60 65 197 68 hstem
          50 103 251 74 vstem
          295 460 rmoveto
          5 callsubr
          -86 25 -72 47 -48 hvcurveto
          -15 -54 -7 -56 -52 vvcurveto
          67 -5 3 39 5 9 callgsubr
          -83 -23 -102 -14 hvcurveto
          -15 hlineto
          -16 33 -3 47 40 vvcurveto
          110 32 91 110 1 vhcurveto
          -404 vmoveto
          -22 callgsubr
        </CharString>
        <CharString name="cdot">
          30 callgsubr
          74 142 hstem
          50 106 52 142 vstem
          298 57 -95 callgsubr
          -90 616 rmoveto
          9 callsubr
        </CharString>
        <CharString name="cedilla">
          -316 -220 43 181 -20 hstemhm
          143 62 vstemhm
          89 -92 callgsubr
          14 52 rlineto
          -54 hlineto
          hintmask 11100000
          -21 -88 rlineto
          -69 callsubr
        </CharString>
        <CharString name="cent">
          -81 -11 170 379 162 hstemhm
          60 106 92 80 vstemhm
          306 159 rmoveto
          -99 -41 76 113 113 41 77 99 50 44 -8 -7 26 hvcurveto
          19 55 -20 7 -36 11 -43 4 rlinecurve
          5 100 rlineto
          -84 hlineto
          2 -100 rlineto
          -136 -12 -73 -85 -155 vvcurveto
          -152 69 -85 130 -16 vhcurveto
          -2 -106 rlineto
          84 hlineto
          hintmask 11110000
          -5 105 47 3 40 12 22 9 rlinecurve
          -19 57 rlineto
          -8 -33 -37 -8 -50 hhcurveto
          endchar
        </CharString>
        <CharString name="circumflex">
          -219 600 -21 180 -20 hstem
          -9 611 rmoveto
          -86 callsubr
          endchar
        </CharString>
        <CharString name="circumflex.cap">
          -219 759 -21 160 -20 hstem
          -9 770 -91 callsubr
        </CharString>
        <CharString name="colon">
          -288 -12 130 175 130 hstem
          64 130 vstem
          64 358 rmoveto
          -77 callsubr
          -305 vmoveto
          -77 callsubr
          endchar
        </CharString>
        <CharString name="comma">
          -280 -160 -21 277 -20 hstem
          82 96 rmoveto
          -105 callgsubr
          endchar
        </CharString>
        <CharString name="commaabovecmb">
          575 2 callgsubr
          -317 787 -99 callsubr
        </CharString>
        <CharString name="copyright">
          137 -4 59 53 49 235 51 56 60 hstem
          50 70 79 70 282 67 vstem
          618 277 rmoveto
          174 -119 108 -165 -165 -119 -108 -174 -170 114 -111 170 170 114 111 170 vhcurveto
          -284 -222 rmoveto
          -122 -92 83 139 139 92 83 122 121 96 -83 -139 -139 -89 -83 -128 hvcurveto
          7 337 rmoveto
          21 24 -5 -8 27 hvcurveto
          12 48 rlineto
          6 -13 -33 10 -38 hhcurveto
          -102 -40 -64 -104 -101 38 -66 104 38 30 9 6 16 hvcurveto
          -11 51 rlineto
          -8 -21 -28 -9 -24 hhcurveto
          -54 -18 51 67 67 15 50 57 hvcurveto
          endchar
        </CharString>
        <CharString name="cuernodown">
          -199 -21 92 64 hstem
          -136 -211 -57 callsubr
        </CharString>
        <CharString name="currency">
          27 229 -21 32 61 284 61 36 -20 hstem
          83 61 284 61 vstem
          83 443 rmoveto
          -44 13 -40 24 -33 vhcurveto
          -70 -66 52 -52 65 70 rlineto
          -24 33 41 -14 45 hhcurveto
          45 41 14 25 34 hvcurveto
          65 -71 52 52 -71 66 rlineto
          23 33 14 40 44 vvcurveto
          44 -14 41 -24 34 vhcurveto
          72 68 -52 52 -68 -74 rlineto
          24 -33 -40 14 -44 hhcurveto
          -44 -40 -14 -23 -33 hvcurveto
          -67 73 -52 -52 71 -68 rlineto
          -24 -33 -14 -42 -44 vvcurveto
          61 hmoveto
          78 64 64 78 78 64 -64 -78 -78 -64 -64 -78 -78 -64 64 78 vhcurveto
          endchar
        </CharString>
        <CharString name="d">
          36 -67 callsubr
          416 20 callgsubr
          hintmask 10011110
          156 257 rmoveto
          -77 callgsubr
          107 -269 rmoveto
          hintmask 01111110
          -40 callsubr
          hintmask 10011110
          -168 69 -100 144 vhcurveto
          endchar
        </CharString>
        <CharString name="dagger">
          -78 -67 -21 553 -7 callgsubr
          435 49 vlineto
          -43 callgsubr
          hlineto
          endchar
        </CharString>
        <CharString name="daggerdbl">
          -78 -67 -21 344 78 131 -7 callgsubr
          226 49 vlineto
          27 89 -2 0 hvcurveto
          84 vlineto
          0 -89 -4 -29 vhcurveto
          -47 131 49 hlineto
          -43 callgsubr
          -131 -51 hlineto
          -18 -96 4 0 hvcurveto
          -84 vlineto
          0 96 2 18 vhcurveto
          51 hlineto
          endchar
        </CharString>
        <CharString name="dcaron">
          119 -67 callsubr
          416 68 212 -20 67 -20 hstemhm
          50 106 0 246 0 100 0 91 hintmask 1001110101000000
          156 257 rmoveto
          -77 callgsubr
          107 -269 rmoveto
          hintmask 0111111010000000
          -40 callsubr
          hintmask 1001111010000000
          -168 69 -100 144 vhcurveto
          332 799 -99 callsubr
        </CharString>
        <CharString name="degree">
          -214 436 59 142 60 hstem
          30 66 139 67 vstem
          30 565 rmoveto
          -76 61 -53 74 73 64 53 76 77 -64 55 -73 -74 -61 -55 -77 vhcurveto
          66 hmoveto
          45 30 27 39 39 31 -27 -45 -44 -31 -26 -39 -39 -30 26 44 vhcurveto
          endchar
        </CharString>
        <CharString name="dhook">
          36 -67 callsubr
          416 68 171 68 -10 callsubr
          hintmask 10011110
          502 103 rmoveto
          520 4 callsubr
          -61 -82 hvcurveto
          -120 vlineto
          -71 callgsubr
          hintmask 01111110
          66 44 11 45 -81 callsubr
          48 hlineto
          -370 265 -13 callsubr
          hintmask 10011110
          26 callgsubr
        </CharString>
        <CharString name="dieresis">
          -160 608 120 hstem
          26 120 94 120 vstem
          26 668 rmoveto
          -34 callsubr
          33 27 27 33 33 -27 27 -33 -32 -28 -27 -33 vhcurveto
          334 -33 callgsubr
        </CharString>
        <CharString name="dieresis.cap">
          -160 772 120 hstem
          42 120 63 120 vstem
          42 832 rmoveto
          -34 callsubr
          33 27 27 33 33 -27 27 -33 -32 -28 -27 -33 vhcurveto
          303 -33 callgsubr
        </CharString>
        <CharString name="dieresisdown">
          -197 120 hstem
          -490 120 104 120 vstem
          -490 -137 rmoveto
          -34 callsubr
          33 27 27 33 33 -27 27 -33 -32 -28 -27 -33 vhcurveto
          344 -33 callgsubr
        </CharString>
        <CharString name="divide">
          56 79 130 87 76 88 130 hstem
          236 130 vstem
          236 525 rmoveto
          -77 callsubr
          -381 vmoveto
          -77 callsubr
          316 228 rmoveto
          -502 -76 502 hlineto
          endchar
        </CharString>
        <CharString name="dollar">
          -29 -113 187 -73 73 502 175 hstemhm
          70 102 69 80 54 103 hintmask 01111100
          61 48 rmoveto
          55 -25 59 -18 68 -4 rrcurveto
          hintmask 10111100
          -3 -114 rlineto
          84 hlineto
          -5 119 rlineto
          80 15 79 53 112 vvcurveto
          82 -55 50 -63 31 vhcurveto
          -107 53 rlineto
          -49 24 -32 24 43 vvcurveto
          51 33 32 77 53 56 -17 -16 41 vhcurveto
          24 67 -37 14 -38 15 -55 6 rlinecurve
          5 106 rlineto
          -84 hlineto
          3 -107 rlineto
          -93 -11 -87 -57 -101 vvcurveto
          -82 47 -44 65 -30 vhcurveto
          92 -44 rlineto
          54 -25 47 -34 -53 vvcurveto
          -59 -49 -30 -59 -72 -57 23 21 -47 vhcurveto
          endchar
        </CharString>
        <CharString name="dotaccent">
          -364 602 142 hstem
          20 142 vstem
          20 673 rmoveto
          9 callsubr
        </CharString>
        <CharString name="dotbelow">
          -210 142 hstem
          -389 142 vstem
          -389 -139 rmoveto
          9 callsubr
        </CharString>
        <CharString name="dotbelowcomb">
          -210 19 callsubr
          -139 rmoveto
          9 callsubr
        </CharString>
        <CharString name="dotlessi">
          -280 3 callgsubr
          hstem
          83 100 vstem
          183 10 callsubr
          endchar
        </CharString>
        <CharString name="dotlessj">
          -277 -220 73 663 -20 hstemhm
          -23 210 -100 100 hintmask 11100000
          -2 -220 rmoveto
          -15 callgsubr
          521 vlineto
          hintmask 11010000
          -100 -530 hlineto
          hintmask 11100000
          29 callsubr
          vlineto
          endchar
        </CharString>
        <CharString name="drthook">
          36 -9 callsubr
          68 405 67 212 -20 hstem
          52 callsubr
          vstem
          557 15 callsubr
          816 -100 -236 47 callsubr
          -168 69 -100 144 66 41 11 45 32 vhcurveto
          -121 vlineto
          -78 callgsubr
          -401 409 rmoveto
          118 29 86 104 67 46 -21 0 vhcurveto
          -344 vlineto
          26 callgsubr
        </CharString>
        <CharString name="dslash">
          36 -67 callsubr
          416 68 61 62 89 -14 callgsubr
          hintmask 10011111
          170 589 rmoveto
          232 -85 hlineto
          -71 callgsubr
          hintmask 01111111
          66 44 11 45 -81 callsubr
          48 hlineto
          -24 111 rlineto
          486 61 62 -61 89 -100 -89 -232 vlineto
          -14 -394 -24 callsubr
        </CharString>
        <CharString name="e">
          -8 -27 callsubr
          hstem
          50 106 237 100 vstem
          -95 callsubr
          endchar
        </CharString>
        <CharString name="eacute">
          42 -27 callsubr
          249 -20 hstem
          77 106 237 100 vstem
          399 -82 callsubr
          -127 -204 -102 callsubr
          endchar
        </CharString>
        <CharString name="ebreve">
          -3 callgsubr
          77 64 92 -20 hstem
          50 106 237 100 vstem
          277 528 -102 callsubr
          243 463 -103 callgsubr
        </CharString>
        <CharString name="ecaron">
          -8 -12 71 177 62 0 162 0 68 0 68 180 -20 hstemhm
          50 106 237 100 hintmask 10101111
          -95 callsubr
          59 446 rmoveto
          -36 32 59 callsubr
          rlineto
          hintmask 11010111
          -10 callgsubr
          125 -148 rlineto
          93 hlineto
          endchar
        </CharString>
        <CharString name="ecircumflex">
          -8 -27 callsubr
          231 -20 hstem
          50 106 237 100 vstem
          -95 callsubr
          -287 313 rmoveto
          -86 callsubr
          endchar
        </CharString>
        <CharString name="edieresis">
          -8 -27 callsubr
          80 120 hstemhm
          50 106 74 214 -120 120 -51 100 hintmask 11111001
          277 528 -102 callsubr
          -46 370 rmoveto
          -34 callsubr
          vhcurveto
          hintmask 11111100
          33 27 27 33 33 -27 27 -33 -32 -28 -27 -33 hvcurveto
          -26 callgsubr
          vhcurveto
          hintmask 11111010
          -33 -27 27 33 33 27 27 33 32 28 -27 -33 hvcurveto
          endchar
        </CharString>
        <CharString name="edotaccent">
          -3 callgsubr
          74 142 hstem
          50 106 237 100 vstem
          277 528 -102 callsubr
          50 375 rmoveto
          9 callsubr
        </CharString>
        <CharString name="egrave">
          -8 -27 callsubr
          250 -20 hstem
          50 106 237 100 vstem
          -95 callsubr
          -231 435 -98 callsubr
          endchar
        </CharString>
        <CharString name="eight">
          65 -12 68 271 67 251 67 hstemhm
          50 104 -84 104 263 104 -84 104 hintmask 11110010
          306 -12 rmoveto
          149 106 71 135 72 -42 68 -71 20 hvcurveto
          16 vlineto
          hintmask 11101100
          71 30 22 57 64 vvcurveto
          138 -104 53 -130 -130 -107 -53 -138 -64 22 -57 71 -30 vhcurveto
          -16 vlineto
          hintmask 11110010
          -71 -20 -42 -68 -72 vvcurveto
          -135 107 -71 149 vhcurveto
          151 198 rmoveto
          -79 -50 -51 -100 -100 -53 51 79 74 45 67 108 108 42 -67 -74 vhcurveto
          -150 459 rmoveto
          hintmask 11101100
          76 54 -43 -74 -77 -38 -57 -92 -92 -41 57 77 74 57 43 76 hvcurveto
          endchar
        </CharString>
        <CharString name="eightsuperior">
          -257 364 48 105 55 91 49 hstem
          33 50 121 52 vstem
          208 550 rmoveto
          30 9 18 31 32 vvcurveto
          62 -47 28 -64 -64 -48 -28 -62 -32 18 -31 30 -9 vhcurveto
          -8 vlineto
          -36 -8 -22 -36 -35 vvcurveto
          -65 52 -34 70 70 51 34 65 35 -22 36 -36 8 vhcurveto
          -4 -80 rmoveto
          -30 -18 -20 -41 -41 -21 20 30 30 18 25 44 43 16 -25 -30 vhcurveto
          -59 201 rmoveto
          29 20 -18 -24 -28 -16 -21 -33 -34 -17 21 28 24 22 18 29 hvcurveto
          endchar
        </CharString>
        <CharString name="ellipsis">
          210 -12 142 hstem
          65 142 100 142 100 142 cntrmask 01110000
          65 59 -102 callgsubr
          242 hmoveto
          -104 callgsubr
          242 hmoveto
          9 callsubr
        </CharString>
        <CharString name="emacron">
          -3 callgsubr
          109 69 hstem
          50 106 237 100 vstem
          277 528 -102 callsubr
          -26 339 -73 callsubr
        </CharString>
        <CharString name="emdash">
          338 226 75 hstem
          50 226 rmoveto
          784 75 -784 hlineto
          endchar
        </CharString>
        <CharString name="endash">
          38 226 75 hstem
          50 226 rmoveto
          484 75 -484 hlineto
          endchar
        </CharString>
        <CharString name="eng">
          -80 callgsubr
          -415 100 422 vlineto
          hintmask 11101100
          -75 callsubr
          -394 -82 callgsubr
          endchar
        </CharString>
        <CharString name="eogonek">
          -13 -220 57 151 71 177 62 162 68 hstem
          50 106 121 66 50 100 vstem
          53 callsubr
          -153 -74 -115 -155 -160 78 -110 152 32 28 12 15 20 hvcurveto
          5 -16 rlineto
          -45 -31 -43 -35 -54 vvcurveto
          -55 40 -44 61 38 30 11 27 33 vhcurveto
          -35 41 rlineto
          -13 -14 -21 -9 -20 hhcurveto
          -26 -20 21 25 47 58 50 73 47 hvcurveto
          -20 60 rlineto
          -81 callgsubr
          endchar
        </CharString>
        <CharString name="epsilon1rev">
          57 callsubr
          155 229 -96 96 hintmask 11101000
          183 460 rmoveto
          -46 callgsubr
          -19 65 -78 10 hvcurveto
          16 vlineto
          78 10 19 54 43 vvcurveto
          110 -101 32 -100 vhcurveto
          hintmask 11110000
          -57 -51 -15 -11 -23 hvcurveto
          20 -59 rlineto
          7 21 42 10 48 hhcurveto
          endchar
        </CharString>
        <CharString name="equal">
          70 200 76 124 76 hstem
          549 476 rmoveto
          -482 -76 482 hlineto
          -124 vmoveto
          -482 -76 482 hlineto
          endchar
        </CharString>
        <CharString name="esh">
          -234 -13 callgsubr
          833 69 hstemhm
          -23 232 -124 99 -87 99 -86 99 hintmask 11001000
          109 hmoveto
          hintmask 11000100
          1 -16 0 -10 -3 vvcurveto
          -61 -34 -57 -73 -5 vhcurveto
          hintmask 11100000
          -1 -8 -9 0 -9 hhcurveto
          -67 32 vlineto
          123 9 77 68 132 vvcurveto
          5 0 2 -1 12 vhcurveto
          -23 517 rlineto
          hintmask 11010000
          -1 18 0 11 4 vvcurveto
          71 39 52 70 23 callsubr
          -137 -66 -66 -133 hvcurveto
          -10 1 -11 -11 vvcurveto
          endchar
        </CharString>
        <CharString name="eshcurl">
          -152 -13 callgsubr
          115 65 653 69 hstemhm
          -70 68 112 101 -83 100 -78 98 hintmask 11110100
          357 44 rmoveto
          -112 -8 -33 495 rlineto
          hintmask 11111000
          -1 14 0 9 4 vvcurveto
          69 38 54 81 9 10 -1 -1 7 vhcurveto
          8 66 rlineto
          3 -11 -26 2 -16 hhcurveto
          -124 -2 -77 -59 -133 vvcurveto
          -8 0 -8 1 -9 vhcurveto
          34 -503 rlineto
          -7 hlineto
          -141 -11 -67 -41 -83 vvcurveto
          -72 55 -41 86 vhcurveto
          hintmask 11110010
          99 75 58 132 3 hvcurveto
          114 7 rlineto
          -364 -87 rmoveto
          52 42 15 110 6 vhcurveto
          -85 -39 -30 -41 -62 -10 28 14 vhcurveto
          endchar
        </CharString>
        <CharString name="eth">
          37 -12 65 373 66 259 -20 hstem
          50 105 273 105 vstem
          194 541 rmoveto
          104 71 61 -47 36 -62 26 -64 rlinecurve
          -15 -5 rlineto
          37 -18 -42 21 -54 hhcurveto
          -158 -84 -94 -154 -154 82 -102 158 158 85 96 173 152 -42 146 -129 101 hvcurveto
          69 47 -33 48 -86 -59 -39 23 -46 19 -52 16 rlinecurve
          -25 -62 36 -13 31 -14 28 -15 rlinecurve
          -84 -58 rlineto
          129 -535 rmoveto
          -99 -36 93 98 98 38 84 99 100 36 -84 -98 -98 -39 -93 -99 hvcurveto
          endchar
        </CharString>
        <CharString name="etilde">
          -8 -27 callsubr
          127 34 -34 75 hstemhm
          50 106 237 100 hintmask 11110110
          277 528 -102 callsubr
          187 316 -93 callgsubr
          hintmask 11101110
          -97 callsubr
          -61 callgsubr
        </CharString>
        <CharString name="exclam">
          -284 -12 142 570 -20 hstem
          60 142 vstem
          60 59 -102 callgsubr
          11 641 rmoveto
          20 -464 rlineto
          80 hlineto
          20 464 rlineto
          endchar
        </CharString>
        <CharString name="exclamdown">
          -294 -163 -21 570 142 hstem
          60 142 vstem
          202 457 rmoveto
          39 -32 32 -39 -39 -32 -32 -39 -39 32 -32 39 39 32 32 39 vhcurveto
          -131 -641 rmoveto
          20 464 rlineto
          80 hlineto
          20 -464 rlineto
          endchar
        </CharString>
        <CharString name="f">
          -177 21 -21 448 68 168 24 callgsubr
          448 148 68 -148 59 -23 callgsubr
        </CharString>
        <CharString name="fi">
          55 21 -21 448 68 150 67 -49 49 -49 68 hstemhm
          116 100 215 100 hintmask 11010110
          531 hmoveto
          516 -315 59 vlineto
          55 18 54 74 vhcurveto
          hintmask 11100110
          48 69 -18 61 hhcurveto
          44 67 -44 hlineto
          hintmask 11001110
          -21 callgsubr
          endchar
        </CharString>
        <CharString name="five">
          18 -12 73 302 74 188 75 hstem
          88 105 198 113 vstem
          238 61 rmoveto
          -71 -45 14 19 -42 hvcurveto
          -25 -62 rlineto
          -21 42 62 -23 79 hhcurveto
          148 118 75 150 201 -162 18 -149 5 hvcurveto
          188 264 75 -369 -333 vlineto
          100 -4 rlineto
          133 -5 70 -39 -107 vvcurveto
          -85 -60 -66 -93 vhcurveto
          endchar
        </CharString>
        <CharString name="fivesuperior">
          -266 364 51 120 51 64 56 hstem
          42 59 83 71 vstem
          120 415 rmoveto
          -28 -30 7 8 -22 hvcurveto
          -15 -45 rlineto
          -11 24 35 -10 44 hhcurveto
          77 50 47 64 91 -75 17 -79 3 hvcurveto
          64 135 56 -194 -169 vlineto
          44 -2 rlineto
          65 -2 33 -12 -47 vvcurveto
          -33 -26 -26 -38 vhcurveto
          endchar
        </CharString>
        <CharString name="fl">
          68 21 -21 448 68 168 68 hstem
          116 100 215 100 vstem
          531 hmoveto
          733 -45 vlineto
          -21 callgsubr
          -215 575 rmoveto
          55 18 54 74 34 44 -9 -5 45 vhcurveto
          -154 -215 vlineto
          endchar
        </CharString>
        <CharString name="florin">
          -131 -138 73 513 68 168 68 hstem
          -60 -138 rmoveto
          20 hlineto
          135 60 53 161 20 hvcurveto
          46 372 rlineto
          147 hlineto
          8 68 rlineto
          -148 hlineto
          7 59 rlineto
          55 7 25 54 74 hhcurveto
          22 26 -5 -3 21 hvcurveto
          19 65 rlineto
          7 -28 -27 4 -26 hhcurveto
          -135 -63 -56 -140 -17 hvcurveto
          -5 -40 -80 -33 -4 -35 rlineto
          76 hlineto
          -51 -413 rlineto
          -73 -9 -49 -27 -62 hhcurveto
          endchar
        </CharString>
        <CharString name="four">
          -1 21 -21 156 74 470 -20 hstem
          345 100 vstem
          445 700 rmoveto
          -83 hlineto
          -352 -479 rlineto
          -65 335 -156 100 156 70 75 -70 vlineto
          -239 -1 rmoveto
          -46 -53 -12 0 hvcurveto
          -3 16 rlineto
          0 36 30 38 52 vhcurveto
          102 139 rlineto
          37 51 25 49 0 vvcurveto
          16 -3 rlineto
          0 -12 -55 -58 vvcurveto
          -208 vlineto
          endchar
        </CharString>
        <CharString name="foursuperior">
          -250 391 -21 57 50 229 -20 hstem
          177 60 vstem
          237 706 -23 callsubr
        </CharString>
        <CharString name="fraction">
          -14 -57 callgsubr
          hstem
          91 hmoveto
          -55 callsubr
          endchar
        </CharString>
        <CharString name="franc">
          11 21 -21 129 63 120 84 220 84 hstem
          95 100 vstem
          31 129 rmoveto
          64 -129 100 129 151 63 -151 120 262 84 -262 220 292 84 -392 -508 -64 hlineto
          endchar
        </CharString>
        <CharString name="g">
          34 -33 callsubr
          hstem
          52 callsubr
          vstem
          404 -17 -87 callsubr
          56 57 26 -32 callgsubr
          -12 -41 -2 -40 vhcurveto
          -121 73 rmoveto
          -113 -14 90 111 119 31 84 103 50 12 -2 -10 50 hvcurveto
          -282 vlineto
          -84 -63 -26 -56 vhcurveto
          endchar
        </CharString>
        <CharString name="gbreve">
          34 -33 callsubr
          77 64 92 -20 hstem
          52 callsubr
          vstem
          404 -17 -87 callsubr
          56 57 26 -32 callgsubr
          -12 -41 -2 -40 vhcurveto
          -121 73 rmoveto
          -113 -14 90 111 119 31 84 103 50 12 -2 -10 50 hvcurveto
          -282 vlineto
          -84 -63 -26 -56 vhcurveto
          132 705 -103 callgsubr
        </CharString>
        <CharString name="gcircumflex">
          34 -33 callsubr
          0 231 -10 callsubr
          hintmask 11011100
          404 -17 -87 callsubr
          hvcurveto
          hintmask 11101100
          56 57 26 -32 callgsubr
          -12 -41 -2 -40 vhcurveto
          -121 73 rmoveto
          -113 -14 90 111 119 31 84 103 50 12 -2 -10 50 hvcurveto
          -282 vlineto
          -84 -63 -26 -56 vhcurveto
          -149 555 rmoveto
          -86 callsubr
          endchar
        </CharString>
        <CharString name="gcommaaccent">
          34 -13 callgsubr
          0 140 0 -51 callsubr
          0 62 276 -20 hstem
          52 callsubr
          vstem
          347 589 rmoveto
          4 86 3 48 31 56 25 57 rlinecurve
          -65 30 rlineto
          0 -69 -92 -10 -38 vhcurveto
          -21 -87 rlineto
          -2 -7 0 -4 -5 vvcurveto
          -21 13 -19 30 -1 vhcurveto
          118 -609 -87 callsubr
          56 57 26 -32 callgsubr
          -12 -41 -2 -40 vhcurveto
          -121 73 rmoveto
          -113 -14 90 111 119 31 84 103 50 12 -2 -10 50 hvcurveto
          -282 vlineto
          -84 -63 -26 -56 vhcurveto
          endchar
        </CharString>
        <CharString name="gdot">
          34 -33 callsubr
          74 142 hstem
          50 106 61 142 43 100 vstem
          404 -17 -87 callsubr
          56 57 26 -32 callgsubr
          -12 -41 -2 -40 vhcurveto
          -121 73 rmoveto
          -113 -14 90 111 119 31 84 103 50 12 -2 -10 50 hvcurveto
          -282 vlineto
          -84 -63 -26 -56 vhcurveto
          -66 617 rmoveto
          9 callsubr
        </CharString>
        <CharString name="germandbls">
          153 -12 68 -56 -20 704 68 hstemhm
          116 100 90 91 76 94 -5 97 hintmask 01111100
          567 597 rmoveto
          113 -106 42 -101 vhcurveto
          -33 hlineto
          -139 -72 -67 -147 hvcurveto
          -22 vlineto
          -76 -33 rlineto
          -35 76 -448 100 557 vlineto
          62 32 65 80 vhcurveto
          21 hlineto
          59 65 -25 -68 hvcurveto
          -76 -167 -4 -134 vvcurveto
          -76 50 -39 62 -24 vhcurveto
          63 -25 rlineto
          hintmask 10111010
          13 callsubr
          rlineto
          -31 63 63 -15 60 hhcurveto
          1 callsubr
          -20 callsubr
          hvcurveto
          -68 30 rlineto
          -57 25 -30 15 40 vvcurveto
          hintmask 10111100
          88 170 6 113 vvcurveto
          endchar
        </CharString>
        <CharString name="ghook">
          34 -33 callsubr
          68 36 callgsubr
          289 528 rmoveto
          -158 -81 -103 -168 -168 78 -101 128 56 57 26 -32 callgsubr
          -12 -41 -2 -40 vhcurveto
          -77 -4 -48 -58 -99 hhcurveto
          -63 -49 23 18 -47 hvcurveto
          -23 -64 rlineto
          -22 46 67 -23 94 hhcurveto
          123 101 71 126 hvcurveto
          543 4 callsubr
          -60 -87 hvcurveto
          7 -39 -40 4 -34 hhcurveto
          -6 -472 rmoveto
          -113 -14 90 111 119 31 84 103 50 12 -2 -10 50 hvcurveto
          -282 vlineto
          -84 -63 -26 -56 vhcurveto
          endchar
        </CharString>
        <CharString name="glottalstop">
          -97 21 -21 293 59 330 68 hstem
          103 90 109 107 vstem
          103 hmoveto
          90 293 -43 callsubr
        </CharString>
        <CharString name="glottalstopbar">
          -72 21 -21 162 64 67 59 330 68 hstem
          128 90 109 107 vstem
          128 226 rmoveto
          -128 -64 128 -162 90 162 148 64 -148 67 -43 callsubr
        </CharString>
        <CharString name="glottalstopreversed">
          -97 21 -21 293 -38 callgsubr
          -72 15 -59 hhcurveto
          -141 -105 58 callgsubr
          -293 90 vlineto
          endchar
        </CharString>
        <CharString name="glottalstopstrokereversed">
          -72 21 -21 162 64 67 -38 callgsubr
          -62 15 -59 hhcurveto
          -141 -115 58 callgsubr
          -67 -148 -64 148 -162 90 162 128 64 -128 vlineto
          endchar
        </CharString>
        <CharString name="grave">
          -238 609 -35 callsubr
          37 -8 callgsubr
          endchar
        </CharString>
        <CharString name="grave.cap">
          -238 781 -21 157 -20 hstem
          28 867 -88 callsubr
        </CharString>
        <CharString name="gravecomb">
          609 -35 callsubr
          -425 -8 callgsubr
          endchar
        </CharString>
        <CharString name="greater">
          29 110 -21 498 -20 hstem
          45 152 rmoveto
          29 -63 451 210 rlineto
          78 vlineto
          -451 210 -29 -63 254 -132 rlineto
          50 -26 74 -20 0 vvcurveto
          -16 vlineto
          0 -74 -19 -50 -26 vhcurveto
          endchar
        </CharString>
        <CharString name="greaterequal">
          50 90 76 503 -20 hstem
          68 166 rmoveto
          462 -76 -462 hlineto
          -11 184 rmoveto
          28 -63 445 190 rlineto
          78 vlineto
          -445 190 -28 -63 237 -112 rlineto
          51 -24 83 -22 0 vvcurveto
          -16 vlineto
          0 -83 -21 -51 -24 vhcurveto
          endchar
        </CharString>
        <CharString name="guillemotleft">
          -97 62 -21 435 -20 hstem
          169 41 -30 callgsubr
          311 -172 -30 callgsubr
          endchar
        </CharString>
        <CharString name="guillemotright">
          -97 62 -21 435 -20 hstem
          416 213 -30 callsubr
          -39 172 -30 callsubr
          endchar
        </CharString>
        <CharString name="guilsinglleft">
          -272 62 -21 435 -20 hstem
          169 41 -30 callgsubr
          endchar
        </CharString>
        <CharString name="guilsinglright">
          -272 62 -21 435 -20 hstem
          241 213 -30 callsubr
          endchar
        </CharString>
        <CharString name="h">
          53 32 callgsubr
          212 -61 callsubr
          endchar
        </CharString>
        <CharString name="h.turnedulhook">
          59 callgsubr
          -12 -20 hstemhm
          82 101 232 100 hintmask 11011100
          268 -12 rmoveto
          58 53 25 59 36 hvcurveto
          16 -9 rlineto
          0 -16 -47 -50 vvcurveto
          -174 100 724 -62 callgsubr
        </CharString>
        <CharString name="h.turnulhookrighttl">
          47 -33 callsubr
          -12 -20 hstemhm
          82 101 232 100 hintmask 11011100
          268 -12 rmoveto
          58 53 25 59 36 hvcurveto
          16 -9 rlineto
          0 -16 -47 -50 vvcurveto
          -43 vlineto
          -78 callgsubr
          -51 -4 39 37 hvcurveto
          592 -62 callgsubr
        </CharString>
        <CharString name="hbar">
          53 32 callgsubr
          78 64 70 -20 hstem
          78 100 239 100 vstem
          417 606 rmoveto
          64 -239 70 -100 -70 -66 -64 66 -606 100 350 vlineto
          85 65 11 callgsubr
          -29 callsubr
          -47 -58 -25 -59 -33 vhcurveto
          -16 9 rlineto
          0 16 47 50 vvcurveto
          56 vlineto
          endchar
        </CharString>
        <CharString name="hcircumflex">
          53 32 callgsubr
          212 -20 239 -61 callsubr
          -195 283 rmoveto
          -86 callsubr
          endchar
        </CharString>
        <CharString name="henghook">
          52 -13 callgsubr
          152 -20 480 68 156 68 hstem
          78 100 238 100 vstem
          178 350 rmoveto
          85 64 11 callgsubr
          -394 -82 callgsubr
          396 -14 callsubr
          -46 -58 -25 -59 -33 vhcurveto
          -65 callgsubr
          -558 100 vlineto
          endchar
        </CharString>
        <CharString name="hhook">
          52 32 callgsubr
          156 68 hstem
          78 100 238 100 vstem
          516 hmoveto
          0 callsubr
          -46 -58 -25 -59 -33 vhcurveto
          -65 callgsubr
          -558 100 350 vlineto
          85 64 11 callgsubr
          -318 vlineto
          endchar
        </CharString>
        <CharString name="hook">
          537 -21 87 88 0 41 hstemhm
          -349 125 -54 54 hintmask 10101000
          -349 516 -72 callsubr
          26 18 -15 -24 hvcurveto
          hintmask 11010000
          -30 -17 -19 -28 vhcurveto
          -26 hlineto
          endchar
        </CharString>
        <CharString name="hookabovecomb">
          537 -21 87 88 0 41 hstemhm
          -319 125 -54 54 hintmask 10101000
          -319 516 -72 callsubr
          26 18 -15 -24 hvcurveto
          hintmask 11010000
          -30 -17 -19 -28 vhcurveto
          -26 hlineto
          endchar
        </CharString>
        <CharString name="hungarumlaut">
          -105 608 -21 228 -20 hstem
          174 815 -94 callgsubr
        </CharString>
        <CharString name="hyphen">
          -206 225 77 hstem
          50 225 rmoveto
          240 77 -240 hlineto
          endchar
        </CharString>
        <CharString name="i">
          -282 21 -21 516 44 callsubr
          70 36 callsubr
          hintmask 11101000
          182 10 callsubr
          hintmask 11110000
          -12 691 -74 callsubr
          endchar
        </CharString>
        <CharString name="iacute">
          -253 3 callgsubr
          45 callsubr
          97 100 vstem
          248 -82 callsubr
          -83 -732 rmoveto
          -35 callgsubr
          endchar
        </CharString>
        <CharString name="ibar">
          -262 21 -21 232 64 220 44 callsubr
          80 36 callsubr
          hintmask 11110100
          1 232 rmoveto
          91 -232 100 232 89 64 -89 220 -100 -220 -91 hlineto
          hintmask 11111000
          79 395 -74 callsubr
          endchar
        </CharString>
        <CharString name="ibreve">
          -280 3 callgsubr
          109 64 92 -20 hstem
          83 100 vstem
          183 10 callsubr
          175 761 -103 callgsubr
        </CharString>
        <CharString name="icircumflex">
          -252 21 -21 516 243 hstem
          96 100 vstem
          -25 611 rmoveto
          -86 callsubr
          96 -759 rmoveto
          -35 callgsubr
          endchar
        </CharString>
        <CharString name="idieresis">
          -252 3 callgsubr
          129 120 hstemhm
          3 120 -26 100 -26 120 hintmask 11110100
          3 685 rmoveto
          -34 callsubr
          33 27 27 33 33 -27 27 -33 -32 -28 -27 -33 vhcurveto
          288 -44 callsubr
          -33 -27 27 33 33 27 27 33 32 28 -27 -33 vhcurveto
          hintmask 11101000
          -94 -685 rmoveto
          -35 callgsubr
          endchar
        </CharString>
        <CharString name="igrave">
          -252 3 callgsubr
          282 -20 hstem
          97 100 vstem
          11 -8 callgsubr
          154 -778 rmoveto
          -35 callgsubr
          endchar
        </CharString>
        <CharString name="ij">
          -13 -220 73 147 -20 536 44 callsubr
          70 36 callsubr
          59 210 -112 36 callsubr
          hintmask 1111011000000000
          182 10 callsubr
          hintmask 1111101000000000
          -12 691 -74 callsubr
          192 -911 rmoveto
          -15 callgsubr
          521 vlineto
          hintmask 1111100010000000
          -100 -530 hlineto
          hintmask 1111101000000000
          29 callsubr
          vlineto
          hintmask 1111100100000000
          98 911 -74 callsubr
          endchar
        </CharString>
        <CharString name="imacron">
          -280 3 callgsubr
          141 69 hstem
          83 100 vstem
          183 10 callsubr
          -107 637 -73 callsubr
        </CharString>
        <CharString name="infinity">
          287 124 64 -44 -21 270 63 hstemhm
          65 76 548 76 hintmask 01111000
          203 123 rmoveto
          84 59 64 56 65 hvcurveto
          hintmask 10111000
          -59 67 54 -60 88 hhcurveto
          109 36 81 89 87 -50 75 -90 -87 -55 -58 -59 -68 hvcurveto
          60 -68 -53 57 -88 hhcurveto
          -88 -53 -72 -97 hvcurveto
          hintmask 01111000
          -86 41 -78 97 vhcurveto
          hintmask 10111000
          5 65 rmoveto
          -44 -23 42 61 56 22 46 41 47 48 -72 -13 57 hvcurveto
          26 -6 -1 -17 -24 -3 rlineto
          -6 -44 -56 -88 -49 hhcurveto
          416 hmoveto
          -52 -46 86 7 -49 hvcurveto
          -28 4 -1 17 26 6 rlineto
          13 56 50 72 41 hhcurveto
          41 27 -39 -64 -55 -22 -47 -43 hvcurveto
          endchar
        </CharString>
        <CharString name="integral">
          -229 -13 callgsubr
          795 69 hstemhm
          -42 239 -100 100 hintmask 11100000
          97 -9 rmoveto
          -90 -42 -48 -70 -5 vhcurveto
          -1 -8 -9 0 -9 hhcurveto
          -3 -67 rlineto
          38 hlineto
          128 75 82 126 hvcurveto
          505 vlineto
          76 29 74 88 14 13 -1 -1 8 vhcurveto
          11 66 rlineto
          3 -12 -28 2 -8 hhcurveto
          hintmask 11010000
          -158 -57 -86 -136 hvcurveto
          endchar
        </CharString>
        <CharString name="iogonek">
          -282 -220 55 681 -20 126 128 hstemhm
          6 67 -5 128 -114 100 hintmask 11110100
          182 10 callsubr
          -49 -37 -27 -37 -44 -94 callsubr
          45 49 42 60 31 hvcurveto
          hintmask 11101000
          -114 686 rmoveto
          10 callgsubr
        </CharString>
        <CharString name="itilde">
          -251 3 callgsubr
          118 55 callgsubr
          97 100 hintmask 11101000
          197 10 callsubr
          116 12 callgsubr
          hintmask 11011000
          -97 callsubr
          hhcurveto
          hintmask 11101000
          -61 callgsubr
        </CharString>
        <CharString name="j">
          -277 -220 73 663 44 callsubr
          -23 210 -112 36 callsubr
          hintmask 11110000
          -2 -220 rmoveto
          -15 callgsubr
          521 vlineto
          hintmask 11100100
          -100 -530 hlineto
          hintmask 11110000
          29 callsubr
          vlineto
          hintmask 11101000
          98 911 -74 callsubr
          endchar
        </CharString>
        <CharString name="jcircumflex">
          -293 -220 73 663 243 hstemhm
          -23 210 -100 100 hintmask 11100000
          -2 -220 rmoveto
          -15 callgsubr
          521 -100 -530 vlineto
          29 callsubr
          vlineto
          -22 831 rmoveto
          36 -32 -72 callgsubr
          rlineto
          hintmask 11010000
          49 callgsubr
        </CharString>
        <CharString name="jcrosstail">
          -219 -13 callgsubr
          668 44 callsubr
          -70 68 146 36 callsubr
          hintmask 11110100
          348 80 rmoveto
          -92 -9 rlineto
          445 -100 -454 vlineto
          hintmask 11111000
          -12 -1 rlineto
          -156 -15 -58 -74 -70 vvcurveto
          -78 57 -44 81 vhcurveto
          hintmask 11110100
          115 69 79 141 4 hvcurveto
          5 vlineto
          100 9 rlineto
          -197 -18 rmoveto
          -107 -31 -41 -67 -53 -10 29 22 40 34 47 127 10 vhcurveto
          hintmask 11111000
          -15 695 -74 callsubr
          endchar
        </CharString>
        <CharString name="jdotlessstroke">
          -258 -220 73 287 64 312 -20 hstemhm
          -10 210 -100 100 hintmask 11110000
          200 140 rmoveto
          89 64 -89 312 hlineto
          hintmask 11101000
          -100 -312 -91 -64 91 -154 hlineto
          hintmask 11110000
          29 callsubr
          21 vlineto
          -15 callgsubr
          endchar
        </CharString>
        <CharString name="k">
          20 0 -20 26 -21 531 -20 244 -20 hstemhm
          78 100 hintmask 01111000
          25 callgsubr
          hintmask 10111000
          8 callgsubr
          endchar
        </CharString>
        <CharString name="kcommaaccent">
          20 30 callsubr
          536 -20 244 -20 hstem
          78 100 vstem
          25 callgsubr
          8 callgsubr
          -74 -366 rmoveto
          -105 callgsubr
          endchar
        </CharString>
        <CharString name="kgreenlandic">
          33 0 -20 26 -21 531 -20 hstemhm
          95 100 hintmask 01110000
          195 516 rmoveto
          -100 -516 100 hlineto
          331 516 rmoveto
          hintmask 10110000
          -113 hlineto
          -196 -261 240 -270 111 14 -245 256 rlineto
          endchar
        </CharString>
        <CharString name="kturned">
          21 -187 -21 208 -20 536 -20 35 -20 hstemhm
          389 100 hintmask 11011000
          389 -208 rmoveto
          100 724 -100 hlineto
          -347 -516 rmoveto
          hintmask 11101000
          138 hlineto
          186 208 -240 323 -116 -14 245 -309 rlineto
          endchar
        </CharString>
        <CharString name="l">
          -280 21 -21 740 33 callsubr
          endchar
        </CharString>
        <CharString name="lacute">
          -280 21 -21 740 -20 217 -20 hstem
          83 100 vstem
          83 hmoveto
          740 100 -740 vlineto
          54 937 -103 callsubr
          endchar
        </CharString>
        <CharString name="lbelt">
          -94 21 -21 294 65 139 65 177 -20 hstem
          10 68 164 100 -100 209 vstem
          452 353 rmoveto
          -110 3 rlineto
          384 -100 -194 vlineto
          -34 17 -40 0 vhcurveto
          -16 -4 -22 41 rlineto
          26 -14 -34 28 -53 hhcurveto
          -62 -48 -43 -76 -92 75 -53 157 -5 hvcurveto
          -294 100 290 vlineto
          108 -4 rlineto
          -372 161 rmoveto
          17 8 34 43 37 31 -35 -33 21 vhcurveto
          16 -25 12 -37 2 -9 rrcurveto
          -123 3 -47 24 61 vvcurveto
          endchar
        </CharString>
        <CharString name="lcaron">
          -202 21 -21 740 -20 67 -20 hstem
          83 100 -100 189 vstem
          83 hmoveto
          740 100 -740 vlineto
          91 787 -99 callsubr
        </CharString>
        <CharString name="lcommaaccent">
          -280 30 callsubr
          760 33 callsubr
          -58 vmoveto
          -105 callgsubr
          endchar
        </CharString>
        <CharString name="ldot">
          -154 21 -21 740 -20 hstem
          89 100 56 142 vstem
          189 hmoveto
          740 -100 -740 vlineto
          156 374 rmoveto
          9 callsubr
        </CharString>
        <CharString name="less">
          29 110 -21 498 -20 hstem
          276 285 rmoveto
          -52 23 -72 22 0 vvcurveto
          16 vlineto
          0 72 23 52 23 vhcurveto
          254 132 -29 63 -451 -210 rlineto
          -78 vlineto
          451 -210 29 63 rlineto
          endchar
        </CharString>
        <CharString name="lessequal">
          50 90 76 503 -20 hstem
          529 166 rmoveto
          -462 -76 462 hlineto
          -226 297 rmoveto
          -51 24 -83 21 0 vvcurveto
          16 vlineto
          0 83 22 51 24 vhcurveto
          237 112 -28 63 -445 -190 rlineto
          -78 vlineto
          445 -190 28 63 rlineto
          endchar
        </CharString>
        <CharString name="lmidtilde">
          -246 21 -21 314 66 13 66 45 callsubr
          100 100 vstem
          237 314 rmoveto
          46 37 16 54 26 hvcurveto
          -55 34 rlineto
          -23 -14 -11 -15 -34 hhcurveto
          -11 -10 4 5 -11 hvcurveto
          351 -100 -285 vlineto
          2 -10 -10 2 -11 hhcurveto
          -46 -36 -18 -54 -26 hvcurveto
          54 -32 rlineto
          23 14 11 15 34 hhcurveto
          8 9 -3 -4 9 hvcurveto
          -386 100 319 vlineto
          -4 11 12 -1 14 hhcurveto
          endchar
        </CharString>
        <CharString name="logicalnot">
          94 173 -21 250 81 hstem
          487 81 vstem
          568 483 rmoveto
          -502 -81 421 -250 81 hlineto
          endchar
        </CharString>
        <CharString name="longs">
          -177 21 -21 684 24 callgsubr
          575 -23 callgsubr
        </CharString>
        <CharString name="lozenge">
          12 21 -21 98 -21 624 -20 hstem
          223 701 rmoveto
          -203 -357 203 -344 rlineto
          100 hlineto
          215 344 -215 357 rlineto
          19 -522 rmoveto
          -34 -50 -27 -52 -84 callgsubr
          -24 51 -33 51 vhcurveto
          -105 165 105 178 rlineto
          31 52 26 50 0 vvcurveto
          16 hlineto
          0 29 -52 32 -50 vhcurveto
          114 -178 rlineto
          endchar
        </CharString>
        <CharString name="lslash">
          -280 21 -21 740 -20 hstemhm
          16 167 -100 100 -100 184 hintmask 11100000
          183 hmoveto
          369 vlineto
          hintmask 11001000
          84 26 rlineto
          69 vlineto
          hintmask 11100000
          -84 -26 rlineto
          302 vlineto
          hintmask 11010000
          -100 -333 hlineto
          hintmask 11100000
          -67 -21 rlineto
          -69 vlineto
          67 21 rlineto
          -338 vlineto
          endchar
        </CharString>
        <CharString name="m">
          359 32 callgsubr
          2 callsubr
          218 100 214 100 hintmask 11011100
          320 528 rmoveto
          -57 -33 -22 callsubr
          hintmask 10111100
          -69 callgsubr
          -49 hlineto
          58 callsubr
          hintmask 11011100
          -64 callgsubr
          -319 100 320 vlineto
          -37 callsubr
          endchar
        </CharString>
        <CharString name="macron">
          -132 637 69 hstem
          50 637 -73 callsubr
        </CharString>
        <CharString name="mhook">
          359 -13 callgsubr
          152 -20 480 68 2 callsubr
          218 100 214 100 hintmask 11101110
          822 320 rmoveto
          -37 callsubr
          -57 -33 -22 callsubr
          hintmask 11011110
          -69 callgsubr
          -49 hlineto
          58 callsubr
          hintmask 11101110
          -64 callgsubr
          -395 -82 callgsubr
          endchar
        </CharString>
        <CharString name="minus">
          70 330 78 hstem
          552 408 rmoveto
          -502 -78 502 hlineto
          endchar
        </CharString>
        <CharString name="mlonglegturned">
          359 -187 -21 196 68 9 35 callgsubr
          hintmask 10111110
          715 44 rmoveto
          -252 100 724 -100 -422 vlineto
          hintmask 11011110
          -50 callsubr
          hintmask 10111110
          57 33 11 45 42 hvcurveto
          16 hlineto
          hintmask 11011110
          -37 32 50 -19 53 hhcurveto
          hintmask 10111110
          67 23 11 45 42 hvcurveto
          endchar
        </CharString>
        <CharString name="mu">
          53 -189 -21 198 -56 callsubr
          472 -20 -42 callsubr
          hintmask 11001110
          83 -210 rmoveto
          100 170 hlineto
          52 -26 52 0 vhcurveto
          16 9 rlineto
          -23 11 41 -62 59 hhcurveto
          hintmask 10111110
          48 -98 callgsubr
          hintmask 11001110
          -17 -24 -38 -21 -65 hhcurveto
          -76 -23 58 72 hvcurveto
          330 -100 vlineto
          endchar
        </CharString>
        <CharString name="multiply">
          35 138 -21 462 -20 hstem
          464 117 rmoveto
          57 57 -175 174 174 174 -57 57 -174 -173 -170 171 -57 -58 170 -170 -172 -172 58 -57 171 171 rlineto
          endchar
        </CharString>
        <CharString name="n">
          65 32 callgsubr
          2 callsubr
          238 100 hintmask 10111000
          -36 callgsubr
          hintmask 11011000
          -75 callsubr
          -29 callsubr
          -66 -31 -11 -45 -42 vhcurveto
          53 callgsubr
          hintmask 10111000
          -69 callgsubr
          endchar
        </CharString>
        <CharString name="nacute">
          65 32 callgsubr
          -4 -20 273 -1 callgsubr
          238 100 hintmask 10111100
          -36 callgsubr
          hintmask 11011100
          -75 callsubr
          -29 callsubr
          -66 -31 -11 -45 -42 vhcurveto
          53 callgsubr
          hintmask 10111100
          -69 callgsubr
          280 253 -107 callsubr
          endchar
        </CharString>
        <CharString name="napostrophe">
          82 22 -21 460 68 -4 -20 282 -20 hstemhm
          107 100 238 100 hintmask 10111100
          84 525 rmoveto
          58 callsubr
          hintmask 11011100
          -75 callsubr
          -29 callsubr
          -66 -31 -11 -45 -42 vhcurveto
          53 callgsubr
          hintmask 10111100
          -69 callgsubr
          -112 262 -99 callsubr
        </CharString>
        <CharString name="ncaron">
          65 32 callgsubr
          -68 136 -72 -20 272 -1 callgsubr
          238 100 hintmask 10101110
          -36 callgsubr
          -75 callsubr
          hintmask 10011110
          -29 callsubr
          vhcurveto
          hintmask 11001110
          -66 -31 -22 callsubr
          -69 callgsubr
          hintmask 10011110
          361 220 rmoveto
          -36 32 -75 callgsubr
        </CharString>
        <CharString name="ncommaaccent">
          65 30 callsubr
          480 68 2 callsubr
          238 100 hintmask 11011100
          -36 callgsubr
          hintmask 11101100
          -75 callsubr
          -318 100 319 vlineto
          -51 callgsubr
          151 -582 rmoveto
          -105 callgsubr
          endchar
        </CharString>
        <CharString name="nine">
          73 -12 74 196 66 323 65 hstemhm
          50 100 284 125 -106 106 hintmask 11111000
          453 346 rmoveto
          -199 -59 -84 -127 -1 vhcurveto
          -68 -37 13 26 -53 hvcurveto
          -25 -62 rlineto
          -26 42 62 -25 79 hhcurveto
          202 90 129 233 204 -48 158 -220 -161 -80 -93 -135 -140 83 -86 148 66 58 20 68 32 hvcurveto
          hintmask 11110100
          -144 301 rmoveto
          hintmask 11111000
          112 -3 29 -76 -84 vvcurveto
          -96 -34 -64 -110 -101 -39 74 86 86 26 77 117 vhcurveto
          endchar
        </CharString>
        <CharString name="ninesuperior">
          -244 364 48 82 49 120 49 hstemhm
          15 65 114 78 -66 66 hintmask 11111000
          206 536 rmoveto
          -87 -28 -37 -56 -34 -17 7 14 -27 vhcurveto
          -18 -42 rlineto
          -14 23 32 -13 41 hhcurveto
          105 45 62 112 98 -24 76 -114 -79 -40 -45 -65 -66 40 -42 69 31 27 10 32 14 hvcurveto
          hintmask 11110100
          -61 127 rmoveto
          hintmask 11111000
          46 13 -29 -32 -35 -16 -24 -44 -39 -15 27 32 33 11 28 44 hvcurveto
          endchar
        </CharString>
        <CharString name="notequal">
          70 52 224 -76 76 124 76 -76 217 hstemhm
          hintmask 10100000
          189 52 rmoveto
          hintmask 01100000
          82 148 rlineto
          278 76 -236 hlineto
          68 124 rlineto
          168 76 -126 hlineto
          hintmask 10010000
          79 141 rlineto
          -85 hlineto
          hintmask 10100000
          -79 -141 rlineto
          -271 -76 229 hlineto
          -68 -124 rlineto
          -161 hlineto
          hintmask 01100000
          -76 119 vlineto
          hintmask 10100000
          -82 -148 rlineto
          endchar
        </CharString>
        <CharString name="nrthook">
          -80 callgsubr
          -415 100 422 vlineto
          hintmask 11101100
          -75 callsubr
          -395 vlineto
          -78 callgsubr
          -51 -4 39 37 hvcurveto
          endchar
        </CharString>
        <CharString name="nsuperior">
          -252 433 -21 226 46 hstem
          39 65 103 64 vstem
          27 682 rmoveto
          12 -62 rlineto
          -208 65 211 vlineto
          8 13 18 7 24 hhcurveto
          45 3 -30 -36 hvcurveto
          -160 64 161 vlineto
          78 -33 33 -73 -32 -22 -13 -19 -16 vhcurveto
          -6 hlineto
          -5 14 rlineto
          13 -7 -5 3 -11 hhcurveto
          endchar
        </CharString>
        <CharString name="ntilde">
          65 32 callgsubr
          -4 -20 110 55 callgsubr
          90 100 238 100 hintmask 10110110
          -36 callgsubr
          hintmask 11010110
          -75 callsubr
          -29 callsubr
          -66 -31 -11 -45 -42 vhcurveto
          53 callgsubr
          hintmask 10110110
          -69 callgsubr
          260 90 -93 callgsubr
          hintmask 11001110
          -97 callsubr
          hhcurveto
          hintmask 11010110
          -61 callgsubr
        </CharString>
        <CharString name="numbersign">
          192 21 -21 204 73 155 73 195 -20 hstem
          400 hmoveto
          78 hlineto
          28 204 rlineto
          139 73 -129 hlineto
          22 155 rlineto
          140 73 -130 46 callsubr
          -151 46 callsubr
          -136 -73 126 hlineto
          -21 -155 rlineto
          -148 -73 138 hlineto
          -28 -204 rlineto
          78 hlineto
          28 204 rlineto
          152 hlineto
          -120 228 rmoveto
          151 hlineto
          -21 -155 rlineto
          -152 hlineto
          endchar
        </CharString>
        <CharString name="o">
          37 -12 -51 callsubr
          hstem
          50 106 271 106 vstem
          -104 callsubr
          -41 callsubr
          hvcurveto
          endchar
        </CharString>
        <CharString name="oacute">
          37 -12 -51 callsubr
          249 51 callsubr
          vstem
          -104 callsubr
          -41 callsubr
          hvcurveto
          79 721 -107 callsubr
          endchar
        </CharString>
        <CharString name="obarred">
          45 -12 68 174 64 166 68 hstem
          54 106 270 107 vstem
          537 258 rmoveto
          168 -76 102 -166 -165 -76 -102 -168 -168 76 -102 165 166 76 102 168 vhcurveto
          -19 callgsubr
          -96 -35 77 97 -5 hvcurveto
          270 hlineto
          -97 -5 -33 -77 -96 hhcurveto
          404 vmoveto
          93 34 -74 -92 6 hvcurveto
          -268 hlineto
          92 7 35 74 93 hhcurveto
          endchar
        </CharString>
        <CharString name="obreve">
          37 -12 -51 callsubr
          77 64 92 51 callsubr
          vstem
          -104 callsubr
          -41 callsubr
          hvcurveto
          127 705 -103 callgsubr
        </CharString>
        <CharString name="ocircumflex">
          37 -12 -51 callsubr
          0 231 hstemhm
          50 106 271 106 hintmask 10111000
          -104 callsubr
          hvcurveto
          hintmask 11011000
          -41 callsubr
          vhcurveto
          -173 555 rmoveto
          -86 callsubr
          endchar
        </CharString>
        <CharString name="odieresis">
          37 -12 -51 callsubr
          80 120 hstemhm
          50 106 -32 120 -120 214 89 106 hintmask 11110010
          -104 callsubr
          -41 callsubr
          hvcurveto
          hintmask 11101010
          -168 612 rmoveto
          -34 callsubr
          33 27 27 33 33 -27 27 -33 -32 -28 -27 -33 vhcurveto
          -26 callgsubr
          vhcurveto
          hintmask 11100110
          -33 -27 27 33 33 27 27 33 32 28 -27 -33 hvcurveto
          endchar
        </CharString>
        <CharString name="oe">
          369 -12 71 18 -21 45 -21 156 62 162 68 hstemhm
          50 106 271 106 237 100 hintmask 10111111
          654 528 rmoveto
          -84 -49 -35 -56 -32 hvcurveto
          -16 hlineto
          59 -34 -54 32 -94 hhcurveto
          -165 -76 -102 -168 -168 76 -102 165 99 49 39 53 34 hvcurveto
          16 hlineto
          -53 35 48 -39 95 hhcurveto
          64 64 15 24 56 hvcurveto
          -20 60 rlineto
          -76 callsubr
          hintmask 01111111
          -362 -472 47 callgsubr
          101 31 -86 -104 3 hvcurveto
          -12 vlineto
          -41 callsubr
          vhcurveto
          241 242 rmoveto
          90 4 20 72 96 hhcurveto
          96 21 -72 -90 hvcurveto
          endchar
        </CharString>
        <CharString name="ogonek">
          24 -220 55 220 -20 hstem
          251 67 vstem
          410 55 rmoveto
          -101 -59 -58 -50 -64 -94 callsubr
          51 64 48 72 32 hvcurveto
          endchar
        </CharString>
        <CharString name="ograve">
          37 -12 -51 callsubr
          250 51 callsubr
          vstem
          -104 callsubr
          -41 callsubr
          hvcurveto
          -132 677 -98 callsubr
          endchar
        </CharString>
        <CharString name="ohorn">
          37 -12 -51 callsubr
          30 51 callsubr
          7 90 vstem
          540 558 rmoveto
          -61 -14 -45 -31 -27 vhcurveto
          66 -38 -67 37 -99 hhcurveto
          -165 -76 -102 -168 -168 76 -102 165 166 76 102 168 37 -4 33 -7 30 hvcurveto
          23 13 18 14 15 16 -27 callgsubr
          -313 -502 -4 callgsubr
        </CharString>
        <CharString name="ohungarumlaut">
          37 -12 -51 callsubr
          287 51 callsubr
          vstem
          -104 callsubr
          -41 callsubr
          hvcurveto
          -4 759 -94 callgsubr
        </CharString>
        <CharString name="omacron">
          37 -12 -51 callsubr
          109 69 hstem
          50 106 271 106 vstem
          -104 callsubr
          -41 callsubr
          hvcurveto
          -154 581 -73 callsubr
        </CharString>
        <CharString name="omegaclosed">
          219 -12 68 50 -21 375 68 hstem
          55 106 175 94 173 107 vstem
          382 528 rmoveto
          -192 -135 -96 -182 -160 30 -102 160 72 47 42 55 10 hvcurveto
          16 hlineto
          -55 10 45 -42 75 hhcurveto
          160 30 102 160 182 -136 96 -192 hvcurveto
          129 -472 rmoveto
          -52 -27 40 70 -2 hvcurveto
          84 -94 -84 vlineto
          -70 -4 -23 -40 -62 hhcurveto
          -80 -6 88 100 145 66 71 155 155 66 -71 -145 -100 -3 -88 -89 hvcurveto
          endchar
        </CharString>
        <CharString name="one">
          -208 21 -21 712 -20 hstem
          141 97 vstem
          238 hmoveto
          676 vlineto
          24 -20 12 -22 -5 -5 -1 -1 -5 vhcurveto
          -171 -37 3 -52 rlineto
          128 -621 hlineto
          endchar
        </CharString>
        <CharString name="onehalf">
          95 0 56 235 51 358 -20 32 -20 hstemhm
          86 69 363 74 hintmask 11101100
          101 hmoveto
          -55 callsubr
          145 370 rmoveto
          309 vlineto
          hintmask 11011100
          -31 callsubr
          370 -314 -47 callsubr
        </CharString>
        <CharString name="onequarter">
          64 21 -21 57 50 593 -20 32 -20 hstemhm
          86 69 327 60 hintmask 11011100
          155 370 rmoveto
          309 vlineto
          -31 callsubr
          15 -370 rmoveto
          hintmask 11101100
          -55 callsubr
          532 336 -23 callsubr
        </CharString>
        <CharString name="onesuperior">
          -353 391 -21 342 -20 hstem
          74 69 vstem
          143 370 rmoveto
          309 vlineto
          -31 callsubr
          endchar
        </CharString>
        <CharString name="oogonek">
          37 -220 55 154 67 3 callsubr
          hstem
          50 106 49 67 155 106 vstem
          533 258 rmoveto
          168 -76 102 -166 -165 -76 -102 -168 -160 69 -100 149 -9 vhcurveto
          -41 -35 -22 -32 -40 -94 callsubr
          48 55 46 68 29 hvcurveto
          92 39 46 86 128 vvcurveto
          -241 -202 -4 callgsubr
        </CharString>
        <CharString name="ordfeminine">
          -202 318 47 39 49 184 47 hstem
          51 64 90 66 vstem
          271 588 rmoveto
          64 -39 32 -69 -29 -43 -7 -12 -26 vhcurveto
          15 -39 21 4 rlineto
          4 19 15 3 19 hhcurveto
          41 10 -23 -31 hvcurveto
          -10 vlineto
          -47 -5 rlineto
          -73 -7 -34 -18 -58 vvcurveto
          -57 35 -24 47 42 25 21 21 14 vhcurveto
          4 hlineto
          -37 11 18 -5 13 hhcurveto
          13 10 5 0 hvcurveto
          10 39 rlineto
          -20 5 -2 6 16 vvcurveto
          -66 19 rmoveto
          -32 -26 -9 -26 -22 -16 11 23 23 15 20 37 3 vhcurveto
          38 4 rlineto
          -146 -219 rmoveto
          224 47 -224 hlineto
          endchar
        </CharString>
        <CharString name="ordmasculine">
          -217 318 47 42 46 186 44 hstem
          38 65 120 65 vstem
          288 545 rmoveto
          86 -40 52 -86 -85 -39 -52 -86 -87 39 -51 85 86 40 51 87 vhcurveto
          -126 -92 rmoveto
          -45 -14 42 50 46 14 48 45 49 12 -48 -46 -50 -12 -42 -49 hvcurveto
          -112 -135 rmoveto
          224 47 -224 hlineto
          endchar
        </CharString>
        <CharString name="oslash">
          37 -13 -21 22 -51 callsubr
          31 -85 callgsubr
          endchar
        </CharString>
        <CharString name="oslashacute">
          37 -13 -21 22 -51 callsubr
          249 -85 callgsubr
          232 616 -107 callsubr
          endchar
        </CharString>
        <CharString name="otilde">
          37 -12 -51 callsubr
          86 55 callgsubr
          50 106 271 106 hintmask 11101100
          -104 callsubr
          -41 callsubr
          hvcurveto
          66 558 -93 callgsubr
          hintmask 11011100
          -97 callsubr
          hhcurveto
          hintmask 11101100
          -61 callgsubr
        </CharString>
        <CharString name="overline">
          -46 751 91 hstem
          751 vmoveto
          500 91 -500 hlineto
          endchar
        </CharString>
        <CharString name="p">
          59 callgsubr
          -4 -20 hstemhm
          91 100 250 102 hintmask 11101100
          -25 callsubr
          -104 268 rmoveto
          -76 -31 -22 callsubr
          hintmask 11011100
          -69 callgsubr
          -49 hlineto
          24 -111 rlineto
          -621 100 210 vlineto
          57 callgsubr
          vhcurveto
          hintmask 11101100
          168 -78 99 -128 vhcurveto
          endchar
        </CharString>
        <CharString name="paragraph">
          10 21 -21 624 76 6 -20 hstemhm
          225 77 74 77 hintmask 11011000
          453 625 rmoveto
          36 7 25 5 12 18 3 16 rlinecurve
          3 29 rlineto
          -156 hlineto
          hintmask 10111000
          -40 -85 6 -54 hhcurveto
          -105 -70 -71 -127 -128 69 -79 134 hvcurveto
          -301 77 vlineto
          hintmask 11011000
          624 74 -624 77 vlineto
          endchar
        </CharString>
        <CharString name="parenleft">
          -248 -211 -21 999 -20 hstem
          48 107 vstem
          155 267 rmoveto
          303 63 84 50 74 vhcurveto
          -57 39 rlineto
          -115 -111 -48 -142 -247 vvcurveto
          -246 48 -142 115 -111 vhcurveto
          57 39 rlineto
          -50 73 -63 84 303 vvcurveto
          endchar
        </CharString>
        <CharString name="parenright">
          -246 -211 -21 999 -20 hstem
          143 107 vstem
          143 267 rmoveto
          -303 -63 -84 -50 -73 vhcurveto
          57 -39 rlineto
          115 111 48 142 246 vvcurveto
          247 -48 142 -115 111 vhcurveto
          -57 -39 rlineto
          50 -74 63 -84 -303 vvcurveto
          endchar
        </CharString>
        <CharString name="partialdiff">
          63 -12 65 321 66 198 74 hstem
          50 100 301 108 vstem
          240 638 rmoveto
          127 55 -106 -98 19 hvcurveto
          2 -27 -52 4 -27 hhcurveto
          -204 -81 -93 -154 -111 78 -94 145 221 65 185 161 213 -92 165 -224 -60 -48 -29 -25 -35 hvcurveto
          32 -58 rlineto
          22 32 34 16 42 hhcurveto
          110 -264 rmoveto
          25 55 -4 -2 21 hvcurveto
          -11 vlineto
          -128 -19 -176 -160 -95 -27 74 81 90 39 76 161 vhcurveto
          endchar
        </CharString>
        <CharString name="percent">
          252 7 callsubr
          94 73 130 74 hintmask 1011101111000000
          352 538 -96 callsubr
          510 -499 -96 callsubr
          hintmask 0111011111000000
          -360 -285 rmoveto
          -55 callsubr
          endchar
        </CharString>
        <CharString name="period">
          -274 -12 142 hstem
          65 142 vstem
          65 59 rmoveto
          9 callsubr
        </CharString>
        <CharString name="periodcentered">
          -280 198 142 hstem
          65 142 vstem
          65 269 rmoveto
          9 callsubr
        </CharString>
        <CharString name="perthousand">
          596 7 callsubr
          92 73 130 74 69 73 130 74 hintmask 1011101111110000
          352 538 -96 callsubr
          508 -499 -96 callsubr
          485 -123 -96 callsubr
          hintmask 0111011111110000
          -705 -285 rmoveto
          -55 callsubr
          endchar
        </CharString>
        <CharString name="peseta">
          332 -12 71 -59 -20 278 76 -12 69 125 -20 130 74 hstemhm
          88 100 213 96 85 100 hintmask 0110111110000000
          188 hmoveto
          258 39 vlineto
          153 117 51 170 148 -77 73 -153 hvcurveto
          -179 -700 hlineto
          100 334 rmoveto
          292 71 vlineto
          102 40 -50 -97 -97 -55 -48 -102 hvcurveto
          262 23 rmoveto
          hintmask 1001111110000000
          -35 76 -158 -85 callsubr
          177 -63 callsubr
          rlineto
          endchar
        </CharString>
        <CharString name="philatin">
          87 -15 callsubr
          50 106 121 80 120 106 vstem
          277 740 rmoveto
          -209 vlineto
          -146 -10 -81 -101 -162 vvcurveto
          -163 81 -100 146 -10 vhcurveto
          -193 80 193 vlineto
          146 10 80 100 163 vvcurveto
          162 -80 101 -146 10 vhcurveto
          209 vlineto
          -201 -482 rmoveto
          103 28 89 93 12 vhcurveto
          -409 vlineto
          -93 12 -28 89 104 vvcurveto
          321 hmoveto
          -104 -28 -89 -92 -12 vhcurveto
          409 vlineto
          92 -12 28 -89 -103 vvcurveto
          endchar
        </CharString>
        <CharString name="pi">
          69 0 -20 29 -21 445 83 hstemhm
          95 97 225 97 hintmask 10111000
          557 58 rmoveto
          -39 3 -4 40 89 vvcurveto
          243 81 83 -575 -83 75 -433 97 433 225 -234 vlineto
          -129 9 -20 20 -25 vhcurveto
          hintmask 01111000
          -24 20 37 -13 31 hhcurveto
          4 hlineto
          endchar
        </CharString>
        <CharString name="plus">
          56 125 -21 227 76 228 -20 hstem
          259 79 vstem
          552 407 rmoveto
          -214 228 -79 -228 -209 -76 209 -227 79 227 214 hlineto
          endchar
        </CharString>
        <CharString name="plusminus">
          50 90 76 234 81 173 -20 hstem
          256 79 vstem
          529 481 rmoveto
          -194 173 -79 -173 -189 -81 189 -170 79 170 194 hlineto
          -234 vmoveto
          -462 -76 462 hlineto
          endchar
        </CharString>
        <CharString name="product">
          186 -190 -21 827 84 hstem
          125 100 281 100 vstem
          20 616 rmoveto
          105 -827 100 827 281 -827 100 827 106 84 -692 hlineto
          endchar
        </CharString>
        <CharString name="q">
          34 -189 -21 198 68 404 36 callgsubr
          256 -12 rmoveto
          56 57 26 -32 callgsubr
          -16 -47 -50 vvcurveto
          -177 100 708 vlineto
          14 -65 -83 16 -65 hhcurveto
          -158 -81 -103 -168 -168 78 -101 128 hvcurveto
          146 179 -4 callsubr
        </CharString>
        <CharString name="qhook">
          34 -189 -21 198 -51 callsubr
          68 36 callgsubr
          557 596 rmoveto
          21 17 -5 -4 11 hvcurveto
          -12 callgsubr
          -4 vlineto
          7 -39 -40 4 -34 hhcurveto
          -158 -81 -103 -168 -168 78 -101 128 56 57 26 -32 callgsubr
          -16 -47 -50 vvcurveto
          -177 100 730 vlineto
          37 4 39 51 vhcurveto
          -155 -429 -4 callsubr
        </CharString>
        <CharString name="question">
          -175 -12 142 102 -21 424 77 hstemhm
          61 142 -116 80 0 84 0 100 hintmask 11101010
          hintmask 11110010
          167 211 rmoveto
          hintmask 11100100
          26 vlineto
          99 184 45 153 vvcurveto
          119 -80 59 -119 -60 -60 -25 -15 -32 vhcurveto
          23 -63 rlineto
          16 40 47 10 30 hhcurveto
          hintmask 11101010
          65 46 -42 -65 hvcurveto
          -120 -164 -21 -129 vvcurveto
          -47 vlineto
          hintmask 11110010
          -26 -152 rmoveto
          9 callsubr
        </CharString>
        <CharString name="questiondown">
          -185 -196 77 505 142 hstemhm
          20 100 48 142 -106 80 hintmask 11101000
          284 305 rmoveto
          -47 vlineto
          -129 -164 -21 -120 vvcurveto
          -65 46 -42 65 30 47 10 16 40 vhcurveto
          23 -63 rlineto
          -15 -32 -60 -25 -60 hhcurveto
          -119 -80 59 119 hvcurveto
          153 184 45 99 vvcurveto
          26 vlineto
          hintmask 11110000
          106 152 rmoveto
          39 -32 32 -39 -39 -32 -32 -39 -39 32 -32 39 39 32 32 39 vhcurveto
          endchar
        </CharString>
        <CharString name="quotedbl">
          -237 521 -21 264 -20 hstem
          25 764 rmoveto
          -17 callsubr
          99 hmoveto
          -17 callsubr
          endchar
        </CharString>
        <CharString name="quotedblbase">
          -71 -170 -21 45 callsubr
          250 70 -100 callgsubr
          -260 -17 -100 callgsubr
          endchar
        </CharString>
        <CharString name="quotedblleft">
          -180 514 -21 45 callsubr
          86 771 -47 callgsubr
          144 17 -47 callgsubr
          endchar
        </CharString>
        <CharString name="quotedblright">
          -140 514 -21 45 callsubr
          222 754 -100 callgsubr
          -260 -17 -100 callgsubr
          endchar
        </CharString>
        <CharString name="quoteleft">
          -380 518 -21 280 -20 hstem
          146 517 rmoveto
          -25 83 rlineto
          -5 17 -1 19 21 vvcurveto
          35 4 40 3 39 vhcurveto
          -71 6 rlineto
          0 -31 -101 -43 vvcurveto
          -2 0 -5 1 -6 vhcurveto
          9 -81 rlineto
          -23 3 13 -19 24 hhcurveto
          6 5 1 2 7 hvcurveto
          endchar
        </CharString>
        <CharString name="quoteright">
          -342 514 -21 45 callsubr
          20 754 -100 callgsubr
          endchar
        </CharString>
        <CharString name="quotesinglbase">
          -280 -170 -21 45 callsubr
          48 70 -100 callgsubr
          endchar
        </CharString>
        <CharString name="quotesingle">
          -409 521 -21 264 -20 hstem
          25 764 rmoveto
          -17 callsubr
          endchar
        </CharString>
        <CharString name="r">
          29 callgsubr
          hstemhm
          90 100 hintmask 10110000
          -58 callgsubr
          411 vlineto
          hintmask 11010000
          -79 callgsubr
          -14 26 rlineto
          hintmask 10110000
          -69 callgsubr
          endchar
        </CharString>
        <CharString name="racute">
          29 callgsubr
          273 -1 callgsubr
          hintmask 10111000
          -58 callgsubr
          411 vlineto
          hintmask 11011000
          -79 callgsubr
          -14 26 rlineto
          hintmask 10111000
          -69 callgsubr
          196 253 -107 callsubr
          endchar
        </CharString>
        <CharString name="radical">
          86 21 -21 114 -21 423 -20 244 -20 hstem
          126 433 rmoveto
          121 -433 rlineto
          150 hlineto
          235 740 rlineto
          -100 hlineto
          -156 -493 rlineto
          -23 -74 -20 -80 0 vvcurveto
          -18 hlineto
          0 -16 80 -21 74 vhcurveto
          -77 269 rlineto
          -201 -83 hlineto
          endchar
        </CharString>
        <CharString name="ramshorn">
          24 -18 65 416 65 hstem
          158 68 120 68 vstem
          504 463 rmoveto
          19 15 -18 -14 10 hvcurveto
          42 23 rlineto
          41 -18 -43 33 -59 hhcurveto
          -44 -26 -25 -38 -27 hvcurveto
          -88 -125 -88 125 rlineto
          37 -26 -27 26 -44 hhcurveto
          -59 -43 -33 -41 -18 hvcurveto
          42 -23 rlineto
          14 10 15 18 19 hhcurveto
          19 16 -18 -14 10 hvcurveto
          119 -166 rlineto
          -42 -51 -30 -53 -55 vvcurveto
          -72 44 -52 84 84 44 52 72 56 -31 50 -43 54 vhcurveto
          119 165 rlineto
          15 11 15 17 19 hhcurveto
          -218 -416 rmoveto
          -20 -40 14 45 29 31 41 29 33 hvcurveto
          29 -32 31 -40 -31 vvcurveto
          -45 -41 -14 -19 vhcurveto
          endchar
        </CharString>
        <CharString name="rcaron">
          29 callgsubr
          272 -1 callgsubr
          hintmask 10111000
          -58 callgsubr
          411 vlineto
          -79 callgsubr
          hintmask 11011000
          -14 26 rlineto
          -69 callgsubr
          hintmask 10111000
          237 220 rmoveto
          -36 32 -75 callgsubr
        </CharString>
        <CharString name="rcommaaccent">
          -185 38 callgsubr
          59 444 84 2 callsubr
          hintmask 11011000
          92 -58 rmoveto
          -105 callgsubr
          -86 585 16 callgsubr
          411 vlineto
          hintmask 11101000
          -79 callgsubr
          -14 26 rlineto
          hintmask 11011000
          -69 callgsubr
          endchar
        </CharString>
        <CharString name="registered">
          -22 306 47 55 111 79 33 55 44 hstem
          48 53 89 45 64 48 77 50 vstem
          474 518 rmoveto
          132 -87 80 -126 -125 -88 -80 -132 -129 84 -83 129 128 85 83 129 vhcurveto
          -213 -165 rmoveto
          -88 -72 62 103 103 72 65 88 88 75 -65 -103 -103 -68 -62 -95 hvcurveto
          -26 55 rmoveto
          77 24 vlineto
          51 -77 rlineto
          50 hlineto
          -57 83 rlineto
          33 9 11 27 29 vvcurveto
          45 -26 30 -52 vhcurveto
          -79 -223 hlineto
          45 111 rmoveto
          79 26 vlineto
          28 10 -16 -26 -27 -15 -10 -26 hvcurveto
          endchar
        </CharString>
        <CharString name="rfishhook">
          -199 32 callgsubr
          hstem
          78 100 vstem
          233 460 rmoveto
          23 21 -2 -30 16 hvcurveto
          58 26 rlineto
          74 -21 -85 0 -23 hhcurveto
          -102 -42 -61 -82 hvcurveto
          -385 100 384 vlineto
          37 4 39 51 vhcurveto
          endchar
        </CharString>
        <CharString name="rhook">
          -185 -13 callgsubr
          596 39 callsubr
          -492 vlineto
          -78 callgsubr
          -51 -4 39 37 hvcurveto
          487 vlineto
          -79 callgsubr
          -14 26 rlineto
          hintmask 10110000
          -69 callgsubr
          -47 hlineto
          endchar
        </CharString>
        <CharString name="rhookturned">
          -186 -9 callsubr
          84 -7 -21 472 -20 hstemhm
          171 100 hintmask 11011000
          326 15 callsubr
          592 -100 -411 vlineto
          -25 -30 -48 -8 -51 hhcurveto
          -41 -82 hlineto
          -1 2 15 -1 9 hhcurveto
          hintmask 10111000
          66 31 11 45 32 hvcurveto
          15 -121 hlineto
          -78 callgsubr
          endchar
        </CharString>
        <CharString name="ring">
          -290 568 53 98 53 hstem
          20 59 98 59 vstem
          20 669 -92 callsubr
        </CharString>
        <CharString name="ring.cap">
          -290 751 52 85 51 hstem
          28 57 85 57 vstem
          28 844 -71 callsubr
        </CharString>
        <CharString name="ringdown">
          -245 53 98 53 hstem
          -425 59 98 59 vstem
          -425 -144 -92 callsubr
        </CharString>
        <CharString name="rlonglegturned">
          -185 -12 84 -80 -7 callsubr
          696 46 callgsubr
          639 -100 -635 vlineto
          -25 -24 -41 -8 -45 hhcurveto
          -41 -82 hlineto
          -1 2 15 -1 9 hhcurveto
          hintmask 01111000
          66 31 11 45 32 -88 callgsubr
          47 hlineto
          endchar
        </CharString>
        <CharString name="rturned">
          -185 -12 84 -80 -7 callsubr
          472 46 callgsubr
          415 -100 -411 vlineto
          -25 -24 -41 -8 -45 hhcurveto
          -41 -82 hlineto
          -1 2 15 -1 9 hhcurveto
          hintmask 01111000
          66 31 11 45 32 -88 callgsubr
          47 hlineto
          endchar
        </CharString>
        <CharString name="s">
          -43 -12 -51 callsubr
          hstem
          83 91 165 97 vstem
          436 145 rmoveto
          -101 callsubr
          rlineto
          -31 63 63 -15 60 hhcurveto
          1 callsubr
          hvcurveto
          endchar
        </CharString>
        <CharString name="sacute">
          -43 -12 -51 callsubr
          249 -20 hstem
          83 91 165 97 vstem
          436 145 rmoveto
          -101 callsubr
          rlineto
          -31 63 63 -15 60 hhcurveto
          1 callsubr
          hvcurveto
          -66 632 -107 callsubr
          endchar
        </CharString>
        <CharString name="scaron">
          -43 -12 -51 callsubr
          -68 136 180 -20 hstemhm
          83 91 165 97 hintmask 10111100
          436 145 rmoveto
          -101 callsubr
          rlineto
          -31 63 63 -15 60 hhcurveto
          hintmask 11011100
          1 callsubr
          hvcurveto
          -4 599 rmoveto
          -36 32 -75 callgsubr
        </CharString>
        <CharString name="scedilla">
          -43 -220 43 93 140 -67 67 3 callsubr
          hstemhm
          83 91 111 62 -8 97 hintmask 10111100
          231 -92 callgsubr
          10 37 rlineto
          hintmask 11011010
          91 6 77 44 106 vvcurveto
          -101 callsubr
          52 -26 52 -14 50 -4 rlinecurve
          -17 -74 rlineto
          hintmask 11011100
          -69 callsubr
        </CharString>
        <CharString name="scircumflex">
          -43 -12 -51 callsubr
          0 231 hstemhm
          83 91 165 97 hintmask 10111000
          436 145 rmoveto
          -101 callsubr
          rlineto
          -31 63 63 -15 60 hhcurveto
          1 callsubr
          hvcurveto
          -356 466 rmoveto
          36 -32 -72 callgsubr
          rlineto
          hintmask 11011000
          49 callgsubr
        </CharString>
        <CharString name="scommaaccent">
          -43 38 callgsubr
          47 0 -51 callsubr
          hstem
          83 91 39 223 -97 97 vstem
          436 145 rmoveto
          -101 callsubr
          rlineto
          -31 63 63 -15 60 hhcurveto
          1 callsubr
          hvcurveto
          -221 -203 rmoveto
          -105 callgsubr
          endchar
        </CharString>
        <CharString name="section">
          -31 -60 68 627 68 hstem
          83 91 174 88 vstem
          445 93 rmoveto
          51 -28 31 -37 25 vhcurveto
          34 25 22 39 56 vvcurveto
          -20 callsubr
          vhcurveto
          -68 30 rlineto
          -78 callsubr
          21 63 rlineto
          18 -47 -55 14 -52 hhcurveto
          -103 -83 -55 -96 -50 28 -34 40 -24 hvcurveto
          -36 -26 -23 -39 -50 vvcurveto
          -76 50 -39 62 -24 vhcurveto
          63 -25 rlineto
          13 callsubr
          rlineto
          -31 63 63 -15 60 hhcurveto
          100 90 48 105 hvcurveto
          -187 305 rmoveto
          67 -27 24 -29 -36 vvcurveto
          -37 -20 -20 -29 -10 vhcurveto
          -30 13 rlineto
          -57 25 -40 25 40 vvcurveto
          32 14 27 31 13 vhcurveto
          endchar
        </CharString>
        <CharString name="semicolon">
          -288 -160 -21 275 174 0 130 hstem
          68 130 -114 114 vstem
          68 333 rmoveto
          -77 callsubr
          18 -237 rmoveto
          -105 callgsubr
          endchar
        </CharString>
        <CharString name="seven">
          -16 21 -21 618 82 hstem
          171 hmoveto
          329 620 rlineto
          80 -470 -82 246 vlineto
          74 46 19 0 hvcurveto
          9 -16 rlineto
          0 -30 -43 -43 -80 vhcurveto
          -268 -498 rlineto
          endchar
        </CharString>
        <CharString name="sevensuperior">
          -291 391 -21 280 56 hstem
          97 370 rmoveto
          148 280 rlineto
          56 -235 -56 172 vlineto
          -155 -280 rlineto
          endchar
        </CharString>
        <CharString name="shook">
          -43 -220 65 143 -51 callsubr
          hstemhm
          60 77 -54 91 165 97 hintmask 11110100
          60 34 rmoveto
          -111 vlineto
          -82 42 -61 102 -16 callgsubr
          -69 -3 41 38 hvcurveto
          80 vlineto
          -10 37 36 -6 36 hhcurveto
          1 callsubr
          -20 callsubr
          hvcurveto
          -68 30 rlineto
          hintmask 11101100
          -78 callsubr
          21 63 rlineto
          18 -47 -55 14 -52 hhcurveto
          -103 -83 -55 -96 -76 50 -39 62 -24 hvcurveto
          63 -25 rlineto
          -70 callsubr
          -57 -50 22 18 -42 vhcurveto
          endchar
        </CharString>
        <CharString name="six">
          73 -12 65 321 66 198 74 hstemhm
          60 106 -106 125 284 100 hintmask 11101100
          166 352 rmoveto
          110 4 46 176 163 hhcurveto
          42 35 -4 -14 36 hvcurveto
          19 68 rlineto
          17 -37 -49 7 -43 hhcurveto
          -218 -104 -203 -181 -187 49 -153 219 157 84 91 135 140 -83 86 -148 -66 -58 -24 -64 -32 hvcurveto
          hintmask 11110100
          147 -299 rmoveto
          hintmask 11101100
          -112 -32 77 84 96 34 64 110 101 39 -74 -86 -86 -33 -75 -107 hvcurveto
          endchar
        </CharString>
        <CharString name="sixsuperior">
          -237 364 49 120 49 82 48 hstemhm
          20 66 -66 78 114 65 hintmask 11110100
          242 703 rmoveto
          4 -14 -20 5 -22 hhcurveto
          -110 -56 -99 -90 -88 24 -71 114 79 40 45 65 66 -38 42 -66 -33 -28 -10 -32 -16 hvcurveto
          -10 hlineto
          67 33 57 67 22 11 -2 -5 14 vhcurveto
          -79 -244 rmoveto
          hintmask 11101100
          -44 -12 29 32 35 17 24 46 37 14 -27 -32 -33 -12 -28 -46 hvcurveto
          endchar
        </CharString>
        <CharString name="slash">
          -168 -15 callsubr
          71 19 callgsubr
        </CharString>
        <CharString name="space">
          -256 endchar
        </CharString>
        <CharString name="sterling">
          -4 0 82 242 63 247 78 hstemhm
          42 179 -114 99 -84 99 hintmask 11100100
          40 324 rmoveto
          77 hlineto
          3 -51 2 -50 -35 vvcurveto
          hintmask 11110000
          -18 callgsubr
          20 -4 48 -3 55 vhcurveto
          184 63 -188 hlineto
          hintmask 11101000
          -3 43 -1 45 36 -8 callsubr
          -29 3 -57 3 -61 hvcurveto
          -73 hlineto
          endchar
        </CharString>
        <CharString name="stretched">
          -12 -220 74 603 71 hstem
          86 107 vstem
          358 -146 rmoveto
          -113 -52 124 176 176 52 126 113 1 hvcurveto
          54 47 -11 -8 27 hvcurveto
          21 62 rlineto
          12 -28 -57 16 -64 hhcurveto
          -178 -94 -145 -229 -229 94 -145 178 64 57 16 12 28 hvcurveto
          -21 65 rlineto
          -8 -27 -47 -11 -54 hhcurveto
          endchar
        </CharString>
        <CharString name="summation">
          -14 -204 82 741 82 hstem
          60 619 rmoveto
          204 -364 -204 -377 rlineto
          -82 422 82 -323 vlineto
          208 376 -198 365 rlineto
          313 82 -422 hlineto
          endchar
        </CharString>
        <CharString name="t">
          -151 -12 71 388 69 125 -20 hstem
          99 100 vstem
          -80 callsubr
          -63 callsubr
          rlineto
          endchar
        </CharString>
        <CharString name="tbar">
          -151 -12 71 224 62 102 69 125 -20 hstem
          99 100 vstem
          23 482 rmoveto
          -35 76 -102 -76 -62 76 -119 -85 callsubr
          138 148 62 -148 102 -63 callsubr
          rlineto
          endchar
        </CharString>
        <CharString name="tcaron">
          -151 -12 71 388 69 311 -20 hstem
          99 100 vstem
          -80 callsubr
          -63 callsubr
          rlineto
          215 311 -99 callsubr
        </CharString>
        <CharString name="tcedilla">
          -151 -220 43 93 143 -71 71 -70 -20 478 69 125 -20 hstemhm
          99 100 64 62 hintmask 10011111
          209 -92 callgsubr
          10 37 rlineto
          hintmask 10101111
          7 8 -1 9 hhcurveto
          28 52 7 6 15 hvcurveto
          -13 66 rlineto
          -4 -20 -30 -4 -21 hhcurveto
          -75 -7 41 45 hvcurveto
          302 -63 callsubr
          -76 -34 rlineto
          -35 76 -283 vlineto
          -93 24 -55 71 -19 vhcurveto
          hintmask 11001111
          -19 -81 rlineto
          -69 callsubr
        </CharString>
        <CharString name="tcommaaccent">
          -151 38 callgsubr
          47 0 71 388 69 125 -20 hstem
          99 100 vstem
          -80 callsubr
          -63 callsubr
          rlineto
          88 -574 rmoveto
          -105 callgsubr
          endchar
        </CharString>
        <CharString name="theta">
          123 -12 65 292 68 274 65 hstem
          65 106 325 108 vstem
          604 370 rmoveto
          210 -46 172 -225 -225 -43 -172 -210 -210 52 -172 216 216 55 172 210 vhcurveto
          -270 -317 rmoveto
          -120 -42 118 174 -1 hvcurveto
          325 hlineto
          -174 -1 -42 -118 -119 hhcurveto
          634 vmoveto
          115 45 -109 -165 2 hvcurveto
          -325 hlineto
          165 2 45 109 116 hhcurveto
          endchar
        </CharString>
        <CharString name="thorn">
          59 callgsubr
          212 -20 hstem
          91 100 250 102 vstem
          -25 callsubr
          -250 480 rmoveto
          -100 -948 100 210 hlineto
          57 callgsubr
          168 -78 99 -128 -67 -39 -18 -35 -40 vhcurveto
          endchar
        </CharString>
        <CharString name="three">
          -33 -12 73 272 66 241 72 hstemhm
          342 101 -86 101 hintmask 11101000
          hintmask 11110000
          357 185 rmoveto
          -78 -63 -46 -78 -73 -39 13 17 -40 vhcurveto
          -25 -63 rlineto
          -20 42 57 -20 84 hhcurveto
          125 111 76 129 63 -37 83 -91 20 hvcurveto
          16 vlineto
          hintmask 11101000
          71 20 42 69 66 vvcurveto
          125 -91 57 -109 -73 -57 -16 -20 -38 vhcurveto
          23 -62 rlineto
          19 42 48 7 37 hhcurveto
          68 49 -37 -78 -85 -65 -38 -85 -3 hvcurveto
          -66 vlineto
          99 -2 66 -51 -95 vvcurveto
          endchar
        </CharString>
        <CharString name="threequarters">
          114 21 -21 57 50 257 49 -49 208 -159 249 -90 90 0 50 -12 -20 hstemhm
          155 80 297 60 hintmask 1101000111000000
          16 386 rmoveto
          -67 callgsubr
          119 -431 rmoveto
          -55 callsubr
          532 336 rmoveto
          -63 hlineto
          -169 -233 rlineto
          -46 vlineto
          hintmask 1101001011000000
          171 -57 61 57 39 hlineto
          hintmask 1110010111000000
          50 -39 vlineto
          -171 hmoveto
          hintmask 1100100111000000
          111 153 rlineto
          -153 vlineto
          endchar
        </CharString>
        <CharString name="threesuperior">
          -287 364 49 -49 208 90 50 hstemhm
          159 80 hintmask 01110000
          20 386 rmoveto
          hintmask 10110000
          -67 callgsubr
          endchar
        </CharString>
        <CharString name="tilde">
          -101 614 35 callsubr
          289 12 callgsubr
          hintmask 00100000
          -97 callsubr
          hhcurveto
          hintmask 10000000
          -61 callgsubr
        </CharString>
        <CharString name="tildecomb">
          614 35 callsubr
          -226 12 callgsubr
          hintmask 00100000
          -97 callsubr
          hhcurveto
          hintmask 10000000
          -61 callgsubr
        </CharString>
        <CharString name="tildedown">
          55 callsubr
          -255 -189 rmoveto
          -56 callgsubr
          hintmask 00100000
          -53 callsubr
          21 15 12 16 34 hhcurveto
          hintmask 10000000
          32 35 -39 56 hhcurveto
          endchar
        </CharString>
        <CharString name="tildedown2">
          -181 55 callsubr
          -225 -189 rmoveto
          -56 callgsubr
          hintmask 00100000
          -53 callsubr
          21 15 12 16 34 hhcurveto
          hintmask 10000000
          32 35 -39 56 hhcurveto
          endchar
        </CharString>
        <CharString name="trademark">
          34 437 -21 233 46 hstem
          90 53 109 50 198 49 vstem
          143 416 rmoveto
          233 81 46 -214 -46 80 -233 vlineto
          387 279 rmoveto
          -62 -172 -8 -21 1 -34 -1 -10 rlinecurve
          -7 hlineto
          0 -2 44 -8 21 vhcurveto
          -64 172 rlineto
          -74 -279 50 183 hlineto
          12 -4 29 5 vvcurveto
          8 hlineto
          2 -9 3 -22 3 -9 63 -189 rcurveline
          48 hlineto
          65 189 5 14 3 17 1 10 rlinecurve
          8 -1 rlineto
          -1 -8 -6 -26 -26 vvcurveto
          -169 49 279 vlineto
          endchar
        </CharString>
        <CharString name="trthook">
          -169 -13 callgsubr
          599 69 123 -20 hstem
          99 100 vstem
          254 15 callsubr
          523 -9 callgsubr
          123 -45 callsubr
          -66 -76 -34 rlineto
          -35 76 -524 vlineto
          -78 callgsubr
          endchar
        </CharString>
        <CharString name="two">
          21 0 83 555 74 hstem
          391 105 vstem
          326 83 rmoveto
          -66 -73 -12 0 hvcurveto
          -7 16 rlineto
          0 50 48 53 53 vhcurveto
          103 104 110 90 139 vvcurveto
          132 -94 59 -121 -86 -69 -23 -21 -49 vhcurveto
          25 -62 rlineto
          20 60 39 12 71 hhcurveto
          67 52 -43 -78 -121 -80 -44 -261 -276 hvcurveto
          -76 467 83 vlineto
          endchar
        </CharString>
        <CharString name="twosuperior">
          -278 370 56 235 51 hstem
          162 74 vstem
          100 426 -47 callsubr
        </CharString>
        <CharString name="u">
          -73 callgsubr
          -42 callsubr
          hintmask 10011100
          -2 callgsubr
          hintmask 01111100
          71 -98 callgsubr
          hintmask 10011100
          -97 callgsubr
          endchar
        </CharString>
        <CharString name="uacute">
          -73 callgsubr
          281 34 callgsubr
          hintmask 01111110
          71 -98 callgsubr
          hintmask 10011110
          -97 callgsubr
          118 789 -107 callsubr
          endchar
        </CharString>
        <CharString name="ubar">
          53 -67 callsubr
          186 64 222 -20 -42 callsubr
          hintmask 10011110
          43 230 rmoveto
          40 -33 hlineto
          -140 54 -69 124 vhcurveto
          hintmask 01111110
          0 callgsubr
          129 40 64 -40 222 -100 -222 -226 222 -100 -222 -40 vlineto
          hintmask 10011110
          239 -238 rmoveto
          -80 -19 64 78 hvcurveto
          32 226 -136 vlineto
          -17 -24 -38 -21 -65 hhcurveto
          endchar
        </CharString>
        <CharString name="ubreve">
          -73 callgsubr
          109 64 92 -20 -42 callsubr
          hintmask 10011111
          -2 callgsubr
          hintmask 01111111
          71 -98 callgsubr
          hintmask 10011111
          -97 callgsubr
          162 773 -103 callgsubr
        </CharString>
        <CharString name="ucircumflex">
          -73 callgsubr
          263 -66 callsubr
          -137 623 rmoveto
          41 callgsubr
          rlineto
          hintmask 10011110
          -125 148 -6 callgsubr
          endchar
        </CharString>
        <CharString name="udieresis">
          -73 callgsubr
          112 120 hstemhm
          83 100 -54 120 -120 214 66 100 hintmask 1001110010000000
          -2 callgsubr
          hintmask 0111110010000000
          71 -98 callgsubr
          hintmask 1001110010000000
          -97 callgsubr
          hintmask 1001101010000000
          -132 680 rmoveto
          -34 callsubr
          33 27 27 33 33 -27 27 -33 -32 -28 -27 -33 vhcurveto
          -26 callgsubr
          vhcurveto
          hintmask 1001100110000000
          -33 -27 27 33 33 27 27 33 32 28 -27 -33 hvcurveto
          endchar
        </CharString>
        <CharString name="ugrave">
          -73 callgsubr
          282 -66 callsubr
          -93 745 rmoveto
          -5 -7 -2 -7 -7 vvcurveto
          -17 14 -16 20 -9 vhcurveto
          174 -82 31 45 rlineto
          hintmask 10011110
          -200 145 rlineto
          endchar
        </CharString>
        <CharString name="uhorn">
          -73 callgsubr
          62 -20 -42 callsubr
          78 90 hintmask 10011111
          587 558 rmoveto
          -79 -24 -54 -54 -18 vhcurveto
          109 -100 -422 vlineto
          -97 callgsubr
          hintmask 01111111
          0 callgsubr
          232 vlineto
          53 16 37 25 26 27 -27 callgsubr
          endchar
        </CharString>
        <CharString name="uhungarumlaut">
          -73 callgsubr
          319 34 callgsubr
          hintmask 01111110
          71 -98 callgsubr
          hintmask 10011110
          -97 callgsubr
          33 827 -94 callgsubr
        </CharString>
        <CharString name="umacron">
          -73 callgsubr
          141 69 -42 callgsubr
          hintmask 01111110
          71 -98 callgsubr
          hintmask 10011110
          -97 callgsubr
          -116 649 -73 callsubr
        </CharString>
        <CharString name="underscore">
          110 0 71 hstem
          20 hmoveto
          614 71 -614 hlineto
          endchar
        </CharString>
        <CharString name="uni00A0">
          68 -12 68 171 66 167 68 hstemhm
          50 106 145 243 -106 106 hintmask 11110100
          544 142 rmoveto
          39 -19 61 -78 10 vhcurveto
          hintmask 11111000
          16 vlineto
          78 10 19 55 43 vvcurveto
          120 -115 32 -120 vhcurveto
          hintmask 11110100
          -209 -50 -150 -120 -121 50 -149 212 204 28 90 64 hvcurveto
          -106 229 rmoveto
          -40 -20 -37 -54 -1 vhcurveto
          -63 -1 rlineto
          -64 vlineto
          63 -1 rlineto
          59 15 -46 -35 -70 -54 -20 -70 -121 -37 94 109 109 37 92 121 70 54 -19 -70 hvcurveto
          endchar
        </CharString>
        <CharString name="uni01F0">
          51 callgsubr
          64 160 -20 hstemhm
          -10 210 -100 100 hintmask 11110000
          -10 -28 callgsubr
          623 vlineto
          hintmask 11101000
          -100 -636 hlineto
          hintmask 11110000
          -98 -34 -30 -76 vhcurveto
          113 828 -90 callsubr
        </CharString>
        <CharString name="uni0252">
          64 -67 callsubr
          416 68 hstemhm
          105 97 256 102 hintmask 10011100
          458 266 rmoveto
          -111 -44 -99 -111 -50 -41 29 9 -10 vhcurveto
          267 vlineto
          70 69 29 58 86 43 -80 -114 vhcurveto
          -136 -278 rmoveto
          148 90 129 148 148 -67 115 -143 -79 -29 -24 -46 -35 hvcurveto
          -16 hlineto
          -22 40 rlineto
          30 -16 -37 0 -13 hhcurveto
          -18 -7 -5 0 hvcurveto
          -11 -60 rlineto
          33 -10 5 -17 -43 vvcurveto
          -288 vlineto
          hintmask 01111100
          -18 -113 rlineto
          25 hlineto
          26 19 1 23 12 hvcurveto
          15 28 rlineto
          16 hlineto
          hintmask 10011100
          -45 32 33 -11 57 hhcurveto
          endchar
        </CharString>
        <CharString name="uni0254">
          30 callgsubr
          hstem
          307 106 vstem
          165 57 rmoveto
          -51 -36 8 10 -33 hvcurveto
          -20 -61 rlineto
          -11 26 54 -15 60 hhcurveto
          162 86 90 180 180 -86 90 -162 -60 -54 -15 -11 -26 hvcurveto
          20 -59 rlineto
          8 25 44 9 51 hhcurveto
          100 42 -82 -120 -120 -42 -81 -100 hvcurveto
          endchar
        </CharString>
        <CharString name="uni0258">
          -8 -12 71 177 62 163 67 hstem
          45 100 237 106 vstem
          261 528 rmoveto
          -155 -61 -97 -158 hvcurveto
          -37 337 vlineto
          -108 -40 -69 -101 -58 -43 9 19 -56 vhcurveto
          -20 -60 rlineto
          -24 56 64 -15 64 hhcurveto
          162 78 110 160 155 -74 115 -153 hvcurveto
          121 -230 rmoveto
          -237 hlineto
          90 21 73 96 96 20 -73 -90 4 vhcurveto
          endchar
        </CharString>
        <CharString name="uni0259">
          -8 -12 67 178 62 162 71 hstem
          45 100 237 106 vstem
          -2 callgsubr
          153 74 115 155 160 -78 110 -162 22 callsubr
          101 40 -69 -93 hvcurveto
          -337 -52 hlineto
          -158 61 -97 155 vhcurveto
          121 245 rmoveto
          -100 -4 -20 -78 -96 hhcurveto
          -96 -21 78 100 hvcurveto
          endchar
        </CharString>
        <CharString name="uni025A">
          106 -12 67 238 43 121 71 hstem
          380 105 vstem
          258 -12 rmoveto
          153 74 115 155 31 -3 30 -6 27 hvcurveto
          37 31 rlineto
          -48 callsubr
          -13 -15 -22 -19 -29 -20 rrcurveto
          83 -34 -71 50 -110 hhcurveto
          22 callsubr
          82 40 -39 -79 14 hvcurveto
          -94 -55 -121 -58 -114 -39 rrcurveto
          -124 14 64 -75 135 hhcurveto
          122 275 rmoveto
          -79 -4 -129 -117 -74 -29 45 65 -10 vhcurveto
          103 41 75 40 56 34 rrcurveto
          endchar
        </CharString>
        <CharString name="uni025B">
          57 callsubr
          55 101 -101 229 hintmask 11110000
          256 460 rmoveto
          48 42 -10 -7 21 hvcurveto
          20 59 rlineto
          11 -23 -51 15 -57 hhcurveto
          -100 -101 -32 -110 -43 19 -54 78 -10 hvcurveto
          -16 vlineto
          -78 -10 -19 -65 -46 vvcurveto
          -108 88 -46 124 60 47 15 11 26 vhcurveto
          -20 59 rlineto
          -10 -33 -29 -7 -51 hhcurveto
          -68 -43 32 58 hvcurveto
          hintmask 11101000
          56 25 35 103 2 vhcurveto
          64 vlineto
          -94 2 -39 31 46 vvcurveto
          57 48 21 57 vhcurveto
          endchar
        </CharString>
        <CharString name="uni025D">
          22 -12 68 183 64 28 43 86 68 hstemhm
          288 96 vstemhm
          384 384 rmoveto
          14 8 14 10 16 13 rrcurveto
          -48 callsubr
          -20 -22 -23 -19 -19 -13 rrcurveto
          72 -25 -85 23 -84 hhcurveto
          -57 -51 -15 -11 -23 hvcurveto
          hintmask 11111000
          20 -59 rlineto
          7 21 42 10 48 hhcurveto
          -46 callgsubr
          -17 65 -80 10 hvcurveto
          16 vlineto
          80 10 17 54 41 vvcurveto
          endchar
        </CharString>
        <CharString name="uni0261">
          -24 -220 79 316 58 236 47 -47 59 hstemhm
          25 71 -41 93 -53 69 201 93 -30 69 hintmask 1110100100000000
          458 328 rmoveto
          56 -20 21 -22 20 vhcurveto
          16 vlineto
          38 7 25 4 12 19 3 16 rlinecurve
          hintmask 1110100010000000
          3 29 rlineto
          -149 hlineto
          hintmask 1101010100000000
          8 -27 -31 4 -34 hhcurveto
          -125 -76 -55 -125 -72 26 -70 72 -17 hvcurveto
          hintmask 1110001100000000
          -32 -20 -26 -22 -44 vvcurveto
          -25 5 -10 8 -17 vhcurveto
          hintmask 1110100010000000
          -34 -24 -49 -38 -68 vvcurveto
          -95 74 -46 207 110 81 46 107 84 -62 47 -121 13 vhcurveto
          -106 11 rlineto
          hintmask 1110001100000000
          -36 4 -8 7 20 vvcurveto
          22 10 16 35 20 vhcurveto
          -1 8 15 -1 24 hhcurveto
          109 93 44 109 hvcurveto
          -170 -330 rmoveto
          hintmask 1110100010000000
          104 -11 36 -20 -41 vvcurveto
          -47 -51 -20 -50 -141 -90 16 56 40 39 29 19 12 vhcurveto
          104 221 rmoveto
          hintmask 1110010100000000
          -75 -35 44 75 75 34 42 75 75 33 -45 -72 -75 -32 -44 -75 hvcurveto
          endchar
        </CharString>
        <CharString name="uni0263">
          14 -13 callgsubr
          318 -21 371 -20 hstem
          149 68 126 68 vstem
          324 261 rmoveto
          -20 -43 -16 -73 -84 callgsubr
          -16 73 -20 43 vhcurveto
          -119 255 rlineto
          -102 hlineto
          138 -288 rlineto
          25 -51 52 -93 0 vvcurveto
          -35 -51 -46 -78 -51 vvcurveto
          -72 45 -52 86 86 45 52 72 49 -46 79 -35 53 vhcurveto
          0 52 92 25 51 vhcurveto
          138 288 rlineto
          -102 hlineto
          -163 -668 rmoveto
          -21 -42 13 43 36 31 49 31 40 hvcurveto
          31 -38 33 -50 -37 vvcurveto
          -43 -42 -13 -21 vhcurveto
          endchar
        </CharString>
        <CharString name="uni0265">
          53 -187 -21 196 68 460 -20 hstem
          82 100 239 100 vstem
          283 -12 rmoveto
          47 58 25 -32 callgsubr
          -16 -47 -50 vvcurveto
          -174 100 724 -100 -350 vlineto
          -85 -65 -25 -59 -99 -16 64 78 vhcurveto
          318 -100 -319 vlineto
          -146 61 -63 140 vhcurveto
          endchar
        </CharString>
        <CharString name="uni026D">
          -268 -13 callgsubr
          892 -20 hstem
          89 100 vstem
          244 15 callsubr
          816 -100 -817 vlineto
          -78 callgsubr
          endchar
        </CharString>
        <CharString name="uni026E">
          160 -220 74 146 -20 462 74 224 -20 hstem
          83 100 361 107 vstem
          521 -84 callsubr
          -438 224 -100 -740 100 442 249 vlineto
          29 51 16 0 hvcurveto
          endchar
        </CharString>
        <CharString name="uni026F">
          359 -12 68 -64 -20 93 35 callgsubr
          hintmask 10011110
          815 101 rmoveto
          -52 callgsubr
          -50 callsubr
          hintmask 01111110
          57 33 11 45 42 hvcurveto
          16 hlineto
          hintmask 10011110
          -37 32 50 -19 63 hhcurveto
          hintmask 01111110
          57 33 11 45 42 -88 callgsubr
          49 hlineto
          endchar
        </CharString>
        <CharString name="uni0272">
          -80 callgsubr
          -491 -82 callgsubr
          499 vlineto
          hintmask 11101100
          -75 callsubr
          -318 100 vlineto
          endchar
        </CharString>
        <CharString name="uni027C">
          -185 -187 -21 652 39 callsubr
          -623 100 619 vlineto
          -79 callgsubr
          -14 26 rlineto
          hintmask 10110000
          -69 callgsubr
          -47 hlineto
          endchar
        </CharString>
        <CharString name="uni027F">
          -199 -187 -21 668 68 hstem
          169 100 vstem
          114 460 rmoveto
          51 4 -39 -37 hvcurveto
          -592 100 593 vlineto
          82 -42 61 -102 -23 -85 0 -74 -21 vhcurveto
          58 -26 rlineto
          30 16 21 2 23 hhcurveto
          endchar
        </CharString>
        <CharString name="uni0284">
          -183 -220 73 147 64 532 68 hstem
          137 100 vstem
          292 596 rmoveto
          21 17 -5 -4 11 hvcurveto
          -12 callgsubr
          -457 -104 -64 104 -14 vlineto
          -98 -2 -32 -35 -76 hhcurveto
          -14 -14 3 2 -16 hvcurveto
          -13 -71 rlineto
          -5 26 28 -2 25 hhcurveto
          119 2 69 52 161 vvcurveto
          5 99 64 -99 456 vlineto
          37 4 39 51 vhcurveto
          endchar
        </CharString>
        <CharString name="uni0285">
          -222 -13 callgsubr
          611 69 hstemhm
          117 99 -99 231 -215 99 hintmask 11100000
          hintmask 11001000
          216 -27 rmoveto
          57 16 238 62 vvcurveto
          132 -63 66 -131 -8 -28 -2 -3 -12 vhcurveto
          8 -66 rlineto
          hintmask 11010000
          1 8 13 1 14 hhcurveto
          64 36 -52 -70 hvcurveto
          -64 -16 -235 -52 vvcurveto
          -129 85 -77 127 vhcurveto
          19 67 hlineto
          hintmask 11100000
          -9 -8 0 1 -8 hvcurveto
          -74 5 -33 58 62 vvcurveto
          endchar
        </CharString>
        <CharString name="uni0287">
          -151 -102 -21 123 69 388 71 hstem
          196 100 vstem
          372 34 rmoveto
          35 -76 283 vlineto
          120 -41 56 -130 -28 -52 -7 -6 -15 vhcurveto
          13 -66 rlineto
          4 20 30 4 21 hhcurveto
          75 7 -41 -45 hvcurveto
          -302 -148 -69 148 -123 32 vlineto
          33 15 19 38 7 hvcurveto
          13 66 rlineto
          endchar
        </CharString>
        <CharString name="uni0293">
          -46 -302 -21 99 72 148 65 381 74 hstem
          -20 80 283 102 vstem
          150 247 rmoveto
          -63 vlineto
          45 -7 rlineto
          92 -14 56 -47 -92 vvcurveto
          -37 -11 -39 -17 -26 vhcurveto
          -15 hlineto
          0 -2 18 -10 22 vhcurveto
          58 -26 -69 41 -69 hhcurveto
          -87 -57 -53 -83 -88 82 -61 107 40 38 7 16 34 hvcurveto
          8 -42 4 -42 4 -38 67 5 rcurveline
          53 -6 51 -12 47 vhcurveto
          58 42 41 65 85 vvcurveto
          111 -67 88 -114 25 vhcurveto
          156 193 rlineto
          74 -385 -74 193 vlineto
          24 57 16 0 hvcurveto
          9 -16 rlineto
          0 -47 -46 -35 -43 vhcurveto
          -67 -505 rmoveto
          -57 -52 31 56 40 29 21 36 59 37 -38 -59 27 hvcurveto
          5 -9 3 -9 4 -9 rrcurveto
          -15 -23 -30 -9 -38 hhcurveto
          endchar
        </CharString>
        <CharString name="uni0296">
          -97 -12 68 330 59 295 -20 hstem
          103 90 109 107 vstem
          103 386 rmoveto
          45 hlineto
          86 68 -52 -112 -106 -57 -60 -92 -58 -27 9 21 -56 hvcurveto
          -22 -54 rlineto
          -29 42 62 -15 59 hhcurveto
          141 115 80 155 172 -138 50 -78 hvcurveto
          295 -90 vlineto
          endchar
        </CharString>
        <CharString name="uni0298">
          263 -12 65 634 65 hstem
          60 106 475 108 vstem
          749 370 rmoveto
          200 -101 182 -245 -245 -98 -182 -200 -200 98 -182 245 245 101 182 200 vhcurveto
          -108 -1 rmoveto
          -212 -102 -104 -135 -135 -103 104 212 212 103 106 135 135 102 -106 -212 vhcurveto
          -301 hmoveto
          10 callgsubr
        </CharString>
        <CharString name="uni029A">
          68 -12 68 171 65 168 68 hstemhm
          70 106 -106 243 145 106 hintmask 11110100
          70 142 rmoveto
          -64 28 -90 204 212 50 149 121 120 -50 150 -209 -120 -115 -32 -120 -43 22 -55 75 -10 vhcurveto
          -16 vlineto
          -75 -10 -22 -61 -39 vvcurveto
          106 229 rmoveto
          70 54 19 70 121 37 -92 -109 -109 -37 -94 -121 -70 -54 20 70 35 15 46 59 vhcurveto
          hintmask 11101100
          63 65 -63 hlineto
          hintmask 11110100
          -54 -20 39 40 hvcurveto
          endchar
        </CharString>
</ttFont>
